<?xml version="1.0" encoding="UTF-8"?>
<!DOCTYPE svg PUBLIC "-//W3C//DTD SVG 1.1//EN" "http://www.w3.org/Graphics/SVG/1.1/DTD/svg11.dtd">
<svg xmlns="http://www.w3.org/2000/svg" version="1.1" width="500px" height="500px" style="shape-rendering:geometricPrecision; text-rendering:geometricPrecision; image-rendering:optimizeQuality; fill-rule:evenodd; clip-rule:evenodd" xmlns:xlink="http://www.w3.org/1999/xlink">
<g><path style="opacity:0.99" fill="#dab76d" d="M 148.5,213.5 C 148.5,244.5 148.5,275.5 148.5,306.5C 147.5,306.5 146.5,306.5 145.5,306.5C 145.5,275.5 145.5,244.5 145.5,213.5C 146.5,213.5 147.5,213.5 148.5,213.5 Z"/></g>
<g><path style="opacity:0.998" fill="#cdad3d" d="M 79.5,215.5 C 88.5166,220.672 97.1833,226.339 105.5,232.5C 105.666,236.514 105.499,240.514 105,244.5C 103.482,245.163 102.315,246.163 101.5,247.5C 101.158,248.338 100.492,248.672 99.5,248.5C 97.9731,248.427 96.9731,249.094 96.5,250.5C 95.5032,268.659 95.1698,286.992 95.5,305.5C 93.5,305.5 91.5,305.5 89.5,305.5C 89.8325,292.15 89.4992,278.817 88.5,265.5C 87.8933,265.624 87.56,265.957 87.5,266.5C 85.3374,268.083 83.0041,269.416 80.5,270.5C 79.5051,281.988 79.1717,293.655 79.5,305.5C 77.5,305.5 75.5,305.5 73.5,305.5C 73.3334,275.498 73.5,245.498 74,215.5C 75.7755,214.464 77.6089,214.464 79.5,215.5 Z"/></g>
<g><path style="opacity:0.235" fill="#f6ecd8" d="M 239.5,217.5 C 237.512,217.173 235.512,216.84 233.5,216.5C 231.307,216.719 229.307,217.385 227.5,218.5C 228.692,216.078 230.692,215.078 233.5,215.5C 235.883,215.361 237.883,216.028 239.5,217.5 Z"/></g>
<g><path style="opacity:0.995" fill="#e3c17e" d="M 239.5,217.5 C 242.853,218.512 244.52,220.846 244.5,224.5C 244.812,229.412 242.812,232.745 238.5,234.5C 235.833,234.5 233.167,234.5 230.5,234.5C 228.973,234.573 227.973,233.906 227.5,232.5C 227.573,230.973 226.906,229.973 225.5,229.5C 224.167,226.833 224.167,224.167 225.5,221.5C 226.906,221.027 227.573,220.027 227.5,218.5C 229.307,217.385 231.307,216.719 233.5,216.5C 235.512,216.84 237.512,217.173 239.5,217.5 Z"/></g>
<g><path style="opacity:1" fill="#e0bb72" d="M 327.5,216.5 C 332.833,216.5 338.167,216.5 343.5,216.5C 343.5,229.833 343.5,243.167 343.5,256.5C 343.5,268.167 343.5,279.833 343.5,291.5C 342.859,298.475 339.192,302.809 332.5,304.5C 330.833,304.5 329.167,304.5 327.5,304.5C 327.5,275.167 327.5,245.833 327.5,216.5 Z"/></g>
<g><path style="opacity:0.801" fill="#ebd3a3" d="M 326.5,216.5 C 332.5,215.167 338.5,215.167 344.5,216.5C 344.829,230.01 344.496,243.344 343.5,256.5C 343.5,243.167 343.5,229.833 343.5,216.5C 338.167,216.5 332.833,216.5 327.5,216.5C 327.167,216.5 326.833,216.5 326.5,216.5 Z"/></g>
<g><path style="opacity:0.994" fill="#ccac39" d="M 63.5,219.5 C 64.498,247.995 64.8313,276.662 64.5,305.5C 63.5,305.5 62.5,305.5 61.5,305.5C 61.5,277.167 61.5,248.833 61.5,220.5C 61.8417,219.662 62.5084,219.328 63.5,219.5 Z"/></g>
<g><path style="opacity:0.239" fill="#f6ebd7" d="M 227.5,218.5 C 227.573,220.027 226.906,221.027 225.5,221.5C 225.427,219.973 226.094,218.973 227.5,218.5 Z"/></g>
<g><path style="opacity:0.994" fill="#ccac39" d="M 57.5,222.5 C 59.4915,249.813 60.1582,277.48 59.5,305.5C 58.5,305.5 57.5,305.5 56.5,305.5C 56.1757,277.759 56.509,250.093 57.5,222.5 Z"/></g>
<g><path style="opacity:0.993" fill="#cdad3d" d="M 52.5,224.5 C 53.4979,251.328 53.8312,278.328 53.5,305.5C 52.5,305.5 51.5,305.5 50.5,305.5C 50.5,278.833 50.5,252.167 50.5,225.5C 51.1667,225.167 51.8333,224.833 52.5,224.5 Z"/></g>
<g><path style="opacity:0.228" fill="#f7efde" d="M 202.5,225.5 C 201.5,225.5 200.5,225.5 199.5,225.5C 199.5,234.167 199.5,242.833 199.5,251.5C 205.167,251.5 210.833,251.5 216.5,251.5C 210.69,252.49 204.69,252.823 198.5,252.5C 198.5,243.167 198.5,233.833 198.5,224.5C 200.099,224.232 201.432,224.566 202.5,225.5 Z"/></g>
<g><path style="opacity:0.843" fill="#ecd6a9" d="M 202.5,225.5 C 204.099,225.232 205.432,225.566 206.5,226.5C 204.5,226.5 202.5,226.5 200.5,226.5C 200.5,234.5 200.5,242.5 200.5,250.5C 205.833,250.5 211.167,250.5 216.5,250.5C 216.5,246.167 216.5,241.833 216.5,237.5C 217.833,242.167 217.833,246.833 216.5,251.5C 210.833,251.5 205.167,251.5 199.5,251.5C 199.5,242.833 199.5,234.167 199.5,225.5C 200.5,225.5 201.5,225.5 202.5,225.5 Z"/></g>
<g><path style="opacity:0.999" fill="#e1bd75" d="M 186.5,226.5 C 188.5,226.5 190.5,226.5 192.5,226.5C 192.5,242.167 192.5,257.833 192.5,273.5C 192.631,274.239 192.464,274.906 192,275.5C 190.052,274.891 188.218,274.224 186.5,273.5C 186.027,272.094 185.027,271.427 183.5,271.5C 179.783,270.08 177.45,267.413 176.5,263.5C 176.5,254.167 176.5,244.833 176.5,235.5C 177.906,235.027 178.573,234.027 178.5,232.5C 180.288,229.385 182.954,227.385 186.5,226.5 Z"/></g>
<g><path style="opacity:0.998" fill="#e0bb72" d="M 206.5,226.5 C 207.167,226.833 207.833,227.167 208.5,227.5C 210.118,229.785 212.118,231.785 214.5,233.5C 215.674,234.514 216.34,235.847 216.5,237.5C 216.5,241.833 216.5,246.167 216.5,250.5C 211.167,250.5 205.833,250.5 200.5,250.5C 200.5,242.5 200.5,234.5 200.5,226.5C 202.5,226.5 204.5,226.5 206.5,226.5 Z"/></g>
<g><path style="opacity:0.89" fill="#f3e4c7" d="M 208.5,227.5 C 211.522,228.522 213.522,230.522 214.5,233.5C 212.118,231.785 210.118,229.785 208.5,227.5 Z"/></g>
<g><path style="opacity:0.008" fill="#f9f3e8" d="M 225.5,229.5 C 226.906,229.973 227.573,230.973 227.5,232.5C 226.094,232.027 225.427,231.027 225.5,229.5 Z"/></g>
<g><path style="opacity:0.192" fill="#f7efde" d="M 178.5,232.5 C 178.573,234.027 177.906,235.027 176.5,235.5C 176.427,233.973 177.094,232.973 178.5,232.5 Z"/></g>
<g><path style="opacity:0.643" fill="#f5ead4" d="M 230.5,234.5 C 233.167,234.5 235.833,234.5 238.5,234.5C 235.786,236.972 233.119,236.972 230.5,234.5 Z"/></g>
<g><path style="opacity:0.089" fill="#f9f5ea" d="M 61.5,220.5 C 61.5,248.833 61.5,277.167 61.5,305.5C 61.5,305.833 61.5,306.167 61.5,306.5C 60.8333,306.5 60.1667,306.5 59.5,306.5C 59.5,306.167 59.5,305.833 59.5,305.5C 60.1582,277.48 59.4915,249.813 57.5,222.5C 58.6715,221.655 60.0048,220.989 61.5,220.5 Z"/></g>
<g><path style="opacity:0.532" fill="#f3e4c8" d="M 192.5,273.5 C 192.5,257.833 192.5,242.167 192.5,226.5C 190.5,226.5 188.5,226.5 186.5,226.5C 188.515,225.076 190.848,224.41 193.5,224.5C 193.83,241.009 193.496,257.342 192.5,273.5 Z"/></g>
<g><path style="opacity:0.526" fill="#f9f2e5" d="M 243.5,305.5 C 243.5,284.833 243.5,264.167 243.5,243.5C 237.833,243.5 232.167,243.5 226.5,243.5C 225.566,244.568 225.232,245.901 225.5,247.5C 224.387,246.054 224.22,244.387 225,242.5C 225.561,241.978 226.228,241.645 227,241.5C 232.888,241.385 238.555,241.718 244,242.5C 244.829,263.671 244.663,284.671 243.5,305.5 Z"/></g>
<g><path style="opacity:0.551" fill="#f2e1c1" d="M 226.5,243.5 C 226.5,264.167 226.5,284.833 226.5,305.5C 232.167,305.5 237.833,305.5 243.5,305.5C 237.69,306.49 231.69,306.823 225.5,306.5C 225.393,286.762 225.393,267.095 225.5,247.5C 225.232,245.901 225.566,244.568 226.5,243.5 Z"/></g>
<g><path style="opacity:0.993" fill="#dfbc71" d="M 226.5,243.5 C 232.167,243.5 237.833,243.5 243.5,243.5C 243.5,264.167 243.5,284.833 243.5,305.5C 237.833,305.5 232.167,305.5 226.5,305.5C 226.5,284.833 226.5,264.167 226.5,243.5 Z"/></g>
<g><path style="opacity:0.755" fill="#f2e1c0" d="M 252.5,242.5 C 258.758,242.19 264.924,242.524 271,243.5C 271.826,264.406 271.66,285.24 270.5,306C 264.251,306.809 258.084,306.642 252,305.5C 251.179,284.427 251.346,263.427 252.5,242.5 Z"/></g>
<g><path style="opacity:0.998" fill="#debb6e" d="M 253.5,243.5 C 258.833,243.5 264.167,243.5 269.5,243.5C 269.5,264.167 269.5,284.833 269.5,305.5C 264.167,305.5 258.833,305.5 253.5,305.5C 253.5,284.833 253.5,264.167 253.5,243.5 Z"/></g>
<g><path style="opacity:0.375" fill="#f3e5cb" d="M 281.5,243.5 C 280.167,243.5 278.833,243.5 277.5,243.5C 277.5,264.167 277.5,284.833 277.5,305.5C 276.503,284.673 276.169,263.673 276.5,242.5C 278.415,242.216 280.081,242.549 281.5,243.5 Z"/></g>
<g><path style="opacity:0.995" fill="#e2c07b" d="M 281.5,243.5 C 288.517,245.684 293.017,250.351 295,257.5C 295.667,273.5 295.667,289.5 295,305.5C 289.068,306.825 283.234,306.825 277.5,305.5C 277.5,284.833 277.5,264.167 277.5,243.5C 278.833,243.5 280.167,243.5 281.5,243.5 Z"/></g>
<g><path style="opacity:0.996" fill="#e2be79" d="M 314.5,243.5 C 316.167,243.5 317.833,243.5 319.5,243.5C 319.5,264.167 319.5,284.833 319.5,305.5C 316.236,305.969 313.236,304.969 310.5,302.5C 310.027,301.094 309.027,300.427 307.5,300.5C 305.14,298.287 303.306,295.621 302,292.5C 301.333,280.5 301.333,268.5 302,256.5C 303.685,249.65 307.852,245.317 314.5,243.5 Z"/></g>
<g><path style="opacity:0.3" fill="#f4e8d0" d="M 314.5,243.5 C 316.265,242.539 318.265,242.205 320.5,242.5C 320.831,263.673 320.497,284.673 319.5,305.5C 319.5,284.833 319.5,264.167 319.5,243.5C 317.833,243.5 316.167,243.5 314.5,243.5 Z"/></g>
<g><path style="opacity:0.996" fill="#e2bf79" d="M 365.5,243.5 C 367.5,243.5 369.5,243.5 371.5,243.5C 371.5,273.167 371.5,302.833 371.5,332.5C 365.766,333.825 359.932,333.825 354,332.5C 353.333,306.5 353.333,280.5 354,254.5C 356.406,249.259 360.239,245.592 365.5,243.5 Z"/></g>
<g><path style="opacity:0.608" fill="#f1dfbe" d="M 382.5,243.5 C 381.167,243.5 379.833,243.5 378.5,243.5C 378.5,263.833 378.5,284.167 378.5,304.5C 380.167,304.5 381.833,304.5 383.5,304.5C 381.786,305.738 379.786,306.405 377.5,306.5C 377.228,285.494 377.061,264.494 377,243.5C 378.943,242.193 380.777,242.193 382.5,243.5 Z"/></g>
<g><path style="opacity:0.999" fill="#e0bc73" d="M 382.5,243.5 C 385.614,243.555 387.948,244.888 389.5,247.5C 390.167,248.833 391.167,249.833 392.5,250.5C 393.338,250.842 393.672,251.508 393.5,252.5C 394.465,266.451 394.799,280.451 394.5,294.5C 392.725,299.943 389.058,303.276 383.5,304.5C 381.833,304.5 380.167,304.5 378.5,304.5C 378.5,284.167 378.5,263.833 378.5,243.5C 379.833,243.5 381.167,243.5 382.5,243.5 Z"/></g>
<g><path style="opacity:0.74" fill="#f5e7cf" d="M 421.5,305.5 C 415.69,306.49 409.69,306.823 403.5,306.5C 402.379,285.524 402.212,264.524 403,243.5C 409.41,242.522 415.91,242.189 422.5,242.5C 422.831,263.673 422.497,284.673 421.5,305.5 Z"/></g>
<g><path style="opacity:0.998" fill="#e0bb72" d="M 421.5,305.5 C 415.833,305.5 410.167,305.5 404.5,305.5C 404.5,284.833 404.5,264.167 404.5,243.5C 410.167,243.5 415.833,243.5 421.5,243.5C 421.5,264.167 421.5,284.833 421.5,305.5 Z"/></g>
<g><path style="opacity:0.247" fill="#f6eedd" d="M 432.5,243.5 C 431.167,243.5 429.833,243.5 428.5,243.5C 428.5,252.167 428.5,260.833 428.5,269.5C 427.507,260.682 427.173,251.682 427.5,242.5C 429.415,242.216 431.081,242.549 432.5,243.5 Z"/></g>
<g><path style="opacity:0.991" fill="#e3c07d" d="M 432.5,243.5 C 444.582,247.992 449.082,256.658 446,269.5C 440.068,270.825 434.234,270.825 428.5,269.5C 428.5,260.833 428.5,252.167 428.5,243.5C 429.833,243.5 431.167,243.5 432.5,243.5 Z"/></g>
<g><path style="opacity:0.999" fill="#e0bd74" d="M 464.5,243.5 C 466.167,243.5 467.833,243.5 469.5,243.5C 469.5,263.833 469.5,284.167 469.5,304.5C 467.833,304.5 466.167,304.5 464.5,304.5C 458.765,302.43 455.098,298.43 453.5,292.5C 453.5,280.167 453.5,267.833 453.5,255.5C 453.66,253.847 454.326,252.514 455.5,251.5C 457.833,249.833 459.833,247.833 461.5,245.5C 461.973,244.094 462.973,243.427 464.5,243.5 Z"/></g>
<g><path style="opacity:0.729" fill="#f2e1c2" d="M 464.5,243.5 C 466.56,242.189 468.726,242.189 471,243.5C 471.167,252.333 471.333,261.167 471.5,270C 471.218,281.914 471.052,293.747 471,305.5C 470.586,305.957 470.086,306.291 469.5,306.5C 467.664,305.972 465.997,305.306 464.5,304.5C 466.167,304.5 467.833,304.5 469.5,304.5C 469.5,284.167 469.5,263.833 469.5,243.5C 467.833,243.5 466.167,243.5 464.5,243.5 Z"/></g>
<g><path style="opacity:0.406" fill="#f2e3c7" d="M 484.5,244.5 C 482.139,244.326 479.806,243.993 477.5,243.5C 477.5,264.167 477.5,284.833 477.5,305.5C 476.503,284.673 476.169,263.673 476.5,242.5C 479.495,242.294 482.162,242.96 484.5,244.5 Z"/></g>
<g><path style="opacity:0.997" fill="#e1bc74" d="M 484.5,244.5 C 486.027,244.427 487.027,245.094 487.5,246.5C 487.973,247.906 488.973,248.573 490.5,248.5C 491.89,249.899 492.89,251.566 493.5,253.5C 494.327,266.482 494.661,279.482 494.5,292.5C 491.809,301.238 486.143,305.572 477.5,305.5C 477.5,284.833 477.5,264.167 477.5,243.5C 479.806,243.993 482.139,244.326 484.5,244.5 Z"/></g>
<g><path style="opacity:0.128" fill="#f8f4e6" d="M 105.5,232.5 C 106.485,236.634 106.818,240.968 106.5,245.5C 105.503,265.326 105.17,285.326 105.5,305.5C 105.5,305.833 105.5,306.167 105.5,306.5C 104.668,286.671 104.168,266.671 104,246.5C 103.329,247.252 102.496,247.586 101.5,247.5C 102.315,246.163 103.482,245.163 105,244.5C 105.499,240.514 105.666,236.514 105.5,232.5 Z"/></g>
<g><path style="opacity:0.993" fill="#ccac3a" d="M 106.5,245.5 C 106.738,247.404 107.738,248.738 109.5,249.5C 110.5,249.833 111.167,250.5 111.5,251.5C 111.427,253.027 112.094,254.027 113.5,254.5C 114.5,254.833 115.167,255.5 115.5,256.5C 116.08,258.749 117.413,260.415 119.5,261.5C 120.167,261.5 120.5,261.833 120.5,262.5C 120.5,276.833 120.5,291.167 120.5,305.5C 115.5,305.5 110.5,305.5 105.5,305.5C 105.17,285.326 105.503,265.326 106.5,245.5 Z"/></g>
<g><path style="opacity:0.698" fill="#ede0b7" d="M 106.5,245.5 C 108.262,246.262 109.262,247.596 109.5,249.5C 107.738,248.738 106.738,247.404 106.5,245.5 Z"/></g>
<g><path style="opacity:0.004" fill="#faf4e9" d="M 487.5,246.5 C 489.027,246.427 490.027,247.094 490.5,248.5C 488.973,248.573 487.973,247.906 487.5,246.5 Z"/></g>
<g><path style="opacity:0.836" fill="#f1ddba" d="M 176.5,235.5 C 176.5,244.833 176.5,254.167 176.5,263.5C 175.016,259.946 174.349,256.112 174.5,252C 174.633,246.291 175.299,240.791 176.5,235.5 Z"/></g>
<g><path style="opacity:0.004" fill="#fbf8f0" d="M 99.5,248.5 C 99.0269,249.906 98.0269,250.573 96.5,250.5C 96.9731,249.094 97.9731,248.427 99.5,248.5 Z"/></g>
<g><path style="opacity:0.247" fill="#f8f0e1" d="M 389.5,247.5 C 391.5,247.5 392.5,248.5 392.5,250.5C 391.167,249.833 390.167,248.833 389.5,247.5 Z"/></g>
<g><path style="opacity:0.549" fill="#f3e4c8" d="M 461.5,245.5 C 459.833,247.833 457.833,249.833 455.5,251.5C 456.5,248.5 458.5,246.5 461.5,245.5 Z"/></g>
<g><path style="opacity:0.967" fill="#d7bc64" d="M 35.5,253.5 C 34.5084,253.328 33.8417,253.662 33.5,254.5C 32.5084,254.328 31.8417,254.662 31.5,255.5C 30.5084,255.328 29.8417,255.662 29.5,256.5C 27.847,256.66 26.5137,257.326 25.5,258.5C 21.9912,260.074 20.9912,259.074 22.5,255.5C 26.7795,252.895 31.2795,250.562 36,248.5C 37.3141,250.147 37.1475,251.814 35.5,253.5 Z"/></g>
<g><path style="opacity:0.631" fill="#eee0b7" d="M 111.5,251.5 C 112.906,251.973 113.573,252.973 113.5,254.5C 112.094,254.027 111.427,253.027 111.5,251.5 Z"/></g>
<g><path style="opacity:0.838" fill="#f0dab3" d="M 326.5,216.5 C 326.833,216.5 327.167,216.5 327.5,216.5C 327.5,245.833 327.5,275.167 327.5,304.5C 329.167,304.5 330.833,304.5 332.5,304.5C 331.228,305.434 329.728,306.101 328,306.5C 327.055,306.095 326.388,305.428 326,304.5C 325.17,274.997 325.336,245.664 326.5,216.5 Z"/></g>
<g><path style="opacity:0.043" fill="#f4edd6" d="M 33.5,254.5 C 33.8417,253.662 34.5084,253.328 35.5,253.5C 35.8333,254.167 36.1667,254.833 36.5,255.5C 35.8333,255.5 35.1667,255.5 34.5,255.5C 34.5,254.833 34.1667,254.5 33.5,254.5 Z"/></g>
<g><path style="opacity:0.059" fill="#f3ebd2" d="M 31.5,255.5 C 31.8417,254.662 32.5084,254.328 33.5,254.5C 34.1667,254.5 34.5,254.833 34.5,255.5C 34.1583,256.338 33.4916,256.672 32.5,256.5C 32.5,255.833 32.1667,255.5 31.5,255.5 Z"/></g>
<g><path style="opacity:0.004" fill="#f5eed9" d="M 29.5,256.5 C 29.8417,255.662 30.5084,255.328 31.5,255.5C 32.1667,255.5 32.5,255.833 32.5,256.5C 32.1583,257.338 31.4916,257.672 30.5,257.5C 30.5,256.833 30.1667,256.5 29.5,256.5 Z"/></g>
<g><path style="opacity:0.96" fill="#d1b34e" d="M 34.5,255.5 C 35.1667,255.5 35.8333,255.5 36.5,255.5C 36.7678,257.099 36.4345,258.432 35.5,259.5C 34.5084,259.328 33.8417,259.662 33.5,260.5C 33.1667,260.5 32.8333,260.5 32.5,260.5C 31.8333,260.5 31.5,260.833 31.5,261.5C 31.1667,261.5 30.8333,261.5 30.5,261.5C 29.5084,261.328 28.8417,261.662 28.5,262.5C 26.847,262.66 25.5137,263.326 24.5,264.5C 23.5041,264.414 22.6708,264.748 22,265.5C 21.51,264.207 21.3433,262.873 21.5,261.5C 23.153,261.34 24.4863,260.674 25.5,259.5C 25.8333,259.5 26.1667,259.5 26.5,259.5C 27.7095,259.068 28.7095,258.401 29.5,257.5C 29.8333,257.5 30.1667,257.5 30.5,257.5C 31.4916,257.672 32.1583,257.338 32.5,256.5C 33.4916,256.672 34.1583,256.338 34.5,255.5 Z"/></g>
<g><path style="opacity:0.227" fill="#f7eedd" d="M 204.5,257.5 C 203.167,257.5 201.833,257.5 200.5,257.5C 199.504,273.325 199.17,289.325 199.5,305.5C 198.338,289.339 198.172,273.005 199,256.5C 201.118,255.261 202.951,255.595 204.5,257.5 Z"/></g>
<g><path style="opacity:0.004" fill="#faf7ef" d="M 29.5,256.5 C 29.5,256.833 29.5,257.167 29.5,257.5C 28.7095,258.401 27.7095,259.068 26.5,259.5C 26.5,258.833 26.1667,258.5 25.5,258.5C 26.5137,257.326 27.847,256.66 29.5,256.5 Z"/></g>
<g><path style="opacity:0.803" fill="#e3cf8e" d="M 79.5,215.5 C 77.6089,214.464 75.7755,214.464 74,215.5C 73.5,245.498 73.3334,275.498 73.5,305.5C 75.5,305.5 77.5,305.5 79.5,305.5C 79.1717,293.655 79.5051,281.988 80.5,270.5C 80.6665,282.505 80.4999,294.505 80,306.5C 77.2152,307.907 74.7152,307.574 72.5,305.5C 72.5,282.167 72.5,258.833 72.5,235.5C 72.3337,228.492 72.5004,221.492 73,214.5C 75.4686,212.079 77.6353,212.412 79.5,215.5 Z"/></g>
<g><path style="opacity:0.799" fill="#ead2a1" d="M 200.5,257.5 C 200.5,273.167 200.5,288.833 200.5,304.5C 201.833,304.5 203.167,304.5 204.5,304.5C 203.359,305.339 202.026,306.006 200.5,306.5C 199.893,306.376 199.56,306.043 199.5,305.5C 199.17,289.325 199.504,273.325 200.5,257.5 Z"/></g>
<g><path style="opacity:0.998" fill="#e2bf78" d="M 200.5,257.5 C 201.833,257.5 203.167,257.5 204.5,257.5C 211.349,259.161 215.516,263.495 217,270.5C 217.667,277.833 217.667,285.167 217,292.5C 214.912,298.757 210.745,302.757 204.5,304.5C 203.167,304.5 201.833,304.5 200.5,304.5C 200.5,288.833 200.5,273.167 200.5,257.5 Z"/></g>
<g><path style="opacity:0.125" fill="#f5efdb" d="M 22.5,255.5 C 20.9912,259.074 21.9912,260.074 25.5,258.5C 25.5,258.833 25.5,259.167 25.5,259.5C 24.4863,260.674 23.153,261.34 21.5,261.5C 20.8466,260.193 20.1799,258.86 19.5,257.5C 20.0047,256.081 21.0047,255.415 22.5,255.5 Z"/></g>
<g><path style="opacity:0.446" fill="#efe5c3" d="M 72.5,235.5 C 72.5,258.833 72.5,282.167 72.5,305.5C 70.6208,306.341 68.6208,306.675 66.5,306.5C 66.1686,276.662 66.5019,246.995 67.5,217.5C 68.287,215.896 69.6203,215.229 71.5,215.5C 71.176,222.354 71.5093,229.021 72.5,235.5 Z"/></g>
<g><path style="opacity:1" fill="#ccac3b" d="M 67.5,217.5 C 68.4959,217.586 69.3292,217.252 70,216.5C 70.5,246.165 70.6666,275.831 70.5,305.5C 69.5,305.5 68.5,305.5 67.5,305.5C 67.5,276.167 67.5,246.833 67.5,217.5 Z"/></g>
<g><path style="opacity:0.502" fill="#efe5c3" d="M 35.5,259.5 C 35.8333,260.167 36.1667,260.833 36.5,261.5C 35.5,261.5 34.5,261.5 33.5,261.5C 33.5,261.167 33.5,260.833 33.5,260.5C 33.8417,259.662 34.5084,259.328 35.5,259.5 Z"/></g>
<g><path style="opacity:0.278" fill="#f0e5c3" d="M 115.5,256.5 C 117.587,257.585 118.92,259.251 119.5,261.5C 117.413,260.415 116.08,258.749 115.5,256.5 Z"/></g>
<g><path style="opacity:0.007" fill="#fbf7f0" d="M 493.5,253.5 C 495.022,260.939 495.689,268.606 495.5,276.5C 495.499,282.011 495.166,287.344 494.5,292.5C 494.661,279.482 494.327,266.482 493.5,253.5 Z"/></g>
<g><path style="opacity:0.004" fill="#f6f0de" d="M 28.5,262.5 C 28.8417,261.662 29.5084,261.328 30.5,261.5C 30.5,262.167 30.8333,262.5 31.5,262.5C 31.1583,263.338 30.4916,263.672 29.5,263.5C 29.5,262.833 29.1667,262.5 28.5,262.5 Z"/></g>
<g><path style="opacity:0.004" fill="#f8f5e8" d="M 32.5,260.5 C 32.5,261.167 32.8333,261.5 33.5,261.5C 33.1583,262.338 32.4916,262.672 31.5,262.5C 31.5,262.167 31.5,261.833 31.5,261.5C 31.5,260.833 31.8333,260.5 32.5,260.5 Z"/></g>
<g><path style="opacity:0.959" fill="#cfb148" d="M 33.5,261.5 C 34.5,261.5 35.5,261.5 36.5,261.5C 36.5,262.5 36.5,263.5 36.5,264.5C 34.847,264.66 33.5137,265.326 32.5,266.5C 28.9627,267.267 25.6293,268.6 22.5,270.5C 21.6143,269.675 21.281,268.675 21.5,267.5C 22.7095,267.068 23.7095,266.401 24.5,265.5C 24.8333,265.5 25.1667,265.5 25.5,265.5C 26.9952,265.011 28.3285,264.345 29.5,263.5C 30.4916,263.672 31.1583,263.338 31.5,262.5C 32.4916,262.672 33.1583,262.338 33.5,261.5 Z"/></g>
<g><path style="opacity:0.318" fill="#f2eacd" d="M 44.5,229.5 C 44.5,254.833 44.5,280.167 44.5,305.5C 42.6208,306.341 40.6208,306.675 38.5,306.5C 38.3334,281.164 38.5,255.831 39,230.5C 40.6995,229.594 42.5328,229.261 44.5,229.5 Z"/></g>
<g><path style="opacity:1" fill="#ccac39" d="M 40.5,230.5 C 42.4906,255.144 43.1572,280.144 42.5,305.5C 41.5,305.5 40.5,305.5 39.5,305.5C 39.1767,280.425 39.51,255.425 40.5,230.5 Z"/></g>
<g><path style="opacity:0.345" fill="#f1e5ca" d="M 149.5,213.5 C 149.167,213.5 148.833,213.5 148.5,213.5C 147.5,213.5 146.5,213.5 145.5,213.5C 145.5,244.5 145.5,275.5 145.5,306.5C 145.5,306.833 145.5,307.167 145.5,307.5C 144.502,276.004 144.168,244.338 144.5,212.5C 146.415,212.216 148.081,212.549 149.5,213.5 Z"/></g>
<g><path style="opacity:0.569" fill="#e7d0a1" d="M 148.5,213.5 C 148.833,213.5 149.167,213.5 149.5,213.5C 149.5,244.833 149.5,276.167 149.5,307.5C 148.167,307.5 146.833,307.5 145.5,307.5C 145.5,307.167 145.5,306.833 145.5,306.5C 146.5,306.5 147.5,306.5 148.5,306.5C 148.5,275.5 148.5,244.5 148.5,213.5 Z"/></g>
<g><path style="opacity:0.004" fill="#f7f2e2" d="M 28.5,262.5 C 29.1667,262.5 29.5,262.833 29.5,263.5C 28.3285,264.345 26.9952,265.011 25.5,265.5C 25.5,264.833 25.1667,264.5 24.5,264.5C 25.5137,263.326 26.847,262.66 28.5,262.5 Z"/></g>
<g><path style="opacity:0.786" fill="#dac473" d="M 63.5,219.5 C 63.56,218.957 63.8933,218.624 64.5,218.5C 65.4998,247.826 65.8332,277.159 65.5,306.5C 64.1667,306.5 62.8333,306.5 61.5,306.5C 61.5,306.167 61.5,305.833 61.5,305.5C 62.5,305.5 63.5,305.5 64.5,305.5C 64.8313,276.662 64.498,247.995 63.5,219.5 Z"/></g>
<g><path style="opacity:0.643" fill="#ede0b7" d="M 52.5,224.5 C 52.56,223.957 52.8933,223.624 53.5,223.5C 54.1667,236.327 54.8333,248.994 55.5,261.5C 55.5,276.5 55.5,291.5 55.5,306.5C 53.5,306.5 51.5,306.5 49.5,306.5C 49.1688,279.328 49.5021,252.328 50.5,225.5C 50.5,252.167 50.5,278.833 50.5,305.5C 51.5,305.5 52.5,305.5 53.5,305.5C 53.8312,278.328 53.4979,251.328 52.5,224.5 Z"/></g>
<g><path style="opacity:0.006" fill="#f7f1df" d="M 21.5,261.5 C 21.3433,262.873 21.51,264.207 22,265.5C 22.6708,264.748 23.5041,264.414 24.5,264.5C 24.5,264.833 24.5,265.167 24.5,265.5C 23.7095,266.401 22.7095,267.068 21.5,267.5C 18.9814,265.359 18.9814,263.359 21.5,261.5 Z"/></g>
<g><path style="opacity:0.006" fill="#f9f5e9" d="M 36.5,264.5 C 36.5,265.167 36.5,265.833 36.5,266.5C 35.391,266.557 34.391,266.89 33.5,267.5C 33.5,266.833 33.1667,266.5 32.5,266.5C 33.5137,265.326 34.847,264.66 36.5,264.5 Z"/></g>
<g><path style="opacity:0.59" fill="#e4d398" d="M 57.5,222.5 C 56.509,250.093 56.1757,277.759 56.5,305.5C 57.5,305.5 58.5,305.5 59.5,305.5C 59.5,305.833 59.5,306.167 59.5,306.5C 58.1667,306.5 56.8333,306.5 55.5,306.5C 55.5,291.5 55.5,276.5 55.5,261.5C 54.8524,248.124 55.5191,235.124 57.5,222.5 Z"/></g>
<g><path style="opacity:0.967" fill="#d6bb60" d="M 36.5,266.5 C 36.7678,268.099 36.4345,269.432 35.5,270.5C 33.847,270.66 32.5137,271.326 31.5,272.5C 31.1667,272.5 30.8333,272.5 30.5,272.5C 29.0048,272.989 27.6715,273.655 26.5,274.5C 24.847,274.66 23.5137,275.326 22.5,276.5C 21.4427,277.206 21.7761,277.539 23.5,277.5C 24.9952,277.011 26.3285,276.345 27.5,275.5C 29.153,275.34 30.4863,274.674 31.5,273.5C 31.8333,273.5 32.1667,273.5 32.5,273.5C 33.7079,272.766 35.0413,272.433 36.5,272.5C 36.8432,274.483 36.1765,275.817 34.5,276.5C 32.847,276.66 31.5137,277.326 30.5,278.5C 29.5084,278.328 28.8417,278.662 28.5,279.5C 27.8333,279.5 27.5,279.833 27.5,280.5C 26.8333,280.5 26.1667,280.5 25.5,280.5C 24.8333,280.5 24.5,280.833 24.5,281.5C 23.8333,281.5 23.5,281.833 23.5,282.5C 22.8333,282.5 22.1667,282.5 21.5,282.5C 19.847,282.66 18.5137,283.326 17.5,284.5C 16.5084,284.328 15.8417,284.662 15.5,285.5C 14.8333,285.5 14.5,285.833 14.5,286.5C 13.8333,286.5 13.1667,286.5 12.5,286.5C 11.2921,287.234 9.95875,287.567 8.5,287.5C 7.16667,286.5 7.16667,285.5 8.5,284.5C 10.7496,283.87 12.7496,282.87 14.5,281.5C 15.5573,280.794 15.2239,280.461 13.5,280.5C 11.7162,280.893 10.0495,281.559 8.5,282.5C 7.29473,281.328 7.29473,279.995 8.5,278.5C 12.7265,276.219 17.0598,274.219 21.5,272.5C 25.3544,271.07 29.0211,269.403 32.5,267.5C 32.8333,267.5 33.1667,267.5 33.5,267.5C 34.391,266.89 35.391,266.557 36.5,266.5 Z"/></g>
<g><path style="opacity:0.047" fill="#f6f0dd" d="M 32.5,266.5 C 32.5,266.833 32.5,267.167 32.5,267.5C 29.0211,269.403 25.3544,271.07 21.5,272.5C 20.2801,270.716 20.2801,269.05 21.5,267.5C 21.281,268.675 21.6143,269.675 22.5,270.5C 25.6293,268.6 28.9627,267.267 32.5,266.5 Z"/></g>
<g><path style="opacity:0.972" fill="#d0b44c" d="M 44.5,305.5 C 44.5,280.167 44.5,254.833 44.5,229.5C 44.5,228.167 45.1667,227.5 46.5,227.5C 46.56,226.957 46.8933,226.624 47.5,226.5C 48.4998,253.158 48.8331,279.825 48.5,306.5C 46.901,306.768 45.5676,306.434 44.5,305.5 Z"/></g>
<g><path style="opacity:1" fill="#ccac39" d="M 46.5,227.5 C 47.8292,253.336 47.8292,279.336 46.5,305.5C 45.177,279.434 45.177,253.434 46.5,227.5 Z"/></g>
<g><path style="opacity:0.778" fill="#f0debb" d="M 453.5,255.5 C 453.5,267.833 453.5,280.167 453.5,292.5C 450.944,280.159 450.944,267.826 453.5,255.5 Z"/></g>
<g><path style="opacity:0.004" fill="#f9f6eb" d="M 35.5,270.5 C 35.8333,271.167 36.1667,271.833 36.5,272.5C 35.0413,272.433 33.7079,272.766 32.5,273.5C 32.5,272.833 32.1667,272.5 31.5,272.5C 32.5137,271.326 33.847,270.66 35.5,270.5 Z"/></g>
<g><path style="opacity:0.864" fill="#efd9b1" d="M 393.5,252.5 C 394.117,252.611 394.617,252.944 395,253.5C 397.116,267.352 396.95,281.018 394.5,294.5C 394.799,280.451 394.465,266.451 393.5,252.5 Z"/></g>
<g><path style="opacity:0.227" fill="#f5e9d2" d="M 183.5,271.5 C 185.027,271.427 186.027,272.094 186.5,273.5C 184.973,273.573 183.973,272.906 183.5,271.5 Z"/></g>
<g><path style="opacity:0.004" fill="#f8f5e8" d="M 30.5,272.5 C 30.5,273.167 30.8333,273.5 31.5,273.5C 30.4863,274.674 29.153,275.34 27.5,275.5C 27.5,274.833 27.1667,274.5 26.5,274.5C 27.6715,273.655 29.0048,272.989 30.5,272.5 Z"/></g>
<g><path style="opacity:0.005" fill="#f8f4e7" d="M 26.5,274.5 C 27.1667,274.5 27.5,274.833 27.5,275.5C 26.3285,276.345 24.9952,277.011 23.5,277.5C 23.5,276.833 23.1667,276.5 22.5,276.5C 23.5137,275.326 24.847,274.66 26.5,274.5 Z"/></g>
<g><path style="opacity:0.513" fill="#f5e8d0" d="M 344.5,216.5 C 345.166,225.994 345.5,235.661 345.5,245.5C 345.639,261.027 344.972,276.36 343.5,291.5C 343.5,279.833 343.5,268.167 343.5,256.5C 344.496,243.344 344.829,230.01 344.5,216.5 Z"/></g>
<g><path style="opacity:0.047" fill="#f4ecd4" d="M 34.5,276.5 C 35.2625,277.268 36.2625,277.768 37.5,278C 37.2716,278.399 36.9382,278.565 36.5,278.5C 34.7839,278.629 33.1172,278.962 31.5,279.5C 31.5,278.833 31.1667,278.5 30.5,278.5C 31.5137,277.326 32.847,276.66 34.5,276.5 Z"/></g>
<g><path style="opacity:0.004" fill="#f9f5e9" d="M 28.5,279.5 C 28.8417,278.662 29.5084,278.328 30.5,278.5C 30.5,278.833 30.5,279.167 30.5,279.5C 30.5,280.167 30.1667,280.5 29.5,280.5C 29.5,279.833 29.1667,279.5 28.5,279.5 Z"/></g>
<g><path style="opacity:0.981" fill="#d2b653" d="M 36.5,278.5 C 36.5,279.5 36.5,280.5 36.5,281.5C 35.5084,281.328 34.8417,281.662 34.5,282.5C 34.1667,282.5 33.8333,282.5 33.5,282.5C 32.8333,282.5 32.5,282.833 32.5,283.5C 32.1667,283.5 31.8333,283.5 31.5,283.5C 30.5084,283.328 29.8417,283.662 29.5,284.5C 27.847,284.66 26.5137,285.326 25.5,286.5C 22.5152,287.326 19.8485,288.659 17.5,290.5C 17.1667,290.5 16.8333,290.5 16.5,290.5C 14.847,290.66 13.5137,291.326 12.5,292.5C 11.1667,292.833 9.83333,293.167 8.5,293.5C 7.14719,291.872 7.48052,290.538 9.5,289.5C 11.153,289.34 12.4863,288.674 13.5,287.5C 14.1667,287.5 14.5,287.167 14.5,286.5C 15.1667,286.5 15.8333,286.5 16.5,286.5C 17.4916,286.672 18.1583,286.338 18.5,285.5C 18.8333,285.5 19.1667,285.5 19.5,285.5C 20.7095,285.068 21.7095,284.401 22.5,283.5C 22.8333,283.5 23.1667,283.5 23.5,283.5C 25.0269,283.573 26.0269,282.906 26.5,281.5C 27.1667,281.5 27.5,281.167 27.5,280.5C 28.1667,280.5 28.8333,280.5 29.5,280.5C 30.1667,280.5 30.5,280.167 30.5,279.5C 30.8333,279.5 31.1667,279.5 31.5,279.5C 33.1172,278.962 34.7839,278.629 36.5,278.5 Z"/></g>
<g><path style="opacity:0.996" fill="#e2bf7a" d="M 175.5,279.5 C 180.833,279.5 186.167,279.5 191.5,279.5C 191.5,287.833 191.5,296.167 191.5,304.5C 189.833,304.5 188.167,304.5 186.5,304.5C 178.093,300.876 174.093,294.376 174.5,285C 174.506,282.967 174.839,281.134 175.5,279.5 Z"/></g>
<g><path style="opacity:0.916" fill="#ead09f" d="M 191.5,279.5 C 192.492,286.982 192.825,294.648 192.5,302.5C 192.5,303.833 192.5,305.167 192.5,306.5C 190.214,306.405 188.214,305.738 186.5,304.5C 188.167,304.5 189.833,304.5 191.5,304.5C 191.5,296.167 191.5,287.833 191.5,279.5 Z"/></g>
<g><path style="opacity:0.673" fill="#f4e5ca" d="M 192.5,302.5 C 192.825,294.648 192.492,286.982 191.5,279.5C 186.167,279.5 180.833,279.5 175.5,279.5C 181.178,277.618 187.011,277.285 193,278.5C 194.006,280.534 194.506,282.7 194.5,285C 194.056,291.008 193.39,296.842 192.5,302.5 Z"/></g>
<g><path style="opacity:0.007" fill="#f7f3e4" d="M 13.5,280.5 C 13.5,281.167 13.8333,281.5 14.5,281.5C 12.7496,282.87 10.7496,283.87 8.5,284.5C 8.5,283.833 8.5,283.167 8.5,282.5C 10.0495,281.559 11.7162,280.893 13.5,280.5 Z"/></g>
<g><path style="opacity:0.004" fill="#faf7ee" d="M 36.5,281.5 C 36.5,282.167 36.5,282.833 36.5,283.5C 35.8333,283.5 35.1667,283.5 34.5,283.5C 34.5,283.167 34.5,282.833 34.5,282.5C 34.8417,281.662 35.5084,281.328 36.5,281.5 Z"/></g>
<g><path style="opacity:0.006" fill="#f6f1de" d="M 21.5,282.5 C 21.5,283.167 21.8333,283.5 22.5,283.5C 21.7095,284.401 20.7095,285.068 19.5,285.5C 19.1583,284.662 18.4916,284.328 17.5,284.5C 18.5137,283.326 19.847,282.66 21.5,282.5 Z"/></g>
<g><path style="opacity:0.682" fill="#eddfb5" d="M 25.5,280.5 C 25.5,281.167 25.8333,281.5 26.5,281.5C 26.0269,282.906 25.0269,283.573 23.5,283.5C 23.5,283.167 23.5,282.833 23.5,282.5C 24.1667,282.5 24.5,282.167 24.5,281.5C 24.5,280.833 24.8333,280.5 25.5,280.5 Z"/></g>
<g><path style="opacity:0.047" fill="#f3ebd2" d="M 29.5,284.5 C 29.8417,283.662 30.5084,283.328 31.5,283.5C 31.5,284.167 31.8333,284.5 32.5,284.5C 32.1583,285.338 31.4916,285.672 30.5,285.5C 30.5,284.833 30.1667,284.5 29.5,284.5 Z"/></g>
<g><path style="opacity:0.008" fill="#f8f3e5" d="M 33.5,282.5 C 33.5,283.167 33.8333,283.5 34.5,283.5C 34.1583,284.338 33.4916,284.672 32.5,284.5C 32.5,284.167 32.5,283.833 32.5,283.5C 32.5,282.833 32.8333,282.5 33.5,282.5 Z"/></g>
<g><path style="opacity:0.004" fill="#f6f1df" d="M 15.5,285.5 C 15.8417,284.662 16.5084,284.328 17.5,284.5C 17.5,285.167 17.8333,285.5 18.5,285.5C 18.1583,286.338 17.4916,286.672 16.5,286.5C 16.5,285.833 16.1667,285.5 15.5,285.5 Z"/></g>
<g><path style="opacity:0.975" fill="#d3b655" d="M 34.5,283.5 C 35.1667,283.5 35.8333,283.5 36.5,283.5C 36.6347,285.554 35.968,287.221 34.5,288.5C 33.8333,288.5 33.1667,288.5 32.5,288.5C 29.5152,289.326 26.8485,290.659 24.5,292.5C 22.847,292.66 21.5137,293.326 20.5,294.5C 18.847,294.66 17.5137,295.326 16.5,296.5C 16.1667,296.5 15.8333,296.5 15.5,296.5C 13.0462,297.227 10.7128,298.227 8.5,299.5C 7.16667,298.167 7.16667,296.833 8.5,295.5C 10.153,295.34 11.4863,294.674 12.5,293.5C 12.8333,293.5 13.1667,293.5 13.5,293.5C 14.9952,293.011 16.3285,292.345 17.5,291.5C 20.4848,290.674 23.1515,289.341 25.5,287.5C 25.8333,287.5 26.1667,287.5 26.5,287.5C 27.7095,287.068 28.7095,286.401 29.5,285.5C 29.8333,285.5 30.1667,285.5 30.5,285.5C 31.4916,285.672 32.1583,285.338 32.5,284.5C 33.4916,284.672 34.1583,284.338 34.5,283.5 Z"/></g>
<g><path style="opacity:0.37" fill="#f0e6c6" d="M 96.5,250.5 C 96.8329,269.179 96.4996,287.845 95.5,306.5C 93.2984,307.78 91.1317,307.78 89,306.5C 88.831,292.994 88.331,279.66 87.5,266.5C 87.56,265.957 87.8933,265.624 88.5,265.5C 89.4992,278.817 89.8325,292.15 89.5,305.5C 91.5,305.5 93.5,305.5 95.5,305.5C 95.1698,286.992 95.5032,268.659 96.5,250.5 Z"/></g>
<g><path style="opacity:0.004" fill="#f9f5e9" d="M 29.5,284.5 C 29.5,284.833 29.5,285.167 29.5,285.5C 28.7095,286.401 27.7095,287.068 26.5,287.5C 26.5,286.833 26.1667,286.5 25.5,286.5C 26.5137,285.326 27.847,284.66 29.5,284.5 Z"/></g>
<g><path style="opacity:0.004" fill="#f9f6eb" d="M 12.5,286.5 C 12.5,287.167 12.8333,287.5 13.5,287.5C 12.4863,288.674 11.153,289.34 9.5,289.5C 9.16667,288.833 8.83333,288.167 8.5,287.5C 9.95875,287.567 11.2921,287.234 12.5,286.5 Z"/></g>
<g><path style="opacity:0.004" fill="#f9f6ec" d="M 25.5,286.5 C 25.5,286.833 25.5,287.167 25.5,287.5C 23.1515,289.341 20.4848,290.674 17.5,291.5C 17.5,291.167 17.5,290.833 17.5,290.5C 19.8485,288.659 22.5152,287.326 25.5,286.5 Z"/></g>
<g><path style="opacity:0.996" fill="#ccad3c" d="M 34.5,288.5 C 36.256,289.552 36.9227,291.219 36.5,293.5C 36.5,297.5 36.5,301.5 36.5,305.5C 27.1667,305.5 17.8333,305.5 8.5,305.5C 8.5,304.167 8.5,302.833 8.5,301.5C 11.4337,300.533 14.1004,299.2 16.5,297.5C 16.8333,297.5 17.1667,297.5 17.5,297.5C 18.7095,297.068 19.7095,296.401 20.5,295.5C 20.8333,295.5 21.1667,295.5 21.5,295.5C 22.7095,295.068 23.7095,294.401 24.5,293.5C 24.8333,293.5 25.1667,293.5 25.5,293.5C 28.2982,292.35 30.9648,291.017 33.5,289.5C 34.1667,289.5 34.5,289.167 34.5,288.5 Z"/></g>
<g><path style="opacity:0.004" fill="#f7f1e1" d="M 16.5,290.5 C 16.5,291.167 16.8333,291.5 17.5,291.5C 16.3285,292.345 14.9952,293.011 13.5,293.5C 13.5,292.833 13.1667,292.5 12.5,292.5C 13.5137,291.326 14.847,290.66 16.5,290.5 Z"/></g>
<g><path style="opacity:0.004" fill="#f7f2e3" d="M 32.5,288.5 C 32.5,289.167 32.8333,289.5 33.5,289.5C 30.9648,291.017 28.2982,292.35 25.5,293.5C 25.5,292.833 25.1667,292.5 24.5,292.5C 26.8485,290.659 29.5152,289.326 32.5,288.5 Z"/></g>
<g><path style="opacity:0.004" fill="#faf7ee" d="M 12.5,292.5 C 12.5,292.833 12.5,293.167 12.5,293.5C 11.4863,294.674 10.153,295.34 8.5,295.5C 8.5,294.833 8.5,294.167 8.5,293.5C 9.83333,293.167 11.1667,292.833 12.5,292.5 Z"/></g>
<g><path style="opacity:0.004" fill="#faf8f0" d="M 24.5,292.5 C 24.5,292.833 24.5,293.167 24.5,293.5C 23.7095,294.401 22.7095,295.068 21.5,295.5C 21.5,294.833 21.1667,294.5 20.5,294.5C 21.5137,293.326 22.847,292.66 24.5,292.5 Z"/></g>
<g><path style="opacity:0.231" fill="#f6edda" d="M 365.5,243.5 C 367.607,242.532 369.941,242.198 372.5,242.5C 372.831,272.671 372.498,302.671 371.5,332.5C 371.5,302.833 371.5,273.167 371.5,243.5C 369.5,243.5 367.5,243.5 365.5,243.5 Z"/></g>
<g><path style="opacity:0.004" fill="#faf7ed" d="M 20.5,294.5 C 20.5,294.833 20.5,295.167 20.5,295.5C 19.7095,296.401 18.7095,297.068 17.5,297.5C 17.5,296.833 17.1667,296.5 16.5,296.5C 17.5137,295.326 18.847,294.66 20.5,294.5 Z"/></g>
<g><path style="opacity:0.006" fill="#f8f3e5" d="M 15.5,296.5 C 15.5,297.167 15.8333,297.5 16.5,297.5C 14.1004,299.2 11.4337,300.533 8.5,301.5C 8.5,300.833 8.5,300.167 8.5,299.5C 10.7128,298.227 13.0462,297.227 15.5,296.5 Z"/></g>
<g><path style="opacity:0.302" fill="#f5ead5" d="M 307.5,300.5 C 309.027,300.427 310.027,301.094 310.5,302.5C 308.973,302.573 307.973,301.906 307.5,300.5 Z"/></g>
<g><path style="opacity:0.449" fill="#f1e7c7" d="M 36.5,293.5 C 37.4849,297.634 37.8182,301.968 37.5,306.5C 28.969,306.241 20.469,306.574 12,307.5C 10.7741,307.355 9.60738,307.022 8.5,306.5C 7.21214,304.701 7.21214,303.035 8.5,301.5C 8.5,302.833 8.5,304.167 8.5,305.5C 17.8333,305.5 27.1667,305.5 36.5,305.5C 36.5,301.5 36.5,297.5 36.5,293.5 Z"/></g>
<g><path style="opacity:0.511" fill="#f0e5c3" d="M 120.5,262.5 C 121.496,276.99 121.829,291.657 121.5,306.5C 115.957,306.757 110.624,306.757 105.5,306.5C 105.5,306.167 105.5,305.833 105.5,305.5C 110.5,305.5 115.5,305.5 120.5,305.5C 120.5,291.167 120.5,276.833 120.5,262.5 Z"/></g>
</svg>
