<?xml version="1.0" encoding="UTF-8"?>
<!DOCTYPE svg PUBLIC "-//W3C//DTD SVG 1.1//EN" "http://www.w3.org/Graphics/SVG/1.1/DTD/svg11.dtd">
<svg xmlns="http://www.w3.org/2000/svg" version="1.1" width="500px" height="500px" style="shape-rendering:geometricPrecision; text-rendering:geometricPrecision; image-rendering:optimizeQuality; fill-rule:evenodd; clip-rule:evenodd" xmlns:xlink="http://www.w3.org/1999/xlink">
<g><path style="opacity:1" fill="#fefefe" d="M -0.5,-0.5 C 166.167,-0.5 332.833,-0.5 499.5,-0.5C 499.5,166.167 499.5,332.833 499.5,499.5C 332.833,499.5 166.167,499.5 -0.5,499.5C -0.5,332.833 -0.5,166.167 -0.5,-0.5 Z"/></g>
<g><path style="opacity:1" fill="#ccac3a" d="M 105.5,244.5 C 104.833,244.5 104.5,244.833 104.5,245.5C 101.475,246.765 98.6418,248.432 96,250.5C 95.5001,269.164 95.3334,287.83 95.5,306.5C 93.5,306.5 91.5,306.5 89.5,306.5C 89.8325,292.817 89.4992,279.15 88.5,265.5C 85.4198,266.789 82.5864,268.455 80,270.5C 79.5001,282.162 79.3335,293.829 79.5,305.5C 77.5,305.5 75.5,305.5 73.5,305.5C 73.5,275.5 73.5,245.5 73.5,215.5C 74.172,214.733 75.0053,214.066 76,213.5C 85.586,219.709 95.086,226.043 104.5,232.5C 105.491,236.445 105.824,240.445 105.5,244.5 Z"/></g>
<g><path style="opacity:1" fill="#e0bd75" d="M 230.5,216.5 C 242.033,215.559 245.866,220.559 242,231.5C 235.884,237.138 230.551,236.471 226,229.5C 224.379,223.923 225.879,219.589 230.5,216.5 Z"/></g>
<g><path style="opacity:1" fill="#e0bc73" d="M 327.5,216.5 C 333.167,216.5 338.833,216.5 344.5,216.5C 344.667,240.836 344.5,265.169 344,289.5C 342.971,298.361 338.137,303.361 329.5,304.5C 327.508,275.519 326.841,246.186 327.5,216.5 Z"/></g>
<g><path style="opacity:1" fill="#ccac3b" d="M 70.5,216.5 C 70.5,246.167 70.5,275.833 70.5,305.5C 69.5,305.5 68.5,305.5 67.5,305.5C 67.5,276.167 67.5,246.833 67.5,217.5C 68.391,216.89 69.391,216.557 70.5,216.5 Z"/></g>
<g><path style="opacity:1" fill="#cfb045" d="M 65.5,305.5 C 64.1667,305.5 62.8333,305.5 61.5,305.5C 61.5,277.167 61.5,248.833 61.5,220.5C 62.7079,219.766 64.0413,219.433 65.5,219.5C 65.5,248.167 65.5,276.833 65.5,305.5 Z"/></g>
<g><path style="opacity:1" fill="#ccac3a" d="M 59.5,221.5 C 59.5,249.5 59.5,277.5 59.5,305.5C 58.5,305.5 57.5,305.5 56.5,305.5C 56.5,278.167 56.5,250.833 56.5,223.5C 57.2905,222.599 58.2905,221.932 59.5,221.5 Z"/></g>
<g><path style="opacity:1" fill="#cdad3d" d="M 53.5,224.5 C 53.5,251.5 53.5,278.5 53.5,305.5C 52.5,305.5 51.5,305.5 50.5,305.5C 50.1669,278.825 50.5002,252.158 51.5,225.5C 52.1835,225.137 52.8501,224.804 53.5,224.5 Z"/></g>
<g><path style="opacity:1" fill="#ead09e" d="M 203.5,226.5 C 202.5,226.5 201.5,226.5 200.5,226.5C 200.5,234.5 200.5,242.5 200.5,250.5C 205.833,250.5 211.167,250.5 216.5,250.5C 211.084,252.117 205.417,252.784 199.5,252.5C 199.5,243.5 199.5,234.5 199.5,225.5C 201.099,225.232 202.432,225.566 203.5,226.5 Z"/></g>
<g><path style="opacity:1" fill="#e0bc73" d="M 187.5,226.5 C 189.167,226.5 190.833,226.5 192.5,226.5C 192.5,238.167 192.5,249.833 192.5,261.5C 192.5,265.833 192.5,270.167 192.5,274.5C 184.216,273.717 178.716,269.384 176,261.5C 175.161,252.78 175.495,244.113 177,235.5C 179.459,231.202 182.959,228.202 187.5,226.5 Z"/></g>
<g><path style="opacity:1" fill="#e0bb71" d="M 203.5,226.5 C 208.438,227.554 212.271,230.221 215,234.5C 216.339,239.736 216.839,245.07 216.5,250.5C 211.167,250.5 205.833,250.5 200.5,250.5C 200.5,242.5 200.5,234.5 200.5,226.5C 201.5,226.5 202.5,226.5 203.5,226.5 Z"/></g>
<g><path style="opacity:1" fill="#ccac39" d="M 41.5,230.5 C 42.4977,255.328 42.831,280.328 42.5,305.5C 41.5,305.5 40.5,305.5 39.5,305.5C 39.5,280.833 39.5,256.167 39.5,231.5C 39.8417,230.662 40.5084,230.328 41.5,230.5 Z"/></g>
<g><path style="opacity:1" fill="#efdeba" d="M 187.5,226.5 C 189.265,225.539 191.265,225.205 193.5,225.5C 193.828,237.678 193.495,249.678 192.5,261.5C 192.5,249.833 192.5,238.167 192.5,226.5C 190.833,226.5 189.167,226.5 187.5,226.5 Z"/></g>
<g><path style="opacity:1" fill="#f8f5e9" d="M 61.5,220.5 C 61.5,248.833 61.5,277.167 61.5,305.5C 62.8333,305.5 64.1667,305.5 65.5,305.5C 63.6112,306.742 61.6112,306.742 59.5,305.5C 59.5,277.5 59.5,249.5 59.5,221.5C 60.1667,221.167 60.8333,220.833 61.5,220.5 Z"/></g>
<g><path style="opacity:1" fill="#eedab2" d="M 243.5,243.5 C 237.833,243.5 232.167,243.5 226.5,243.5C 226.5,264.167 226.5,284.833 226.5,305.5C 225.503,284.673 225.169,263.673 225.5,242.5C 231.69,242.177 237.69,242.51 243.5,243.5 Z"/></g>
<g><path style="opacity:1" fill="#dfbc71" d="M 243.5,243.5 C 243.5,264.167 243.5,284.833 243.5,305.5C 237.833,305.5 232.167,305.5 226.5,305.5C 226.5,284.833 226.5,264.167 226.5,243.5C 232.167,243.5 237.833,243.5 243.5,243.5 Z"/></g>
<g><path style="opacity:1" fill="#e7cd96" d="M 269.5,305.5 C 269.5,284.833 269.5,264.167 269.5,243.5C 264.167,243.5 258.833,243.5 253.5,243.5C 253.5,264.167 253.5,284.833 253.5,305.5C 252.503,284.673 252.169,263.673 252.5,242.5C 258.5,242.5 264.5,242.5 270.5,242.5C 270.831,263.673 270.497,284.673 269.5,305.5 Z"/></g>
<g><path style="opacity:1" fill="#debb6e" d="M 269.5,305.5 C 264.167,305.5 258.833,305.5 253.5,305.5C 253.5,284.833 253.5,264.167 253.5,243.5C 258.833,243.5 264.167,243.5 269.5,243.5C 269.5,264.167 269.5,284.833 269.5,305.5 Z"/></g>
<g><path style="opacity:1" fill="#e0bc72" d="M 277.5,243.5 C 285.747,244.237 291.247,248.571 294,256.5C 294.5,272.83 294.667,289.163 294.5,305.5C 288.833,305.5 283.167,305.5 277.5,305.5C 277.5,284.833 277.5,264.167 277.5,243.5 Z"/></g>
<g><path style="opacity:1" fill="#e0bb71" d="M 313.5,243.5 C 315.5,243.5 317.5,243.5 319.5,243.5C 319.5,264.167 319.5,284.833 319.5,305.5C 311.457,304.395 305.957,300.062 303,292.5C 302.333,280.167 302.333,267.833 303,255.5C 304.963,250.044 308.463,246.044 313.5,243.5 Z"/></g>
<g><path style="opacity:1" fill="#e0bc72" d="M 366.5,243.5 C 368.167,243.5 369.833,243.5 371.5,243.5C 371.5,273.167 371.5,302.833 371.5,332.5C 365.833,332.5 360.167,332.5 354.5,332.5C 354.333,306.498 354.5,280.498 355,254.5C 357.385,249.281 361.218,245.614 366.5,243.5 Z"/></g>
<g><path style="opacity:1" fill="#ead3a4" d="M 378.5,243.5 C 378.5,263.833 378.5,284.167 378.5,304.5C 379.5,304.5 380.5,304.5 381.5,304.5C 380.432,305.434 379.099,305.768 377.5,305.5C 377.169,284.66 377.503,263.993 378.5,243.5 Z"/></g>
<g><path style="opacity:1" fill="#e0bb72" d="M 378.5,243.5 C 386.364,244.191 391.864,248.191 395,255.5C 395.667,267.833 395.667,280.167 395,292.5C 392.809,299.195 388.309,303.195 381.5,304.5C 380.5,304.5 379.5,304.5 378.5,304.5C 378.5,284.167 378.5,263.833 378.5,243.5 Z"/></g>
<g><path style="opacity:1" fill="#ead1a1" d="M 421.5,243.5 C 415.833,243.5 410.167,243.5 404.5,243.5C 404.5,264.167 404.5,284.833 404.5,305.5C 403.503,284.673 403.169,263.673 403.5,242.5C 409.69,242.177 415.69,242.51 421.5,243.5 Z"/></g>
<g><path style="opacity:1" fill="#e0bb72" d="M 421.5,243.5 C 421.5,264.167 421.5,284.833 421.5,305.5C 415.833,305.5 410.167,305.5 404.5,305.5C 404.5,284.833 404.5,264.167 404.5,243.5C 410.167,243.5 415.833,243.5 421.5,243.5 Z"/></g>
<g><path style="opacity:1" fill="#e0bb71" d="M 428.5,243.5 C 442.622,246.371 448.289,255.038 445.5,269.5C 439.833,269.5 434.167,269.5 428.5,269.5C 428.5,260.833 428.5,252.167 428.5,243.5 Z"/></g>
<g><path style="opacity:1" fill="#e0bd74" d="M 465.5,243.5 C 466.833,243.5 468.167,243.5 469.5,243.5C 469.5,263.833 469.5,284.167 469.5,304.5C 468.5,304.5 467.5,304.5 466.5,304.5C 459.085,302.247 454.585,297.247 453,289.5C 452.333,278.5 452.333,267.5 453,256.5C 455.347,250.322 459.513,245.988 465.5,243.5 Z"/></g>
<g><path style="opacity:1" fill="#e9d1a0" d="M 465.5,243.5 C 466.919,242.549 468.585,242.216 470.5,242.5C 470.5,263.5 470.5,284.5 470.5,305.5C 468.901,305.768 467.568,305.434 466.5,304.5C 467.5,304.5 468.5,304.5 469.5,304.5C 469.5,284.167 469.5,263.833 469.5,243.5C 468.167,243.5 466.833,243.5 465.5,243.5 Z"/></g>
<g><path style="opacity:1" fill="#f2e2c4" d="M 479.5,243.5 C 477.512,263.806 476.845,284.473 477.5,305.5C 476.503,284.673 476.169,263.673 476.5,242.5C 477.791,242.263 478.791,242.596 479.5,243.5 Z"/></g>
<g><path style="opacity:1" fill="#e0bb71" d="M 479.5,243.5 C 485.182,244.675 489.682,247.675 493,252.5C 494.548,265.791 494.881,279.125 494,292.5C 491.284,300.384 485.784,304.717 477.5,305.5C 476.845,284.473 477.512,263.806 479.5,243.5 Z"/></g>
<g><path style="opacity:1" fill="#f4edd7" d="M 105.5,244.5 C 106.167,244.5 106.5,244.833 106.5,245.5C 105.503,265.326 105.17,285.326 105.5,305.5C 110.5,305.5 115.5,305.5 120.5,305.5C 115.36,306.488 110.026,306.821 104.5,306.5C 104.5,286.167 104.5,265.833 104.5,245.5C 104.5,244.833 104.833,244.5 105.5,244.5 Z"/></g>
<g><path style="opacity:1" fill="#ccac39" d="M 106.5,245.5 C 110.51,251.5 115.01,257.167 120,262.5C 120.5,276.829 120.667,291.163 120.5,305.5C 115.5,305.5 110.5,305.5 105.5,305.5C 105.17,285.326 105.503,265.326 106.5,245.5 Z"/></g>
<g><path style="opacity:1" fill="#cfb24a" d="M 34.5,249.5 C 36.1765,250.183 36.8432,251.517 36.5,253.5C 31.6335,254.931 26.9668,256.931 22.5,259.5C 21.269,258.349 21.269,257.183 22.5,256C 26.7216,254.059 30.7216,251.892 34.5,249.5 Z"/></g>
<g><path style="opacity:1" fill="#e6c78c" d="M 327.5,216.5 C 326.841,246.186 327.508,275.519 329.5,304.5C 328.791,305.404 327.791,305.737 326.5,305.5C 326.169,275.662 326.502,245.995 327.5,216.5 Z"/></g>
<g><path style="opacity:1" fill="#d0b249" d="M 34.5,255.5 C 36.6516,256.077 36.985,257.244 35.5,259C 30.8017,260.766 26.3017,262.933 22,265.5C 21.2195,264.056 21.3861,262.723 22.5,261.5C 26.5919,259.454 30.5919,257.454 34.5,255.5 Z"/></g>
<g><path style="opacity:1" fill="#dac371" d="M 73.5,215.5 C 73.5,245.5 73.5,275.5 73.5,305.5C 75.5,305.5 77.5,305.5 79.5,305.5C 77.3926,306.468 75.0593,306.802 72.5,306.5C 72.1685,275.995 72.5019,245.662 73.5,215.5 Z"/></g>
<g><path style="opacity:1" fill="#e9cf9b" d="M 202.5,257.5 C 201.169,264.97 200.502,272.804 200.5,281C 200.502,289.196 201.169,297.03 202.5,304.5C 201.791,305.404 200.791,305.737 199.5,305.5C 199.5,289.167 199.5,272.833 199.5,256.5C 200.791,256.263 201.791,256.596 202.5,257.5 Z"/></g>
<g><path style="opacity:1" fill="#e0bb71" d="M 202.5,257.5 C 213.857,260.696 218.524,268.196 216.5,280C 219.115,292.627 214.449,300.794 202.5,304.5C 201.169,297.03 200.502,289.196 200.5,281C 200.502,272.804 201.169,264.97 202.5,257.5 Z"/></g>
<g><path style="opacity:1" fill="#eadeb2" d="M 70.5,216.5 C 71.4981,246.329 71.8314,276.329 71.5,306.5C 69.8333,306.5 68.1667,306.5 66.5,306.5C 66.1686,276.662 66.5019,246.995 67.5,217.5C 67.5,246.833 67.5,276.167 67.5,305.5C 68.5,305.5 69.5,305.5 70.5,305.5C 70.5,275.833 70.5,246.167 70.5,216.5 Z"/></g>
<g><path style="opacity:1" fill="#cfb148" d="M 33.5,261.5 C 34.5,261.5 35.5,261.5 36.5,261.5C 36.719,262.675 36.3857,263.675 35.5,264.5C 31.1667,266.5 26.8333,268.5 22.5,270.5C 21.269,269.349 21.269,268.183 22.5,267C 26.4022,265.435 30.0688,263.602 33.5,261.5 Z"/></g>
<g><path style="opacity:1" fill="#ede3bd" d="M 41.5,230.5 C 41.56,229.957 41.8933,229.624 42.5,229.5C 43.4998,255.158 43.8331,280.825 43.5,306.5C 41.8333,306.5 40.1667,306.5 38.5,306.5C 38.169,281.328 38.5023,256.328 39.5,231.5C 39.5,256.167 39.5,280.833 39.5,305.5C 40.5,305.5 41.5,305.5 42.5,305.5C 42.831,280.328 42.4977,255.328 41.5,230.5 Z"/></g>
<g><path style="opacity:1" fill="#ebd7af" d="M 145.5,213.5 C 146.568,212.566 147.901,212.232 149.5,212.5C 149.5,244.167 149.5,275.833 149.5,307.5C 147.833,307.5 146.167,307.5 144.5,307.5C 144.168,275.996 144.502,244.662 145.5,213.5 Z"/></g>
<g><path style="opacity:1" fill="#dab76d" d="M 145.5,213.5 C 146.5,213.5 147.5,213.5 148.5,213.5C 148.5,244.5 148.5,275.5 148.5,306.5C 147.5,306.5 146.5,306.5 145.5,306.5C 145.5,275.5 145.5,244.5 145.5,213.5 Z"/></g>
<g><path style="opacity:1" fill="#e3d296" d="M 53.5,224.5 C 54.4979,251.662 54.8312,278.995 54.5,306.5C 52.901,306.768 51.5676,306.434 50.5,305.5C 51.5,305.5 52.5,305.5 53.5,305.5C 53.5,278.5 53.5,251.5 53.5,224.5 Z"/></g>
<g><path style="opacity:1" fill="#e4d397" d="M 56.5,223.5 C 56.5,250.833 56.5,278.167 56.5,305.5C 57.5,305.5 58.5,305.5 59.5,305.5C 58.4324,306.434 57.099,306.768 55.5,306.5C 55.1687,278.662 55.5021,250.995 56.5,223.5 Z"/></g>
<g><path style="opacity:1" fill="#d0b24b" d="M 34.5,266.5 C 36.6516,267.077 36.985,268.244 35.5,270C 26.5908,274.038 17.7575,278.205 9,282.5C 8.21948,281.056 8.38615,279.723 9.5,278.5C 18.0463,274.725 26.3796,270.725 34.5,266.5 Z"/></g>
<g><path style="opacity:1" fill="#d0b44c" d="M 45.5,228.5 C 46.172,227.733 47.0053,227.066 48,226.5C 48.5,253.165 48.6666,279.831 48.5,306.5C 47.1667,306.5 45.8333,306.5 44.5,306.5C 44.1689,280.328 44.5022,254.328 45.5,228.5 Z"/></g>
<g><path style="opacity:1" fill="#cbac38" d="M 45.5,228.5 C 46.8325,240.982 47.4992,253.815 47.5,267C 47.1667,279.833 46.8333,292.667 46.5,305.5C 45.5002,279.842 45.1669,254.175 45.5,228.5 Z"/></g>
<g><path style="opacity:1" fill="#cfb249" d="M 33.5,272.5 C 34.5,272.5 35.5,272.5 36.5,272.5C 36.67,273.822 36.3366,274.989 35.5,276C 26.5048,279.94 17.5048,283.773 8.5,287.5C 8.33003,286.178 8.66337,285.011 9.5,284C 17.7128,280.392 25.7128,276.558 33.5,272.5 Z"/></g>
<g><path style="opacity:1" fill="#d0b34c" d="M 34.5,277.5 C 35.5862,277.62 36.2528,278.287 36.5,279.5C 28.0404,284.899 19.0404,289.565 9.5,293.5C 8.26899,292.349 8.26899,291.183 9.5,290C 18.2042,286.315 26.5375,282.148 34.5,277.5 Z"/></g>
<g><path style="opacity:1" fill="#e0bb72" d="M 179.5,279.5 C 183.5,279.5 187.5,279.5 191.5,279.5C 191.5,287.833 191.5,296.167 191.5,304.5C 190.5,304.5 189.5,304.5 188.5,304.5C 182.246,302.747 178.079,298.747 176,292.5C 175.501,288.179 175.334,283.846 175.5,279.5C 176.833,279.5 178.167,279.5 179.5,279.5 Z"/></g>
<g><path style="opacity:1" fill="#ebd3a5" d="M 179.5,279.5 C 183.97,278.514 188.637,278.181 193.5,278.5C 193.119,287.498 192.786,296.498 192.5,305.5C 190.901,305.768 189.568,305.434 188.5,304.5C 189.5,304.5 190.5,304.5 191.5,304.5C 191.5,296.167 191.5,287.833 191.5,279.5C 187.5,279.5 183.5,279.5 179.5,279.5 Z"/></g>
<g><path style="opacity:1" fill="#cfb24a" d="M 34.5,283.5 C 36.6516,284.077 36.985,285.244 35.5,287C 26.5908,291.038 17.7575,295.205 9,299.5C 8.21948,298.056 8.38615,296.723 9.5,295.5C 18.0463,291.725 26.3796,287.725 34.5,283.5 Z"/></g>
<g><path style="opacity:1" fill="#ccac3b" d="M 33.5,289.5 C 34.7498,289.577 35.5831,290.244 36,291.5C 36.4992,296.155 36.6658,300.821 36.5,305.5C 27.1667,305.5 17.8333,305.5 8.5,305.5C 8.28649,303.856 8.61983,302.356 9.5,301C 17.682,297.408 25.682,293.575 33.5,289.5 Z"/></g>
<g><path style="opacity:1" fill="#f6edda" d="M 366.5,243.5 C 368.265,242.539 370.265,242.205 372.5,242.5C 372.831,272.671 372.498,302.671 371.5,332.5C 371.5,302.833 371.5,273.167 371.5,243.5C 369.833,243.5 368.167,243.5 366.5,243.5 Z"/></g>
</svg>
