<?xml version="1.0" encoding="UTF-8"?>
<!DOCTYPE svg PUBLIC "-//W3C//DTD SVG 1.1//EN" "http://www.w3.org/Graphics/SVG/1.1/DTD/svg11.dtd">
<svg xmlns="http://www.w3.org/2000/svg" version="1.1" width="500px" height="500px" style="shape-rendering:geometricPrecision; text-rendering:geometricPrecision; image-rendering:optimizeQuality; fill-rule:evenodd; clip-rule:evenodd" xmlns:xlink="http://www.w3.org/1999/xlink">
<g><path style="opacity:0.981" fill="#214b78" d="M -0.5,192.5 C 47.1667,192.5 94.8333,192.5 142.5,192.5C 142.5,230.167 142.5,267.833 142.5,305.5C 94.8333,305.5 47.1667,305.5 -0.5,305.5C -0.5,267.833 -0.5,230.167 -0.5,192.5 Z"/></g>
<g><path style="opacity:0.804" fill="#c3a35e" d="M 152.5,192.5 C 154.167,192.5 155.833,192.5 157.5,192.5C 157.618,230.502 157.951,268.502 158.5,306.5C 156.833,306.5 155.167,306.5 153.5,306.5C 153.144,268.5 152.81,230.5 152.5,192.5 Z"/></g>
<g><path style="opacity:0.98" fill="#204b78" d="M 181.5,192.5 C 279.833,192.5 378.167,192.5 476.5,192.5C 476.5,230.167 476.5,267.833 476.5,305.5C 378.167,305.5 279.833,305.5 181.5,305.5C 181.5,267.833 181.5,230.167 181.5,192.5 Z"/></g>
<g><path style="opacity:1" fill="#caaa39" d="M 116.5,216.5 C 116.779,221.595 116.445,226.595 115.5,231.5C 111.951,232.881 108.784,234.881 106,237.5C 105.5,259.164 105.333,280.831 105.5,302.5C 103.167,302.5 100.833,302.5 98.5,302.5C 98.8328,286.486 98.4994,270.486 97.5,254.5C 96.8933,254.624 96.56,254.957 96.5,255.5C 93.2771,257.364 90.1104,259.364 87,261.5C 86.5001,275.496 86.3334,289.496 86.5,303.5C 83.8333,303.5 81.1667,303.5 78.5,303.5C 78.3333,267.498 78.5,231.498 79,195.5C 80.7261,194.424 82.5594,194.257 84.5,195C 95.0481,202.388 105.715,209.555 116.5,216.5 Z"/></g>
<g><path style="opacity:1" fill="#d5b470" d="M 232.5,196.5 C 242.158,194.993 246.325,198.993 245,208.5C 239.49,215.102 234.156,215.102 229,208.5C 227.745,203.738 228.912,199.738 232.5,196.5 Z"/></g>
<g><path style="opacity:1" fill="#d9b670" d="M 321.5,196.5 C 326.833,196.5 332.167,196.5 337.5,196.5C 337.667,218.836 337.5,241.169 337,263.5C 335.452,272.217 330.285,276.883 321.5,277.5C 321.5,250.5 321.5,223.5 321.5,196.5 Z"/></g>
<g><path style="opacity:1" fill="#c8a93a" d="M 75.5,197.5 C 75.5,232.5 75.5,267.5 75.5,302.5C 74.5,302.5 73.5,302.5 72.5,302.5C 72.5,267.833 72.5,233.167 72.5,198.5C 73.391,197.89 74.391,197.557 75.5,197.5 Z"/></g>
<g><path style="opacity:1" fill="#c9aa39" d="M 69.5,302.5 C 68.1667,302.5 66.8333,302.5 65.5,302.5C 65.5,268.833 65.5,235.167 65.5,201.5C 66.5832,201.461 67.5832,201.127 68.5,200.5C 69.4999,234.493 69.8332,268.493 69.5,302.5 Z"/></g>
<g><path style="opacity:1" fill="#c8a93a" d="M 62.5,203.5 C 62.5,236.5 62.5,269.5 62.5,302.5C 61.1667,302.5 59.8333,302.5 58.5,302.5C 58.1668,269.827 58.5001,237.16 59.5,204.5C 60.4168,203.873 61.4168,203.539 62.5,203.5 Z"/></g>
<g><path style="opacity:1" fill="#dab670" d="M 198.5,204.5 C 198.5,219.167 198.5,233.833 198.5,248.5C 197.5,248.5 196.5,248.5 195.5,248.5C 190.742,247.586 187.242,244.919 185,240.5C 183.424,231.911 183.09,223.244 184,214.5C 187.098,208.557 191.931,205.224 198.5,204.5 Z"/></g>
<g><path style="opacity:1" fill="#888774" d="M 208.5,205.5 C 207.5,205.5 206.5,205.5 205.5,205.5C 205.5,213.167 205.5,220.833 205.5,228.5C 208.5,228.5 211.5,228.5 214.5,228.5C 211.375,229.479 208.042,229.813 204.5,229.5C 204.5,221.167 204.5,212.833 204.5,204.5C 206.099,204.232 207.432,204.566 208.5,205.5 Z"/></g>
<g><path style="opacity:1" fill="#dcb870" d="M 208.5,205.5 C 219.55,209.26 223.55,216.926 220.5,228.5C 218.5,228.5 216.5,228.5 214.5,228.5C 211.5,228.5 208.5,228.5 205.5,228.5C 205.5,220.833 205.5,213.167 205.5,205.5C 206.5,205.5 207.5,205.5 208.5,205.5 Z"/></g>
<g><path style="opacity:1" fill="#c7a93a" d="M 55.5,206.5 C 55.5,238.5 55.5,270.5 55.5,302.5C 54.5,302.5 53.5,302.5 52.5,302.5C 52.5,271.167 52.5,239.833 52.5,208.5C 53.2905,207.599 54.2905,206.932 55.5,206.5 Z"/></g>
<g><path style="opacity:1" fill="#caaa39" d="M 48.5,209.5 C 49.4982,240.662 49.8315,271.996 49.5,303.5C 48.1667,303.5 46.8333,303.5 45.5,303.5C 45.3334,272.832 45.5,242.165 46,211.5C 46.9947,210.934 47.828,210.267 48.5,209.5 Z"/></g>
<g><path style="opacity:1" fill="#caaa39" d="M 41.5,213.5 C 42.4981,242.995 42.8314,272.662 42.5,302.5C 41.5,302.5 40.5,302.5 39.5,302.5C 39.5,273.167 39.5,243.833 39.5,214.5C 40.1667,214.167 40.8333,213.833 41.5,213.5 Z"/></g>
<g><path style="opacity:1" fill="#68735d" d="M 41.5,213.5 C 41.56,212.957 41.8933,212.624 42.5,212.5C 43.8297,242.997 43.8297,273.331 42.5,303.5C 42.5,303.167 42.5,302.833 42.5,302.5C 42.8314,272.662 42.4981,242.995 41.5,213.5 Z"/></g>
<g><path style="opacity:1" fill="#d5b470" d="M 228.5,220.5 C 234.167,220.5 239.833,220.5 245.5,220.5C 245.5,239.5 245.5,258.5 245.5,277.5C 239.833,277.5 234.167,277.5 228.5,277.5C 228.5,258.5 228.5,239.5 228.5,220.5 Z"/></g>
<g><path style="opacity:1" fill="#ddba6f" d="M 253.5,220.5 C 258.833,220.5 264.167,220.5 269.5,220.5C 269.5,239.5 269.5,258.5 269.5,277.5C 264.167,277.5 258.833,277.5 253.5,277.5C 253.5,258.5 253.5,239.5 253.5,220.5 Z"/></g>
<g><path style="opacity:1" fill="#dbb870" d="M 309.5,220.5 C 311.167,220.5 312.833,220.5 314.5,220.5C 314.5,239.5 314.5,258.5 314.5,277.5C 307.521,276.69 302.687,273.023 300,266.5C 299.333,254.5 299.333,242.5 300,230.5C 302.022,225.98 305.189,222.647 309.5,220.5 Z"/></g>
<g><path style="opacity:1" fill="#d6b570" d="M 361.5,220.5 C 361.5,247.5 361.5,274.5 361.5,301.5C 356.167,301.5 350.833,301.5 345.5,301.5C 345.333,278.831 345.5,256.164 346,233.5C 348.653,226.002 353.82,221.669 361.5,220.5 Z"/></g>
<g><path style="opacity:1" fill="#9b9372" d="M 371.5,221.5 C 370.5,221.5 369.5,221.5 368.5,221.5C 368.5,240.167 368.5,258.833 368.5,277.5C 367.503,258.674 367.17,239.674 367.5,220.5C 369.099,220.232 370.432,220.566 371.5,221.5 Z"/></g>
<g><path style="opacity:1" fill="#ddb870" d="M 391.5,220.5 C 396.833,220.5 402.167,220.5 407.5,220.5C 407.5,239.5 407.5,258.5 407.5,277.5C 402.167,277.5 396.833,277.5 391.5,277.5C 391.5,258.5 391.5,239.5 391.5,220.5 Z"/></g>
<g><path style="opacity:1" fill="#d6b570" d="M 447.5,220.5 C 449.167,220.5 450.833,220.5 452.5,220.5C 452.5,239.5 452.5,258.5 452.5,277.5C 444.615,277.125 439.448,273.125 437,265.5C 436.333,254.167 436.333,242.833 437,231.5C 439.357,226.645 442.857,222.979 447.5,220.5 Z"/></g>
<g><path style="opacity:1" fill="#d6b570" d="M 275.5,220.5 C 283.006,220.835 288.172,224.501 291,231.5C 291.5,246.83 291.667,262.163 291.5,277.5C 286.167,277.5 280.833,277.5 275.5,277.5C 275.5,258.5 275.5,239.5 275.5,220.5 Z"/></g>
<g><path style="opacity:1" fill="#dcb970" d="M 371.5,221.5 C 376.633,222.796 380.467,225.796 383,230.5C 383.667,242.5 383.667,254.5 383,266.5C 380.67,273.42 375.837,277.086 368.5,277.5C 368.5,258.833 368.5,240.167 368.5,221.5C 369.5,221.5 370.5,221.5 371.5,221.5 Z"/></g>
<g><path style="opacity:1" fill="#d3b370" d="M 413.5,220.5 C 419.868,221.097 424.701,224.097 428,229.5C 429.397,234.708 429.897,240.041 429.5,245.5C 424.167,245.5 418.833,245.5 413.5,245.5C 413.5,237.167 413.5,228.833 413.5,220.5 Z"/></g>
<g><path style="opacity:1" fill="#dbb870" d="M 458.5,220.5 C 464.755,221.264 469.589,224.264 473,229.5C 474.51,241.795 474.843,254.128 474,266.5C 471.168,273.504 466.001,277.171 458.5,277.5C 458.5,258.5 458.5,239.5 458.5,220.5 Z"/></g>
<g><path style="opacity:1" fill="#a99b72" d="M 198.5,204.5 C 199.496,219.324 199.829,234.324 199.5,249.5C 197.901,249.768 196.568,249.434 195.5,248.5C 196.5,248.5 197.5,248.5 198.5,248.5C 198.5,233.833 198.5,219.167 198.5,204.5 Z"/></g>
<g><path style="opacity:1" fill="#c7a83a" d="M 117.5,231.5 C 123.149,238.095 128.815,244.762 134.5,251.5C 135.5,268.821 135.833,286.154 135.5,303.5C 129.5,303.5 123.5,303.5 117.5,303.5C 117.5,279.5 117.5,255.5 117.5,231.5 Z"/></g>
<g><path style="opacity:1" fill="#868674" d="M 209.5,234.5 C 208.167,234.5 206.833,234.5 205.5,234.5C 205.5,248.5 205.5,262.5 205.5,276.5C 206.833,276.5 208.167,276.5 209.5,276.5C 208.081,277.451 206.415,277.784 204.5,277.5C 204.5,262.5 204.5,247.5 204.5,232.5C 206.553,232.402 208.22,233.069 209.5,234.5 Z"/></g>
<g><path style="opacity:1" fill="#ad9a44" d="M 39.5,214.5 C 39.5,243.833 39.5,273.167 39.5,302.5C 40.5,302.5 41.5,302.5 42.5,302.5C 42.5,302.833 42.5,303.167 42.5,303.5C 41.1667,303.5 39.8333,303.5 38.5,303.5C 38.1686,273.662 38.5019,243.995 39.5,214.5 Z"/></g>
<g><path style="opacity:1" fill="#dbb870" d="M 209.5,234.5 C 219.052,237.76 222.719,244.427 220.5,254.5C 221.614,261.841 219.947,268.341 215.5,274C 213.593,275.122 211.593,275.955 209.5,276.5C 208.167,276.5 206.833,276.5 205.5,276.5C 205.5,262.5 205.5,248.5 205.5,234.5C 206.833,234.5 208.167,234.5 209.5,234.5 Z"/></g>
<g><path style="opacity:1" fill="#bca33f" d="M 33.5,236.5 C 34.5862,236.62 35.2528,237.287 35.5,238.5C 30.2755,242.702 24.4422,246.035 18,248.5C 17.2797,246.888 17.4464,245.388 18.5,244C 23.5919,241.454 28.5919,238.954 33.5,236.5 Z"/></g>
<g><path style="opacity:1" fill="#b7a041" d="M 32.5,243.5 C 33.5,243.5 34.5,243.5 35.5,243.5C 35.7035,245.39 35.0368,246.89 33.5,248C 28.0461,250.227 22.7128,252.727 17.5,255.5C 16.2528,253.994 16.2528,252.494 17.5,251C 22.7707,248.762 27.7707,246.262 32.5,243.5 Z"/></g>
<g><path style="opacity:1" fill="#68735d" d="M 65.5,201.5 C 65.5,235.167 65.5,268.833 65.5,302.5C 66.8333,302.5 68.1667,302.5 69.5,302.5C 68.0813,303.451 66.4147,303.784 64.5,303.5C 64.1683,269.329 64.5017,235.329 65.5,201.5 Z"/></g>
<g><path style="opacity:1" fill="#918b4e" d="M 75.5,197.5 C 76.4984,232.663 76.8317,267.996 76.5,303.5C 74.8333,303.5 73.1667,303.5 71.5,303.5C 71.1683,268.329 71.5016,233.329 72.5,198.5C 72.5,233.167 72.5,267.833 72.5,302.5C 73.5,302.5 74.5,302.5 75.5,302.5C 75.5,267.5 75.5,232.5 75.5,197.5 Z"/></g>
<g><path style="opacity:1" fill="#bba33f" d="M 33.5,249.5 C 35.7099,250.455 36.0432,251.955 34.5,254C 29.124,256.403 23.7907,258.903 18.5,261.5C 17.2528,259.994 17.2528,258.494 18.5,257C 23.8398,254.997 28.8398,252.497 33.5,249.5 Z"/></g>
<g><path style="opacity:1" fill="#958d4d" d="M 55.5,206.5 C 56.4982,238.662 56.8316,270.996 56.5,303.5C 54.8333,303.5 53.1667,303.5 51.5,303.5C 51.1685,271.662 51.5018,239.996 52.5,208.5C 52.5,239.833 52.5,271.167 52.5,302.5C 53.5,302.5 54.5,302.5 55.5,302.5C 55.5,270.5 55.5,238.5 55.5,206.5 Z"/></g>
<g><path style="opacity:1" fill="#8a8974" d="M 183.5,254.5 C 188.64,253.512 193.974,253.179 199.5,253.5C 199.823,260.022 199.49,266.355 198.5,272.5C 198.5,266.5 198.5,260.5 198.5,254.5C 193.5,254.5 188.5,254.5 183.5,254.5 Z"/></g>
<g><path style="opacity:1" fill="#62715f" d="M 62.5,203.5 C 63.4983,236.662 63.8316,269.996 63.5,303.5C 61.5853,303.784 59.9187,303.451 58.5,302.5C 59.8333,302.5 61.1667,302.5 62.5,302.5C 62.5,269.5 62.5,236.5 62.5,203.5 Z"/></g>
<g><path style="opacity:1" fill="#dcb870" d="M 183.5,254.5 C 188.5,254.5 193.5,254.5 198.5,254.5C 198.5,260.5 198.5,266.5 198.5,272.5C 198.5,274.167 198.5,275.833 198.5,277.5C 190.658,277.159 185.825,273.159 184,265.5C 183.501,261.848 183.335,258.182 183.5,254.5 Z"/></g>
<g><path style="opacity:1" fill="#bea33e" d="M 33.5,256.5 C 34.5862,256.62 35.2528,257.287 35.5,258.5C 35.1667,259.167 34.8333,259.833 34.5,260.5C 23.9239,265.372 13.4239,270.372 3,275.5C 2.27969,273.888 2.44636,272.388 3.5,271C 13.7134,266.392 23.7134,261.559 33.5,256.5 Z"/></g>
<g><path style="opacity:1" fill="#bea33e" d="M 34.5,262.5 C 35.7879,264.035 35.7879,265.701 34.5,267.5C 24.1667,272.167 13.8333,276.833 3.5,281.5C 2.16667,280.167 2.16667,278.833 3.5,277.5C 14.0468,272.725 24.3802,267.725 34.5,262.5 Z"/></g>
<g><path style="opacity:1" fill="#64715e" d="M 116.5,216.5 C 117.487,221.305 117.821,226.305 117.5,231.5C 117.5,255.5 117.5,279.5 117.5,303.5C 116.833,279.5 116.167,255.5 115.5,231.5C 116.445,226.595 116.779,221.595 116.5,216.5 Z"/></g>
<g><path style="opacity:1" fill="#a39772" d="M 361.5,220.5 C 362.498,247.662 362.831,274.995 362.5,302.5C 356.642,302.822 350.975,302.489 345.5,301.5C 350.833,301.5 356.167,301.5 361.5,301.5C 361.5,274.5 361.5,247.5 361.5,220.5 Z"/></g>
<g><path style="opacity:1" fill="#bba33f" d="M 33.5,269.5 C 35.7099,270.455 36.0432,271.955 34.5,274C 23.9827,278.837 13.4827,283.67 3,288.5C 2.27969,286.888 2.44636,285.388 3.5,284C 13.7327,279.435 23.7327,274.602 33.5,269.5 Z"/></g>
<g><path style="opacity:1" fill="#bca33f" d="M 34.5,275.5 C 35.7879,277.035 35.7879,278.701 34.5,280.5C 23.9239,285.372 13.4239,290.372 3,295.5C 2.20245,293.741 2.36912,292.074 3.5,290.5C 14.0468,285.725 24.3802,280.725 34.5,275.5 Z"/></g>
<g><path style="opacity:1" fill="#8e894f" d="M 96.5,255.5 C 96.56,254.957 96.8933,254.624 97.5,254.5C 98.4994,270.486 98.8328,286.486 98.5,302.5C 100.833,302.5 103.167,302.5 105.5,302.5C 103.052,303.473 100.385,303.806 97.5,303.5C 97.8297,287.325 97.4964,271.325 96.5,255.5 Z"/></g>
<g><path style="opacity:1" fill="#c3a63c" d="M 33.5,282.5 C 35.4612,289.087 36.1279,296.087 35.5,303.5C 24.5,303.5 13.5,303.5 2.5,303.5C 2.2011,301.396 2.53443,299.396 3.5,297.5C 13.8708,292.981 23.8708,287.981 33.5,282.5 Z"/></g>
</svg>
