<?xml version="1.0" encoding="UTF-8"?>
<!DOCTYPE svg PUBLIC "-//W3C//DTD SVG 1.1//EN" "http://www.w3.org/Graphics/SVG/1.1/DTD/svg11.dtd">
<svg xmlns="http://www.w3.org/2000/svg" version="1.1" width="500px" height="500px" style="shape-rendering:geometricPrecision; text-rendering:geometricPrecision; image-rendering:optimizeQuality; fill-rule:evenodd; clip-rule:evenodd" xmlns:xlink="http://www.w3.org/1999/xlink">
<g><path style="opacity:0.999" fill="#ccac3a" d="M 308.5,46.5 C 308.821,48.0481 309.821,48.7148 311.5,48.5C 312.035,50.4456 313.368,51.4456 315.5,51.5C 316.492,51.3284 317.158,51.6618 317.5,52.5C 318.035,54.4456 319.368,55.4456 321.5,55.5C 335.024,63.4254 348.024,72.092 360.5,81.5C 360.973,82.9063 361.973,83.573 363.5,83.5C 363.973,84.9063 364.973,85.573 366.5,85.5C 366.973,86.9063 367.973,87.573 369.5,87.5C 373.795,89.8077 377.795,92.4744 381.5,95.5C 381.821,97.0481 382.821,97.7148 384.5,97.5C 384.821,99.0481 385.821,99.7148 387.5,99.5C 387.821,101.048 388.821,101.715 390.5,101.5C 390.821,103.048 391.821,103.715 393.5,103.5C 393.821,105.048 394.821,105.715 396.5,105.5C 396.821,107.048 397.821,107.715 399.5,107.5C 399.821,109.048 400.821,109.715 402.5,109.5C 403.035,111.446 404.368,112.446 406.5,112.5C 407.492,112.328 408.158,112.662 408.5,113.5C 409.035,115.446 410.368,116.446 412.5,116.5C 413.492,116.328 414.158,116.662 414.5,117.5C 415.035,119.446 416.368,120.446 418.5,120.5C 424.414,123.104 429.414,126.77 433.5,131.5C 433.667,148.17 433.5,164.837 433,181.5C 432.283,182.044 431.783,182.711 431.5,183.5C 425.842,187.665 419.842,191.332 413.5,194.5C 411.973,194.427 410.973,195.094 410.5,196.5C 404.87,200.654 398.87,204.321 392.5,207.5C 390.517,221.795 389.85,236.462 390.5,251.5C 389.501,319.331 389.167,387.331 389.5,455.5C 380.167,455.5 370.833,455.5 361.5,455.5C 361.832,414.663 361.499,373.997 360.5,333.5C 360.833,313.822 360.5,294.155 359.5,274.5C 358.478,274.855 357.811,275.522 357.5,276.5C 345.364,284.954 332.697,292.62 319.5,299.5C 317.806,351.323 317.14,403.323 317.5,455.5C 307.5,455.5 297.5,455.5 287.5,455.5C 287.5,351.833 287.5,248.167 287.5,144.5C 288.174,112.931 288.84,81.2644 289.5,49.5C 289.842,48.6618 290.508,48.3284 291.5,48.5C 293.027,48.573 294.027,47.9063 294.5,46.5C 299.167,42.5 303.833,42.5 308.5,46.5 Z"/></g>
<g><path style="opacity:0.627" fill="#ecdfb4" d="M 294.5,46.5 C 294.027,47.9063 293.027,48.573 291.5,48.5C 291.973,47.0937 292.973,46.427 294.5,46.5 Z"/></g>
<g><path style="opacity:0.878" fill="#e9d6a1" d="M 308.5,46.5 C 309.71,46.9321 310.71,47.5987 311.5,48.5C 309.821,48.7148 308.821,48.0481 308.5,46.5 Z"/></g>
<g><path style="opacity:0.875" fill="#ead8a6" d="M 311.5,48.5 C 313.23,49.0256 314.564,50.0256 315.5,51.5C 313.368,51.4456 312.035,50.4456 311.5,48.5 Z"/></g>
<g><path style="opacity:0.867" fill="#ebd9a8" d="M 317.5,52.5 C 319.23,53.0256 320.564,54.0256 321.5,55.5C 319.368,55.4456 318.035,54.4456 317.5,52.5 Z"/></g>
<g><path style="opacity:0.999" fill="#ccac3b" d="M 278.5,55.5 C 278.5,188.833 278.5,322.167 278.5,455.5C 273.167,455.5 267.833,455.5 262.5,455.5C 262.169,324.097 262.502,192.763 263.5,61.5C 268.075,59.2126 272.741,56.8793 277.5,54.5C 278.107,54.6236 278.44,54.9569 278.5,55.5 Z"/></g>
<g><path style="opacity:0.996" fill="#ceaf42" d="M 250.5,67.5 C 252.328,98.484 253.161,129.817 253,161.5C 253.5,259.833 253.667,358.166 253.5,456.5C 247.5,456.5 241.5,456.5 235.5,456.5C 235.167,328.999 235.5,201.666 236.5,74.5C 237.71,74.0679 238.71,73.4013 239.5,72.5C 239.842,71.6618 240.508,71.3284 241.5,71.5C 243.698,71.8799 245.365,71.2132 246.5,69.5C 247.514,68.3263 248.847,67.6596 250.5,67.5 Z"/></g>
<g><path style="opacity:0.871" fill="#e9d7a3" d="M 246.5,69.5 C 245.365,71.2132 243.698,71.8799 241.5,71.5C 242.93,70.4625 244.597,69.7959 246.5,69.5 Z"/></g>
<g><path style="opacity:0.006" fill="#f6f0dc" d="M 239.5,72.5 C 238.71,73.4013 237.71,74.0679 236.5,74.5C 236.821,72.9519 237.821,72.2852 239.5,72.5 Z"/></g>
<g><path style="opacity:0.999" fill="#ccac39" d="M 224.5,80.5 C 225.5,80.5 226.5,80.5 227.5,80.5C 227.5,114.167 227.5,147.833 227.5,181.5C 227.5,272.833 227.5,364.167 227.5,455.5C 222.5,455.5 217.5,455.5 212.5,455.5C 212.5,332.5 212.5,209.5 212.5,86.5C 215.914,83.4598 219.914,81.4598 224.5,80.5 Z"/></g>
<g><path style="opacity:0.004" fill="#f7f2e1" d="M 360.5,81.5 C 362.027,81.427 363.027,82.0937 363.5,83.5C 361.973,83.573 360.973,82.9063 360.5,81.5 Z"/></g>
<g><path style="opacity:0.004" fill="#f8f2e2" d="M 363.5,83.5 C 365.027,83.427 366.027,84.0937 366.5,85.5C 364.973,85.573 363.973,84.9063 363.5,83.5 Z"/></g>
<g><path style="opacity:0.004" fill="#f7f2e2" d="M 366.5,85.5 C 368.027,85.427 369.027,86.0937 369.5,87.5C 367.973,87.573 366.973,86.9063 366.5,85.5 Z"/></g>
<g><path style="opacity:0.996" fill="#cdad3e" d="M 202.5,108.5 C 203.304,224.498 203.638,340.498 203.5,456.5C 197.833,456.5 192.167,456.5 186.5,456.5C 186.34,337.165 186.674,217.831 187.5,98.5C 187.842,97.6618 188.508,97.3284 189.5,97.5C 191.027,97.573 192.027,96.9063 192.5,95.5C 194.181,93.9925 196.181,92.9925 198.5,92.5C 199.496,92.5858 200.329,92.2524 201,91.5C 201.173,97.3482 201.673,103.015 202.5,108.5 Z"/></g>
<g><path style="opacity:0.627" fill="#ede0b8" d="M 192.5,95.5 C 192.027,96.9063 191.027,97.573 189.5,97.5C 189.973,96.0937 190.973,95.427 192.5,95.5 Z"/></g>
<g><path style="opacity:0.914" fill="#e8d39b" d="M 381.5,95.5 C 382.71,95.9321 383.71,96.5987 384.5,97.5C 382.821,97.7148 381.821,97.0481 381.5,95.5 Z"/></g>
<g><path style="opacity:0.914" fill="#e8d49b" d="M 384.5,97.5 C 385.71,97.9321 386.71,98.5987 387.5,99.5C 385.821,99.7148 384.821,99.0481 384.5,97.5 Z"/></g>
<g><path style="opacity:0.906" fill="#e8d49d" d="M 387.5,99.5 C 388.71,99.9321 389.71,100.599 390.5,101.5C 388.821,101.715 387.821,101.048 387.5,99.5 Z"/></g>
<g><path style="opacity:0.006" fill="#f8f4e7" d="M 178.5,186.5 C 178.167,186.5 177.833,186.5 177.5,186.5C 177.5,158.833 177.5,131.167 177.5,103.5C 176.5,103.5 175.5,103.5 174.5,103.5C 175.52,102.046 176.687,101.713 178,102.5C 178.5,130.498 178.667,158.498 178.5,186.5 Z"/></g>
<g><path style="opacity:0.898" fill="#e8d59d" d="M 390.5,101.5 C 391.71,101.932 392.71,102.599 393.5,103.5C 391.821,103.715 390.821,103.048 390.5,101.5 Z"/></g>
<g><path style="opacity:0.999" fill="#ccac39" d="M 174.5,103.5 C 175.5,103.5 176.5,103.5 177.5,103.5C 177.5,131.167 177.5,158.833 177.5,186.5C 177.5,219.167 177.5,251.833 177.5,284.5C 177.5,341.5 177.5,398.5 177.5,455.5C 172.167,455.5 166.833,455.5 161.5,455.5C 161.5,414.5 161.5,373.5 161.5,332.5C 161.5,258.5 161.5,184.5 161.5,110.5C 161.842,109.662 162.508,109.328 163.5,109.5C 165.027,109.573 166.027,108.906 166.5,107.5C 168.849,105.659 171.515,104.326 174.5,103.5 Z"/></g>
<g><path style="opacity:0.894" fill="#e9d59e" d="M 393.5,103.5 C 394.71,103.932 395.71,104.599 396.5,105.5C 394.821,105.715 393.821,105.048 393.5,103.5 Z"/></g>
<g><path style="opacity:0.62" fill="#e4d296" d="M 202.5,102.5 C 202.5,104.5 202.5,106.5 202.5,108.5C 201.673,103.015 201.173,97.3482 201,91.5C 200.329,92.2524 199.496,92.5858 198.5,92.5C 199.287,90.8958 200.62,90.2291 202.5,90.5C 202.5,94.5 202.5,98.5 202.5,102.5 Z"/></g>
<g><path style="opacity:0.898" fill="#e9d59f" d="M 396.5,105.5 C 397.71,105.932 398.71,106.599 399.5,107.5C 397.821,107.715 396.821,107.048 396.5,105.5 Z"/></g>
<g><path style="opacity:0.612" fill="#ede1b8" d="M 166.5,107.5 C 166.027,108.906 165.027,109.573 163.5,109.5C 163.973,108.094 164.973,107.427 166.5,107.5 Z"/></g>
<g><path style="opacity:0.573" fill="#eadcad" d="M 250.5,67.5 C 251.209,66.596 252.209,66.2627 253.5,66.5C 254.794,196.663 254.794,326.663 253.5,456.5C 253.667,358.166 253.5,259.833 253,161.5C 253.161,129.817 252.328,98.484 250.5,67.5 Z"/></g>
<g><path style="opacity:0.894" fill="#e9d6a0" d="M 399.5,107.5 C 400.71,107.932 401.71,108.599 402.5,109.5C 400.821,109.715 399.821,109.048 399.5,107.5 Z"/></g>
<g><path style="opacity:0.882" fill="#ead8a5" d="M 402.5,109.5 C 404.23,110.026 405.564,111.026 406.5,112.5C 404.368,112.446 403.035,111.446 402.5,109.5 Z"/></g>
<g><path style="opacity:0.882" fill="#ebd9a7" d="M 408.5,113.5 C 410.23,114.026 411.564,115.026 412.5,116.5C 410.368,116.446 409.035,115.446 408.5,113.5 Z"/></g>
<g><path style="opacity:0.997" fill="#ccac39" d="M 151.5,115.5 C 152.5,228.999 152.833,342.665 152.5,456.5C 147.167,456.5 141.833,456.5 136.5,456.5C 136.5,345.167 136.5,233.833 136.5,122.5C 138.967,122.245 140.967,121.245 142.5,119.5C 145.256,117.796 148.256,116.463 151.5,115.5 Z"/></g>
<g><path style="opacity:0.867" fill="#ebd9a8" d="M 414.5,117.5 C 416.23,118.026 417.564,119.026 418.5,120.5C 416.368,120.446 415.035,119.446 414.5,117.5 Z"/></g>
<g><path style="opacity:0.627" fill="#e9d8a4" d="M 142.5,119.5 C 140.967,121.245 138.967,122.245 136.5,122.5C 138.033,120.755 140.033,119.755 142.5,119.5 Z"/></g>
<g><path style="opacity:0.441" fill="#eee3bf" d="M 263.5,61.5 C 262.502,192.763 262.169,324.097 262.5,455.5C 262.5,455.833 262.5,456.167 262.5,456.5C 261.167,407.838 260.5,358.838 260.5,309.5C 261.044,229.485 261.044,149.485 260.5,69.5C 260.518,66.2493 261.518,63.5827 263.5,61.5 Z"/></g>
<g><path style="opacity:0.884" fill="#d8be67" d="M 289.5,49.5 C 288.84,81.2644 288.174,112.931 287.5,144.5C 287.5,117.833 287.5,91.1667 287.5,64.5C 286.355,60.1599 286.355,55.8265 287.5,51.5C 287.747,50.2867 288.414,49.62 289.5,49.5 Z"/></g>
<g><path style="opacity:0.544" fill="#eee3bd" d="M 228.5,455.5 C 228.833,363.998 228.499,272.665 227.5,181.5C 227.5,147.833 227.5,114.167 227.5,80.5C 226.5,80.5 225.5,80.5 224.5,80.5C 225.261,79.6091 226.261,78.9424 227.5,78.5C 228.177,89.7278 228.843,100.895 229.5,112C 229.827,226.545 229.494,341.045 228.5,455.5 Z"/></g>
<g><path style="opacity:0.8" fill="#ecdcaf" d="M 187.5,98.5 C 186.674,217.831 186.34,337.165 186.5,456.5C 185.334,337.667 185.167,218.667 186,99.5C 186.383,98.944 186.883,98.6107 187.5,98.5 Z"/></g>
<g><path style="opacity:0.007" fill="#fdfcfa" d="M 433.5,131.5 C 434.497,148.325 434.83,165.325 434.5,182.5C 433.501,273.665 433.167,364.998 433.5,456.5C 432.833,365.5 432.167,274.5 431.5,183.5C 431.783,182.711 432.283,182.044 433,181.5C 433.5,164.837 433.667,148.17 433.5,131.5 Z"/></g>
<g><path style="opacity:0.548" fill="#f2e9ce" d="M 202.5,102.5 C 204.02,171.993 204.687,241.66 204.5,311.5C 204.5,360.001 204.167,408.334 203.5,456.5C 203.638,340.498 203.304,224.498 202.5,108.5C 202.5,106.5 202.5,104.5 202.5,102.5 Z"/></g>
<g><path style="opacity:0.78" fill="#d8c06a" d="M 434.5,182.5 C 434.5,183.167 434.5,183.833 434.5,184.5C 434.5,274.833 434.5,365.167 434.5,455.5C 456.167,455.5 477.833,455.5 499.5,455.5C 499.5,455.833 499.5,456.167 499.5,456.5C 477.5,456.5 455.5,456.5 433.5,456.5C 433.167,364.998 433.501,273.665 434.5,182.5 Z"/></g>
<g><path style="opacity:1" fill="#ccac39" d="M 434.5,184.5 C 435.167,184.833 435.833,185.167 436.5,185.5C 437.5,185.833 438.167,186.5 438.5,187.5C 438.738,189.404 439.738,190.738 441.5,191.5C 442.5,191.833 443.167,192.5 443.5,193.5C 443.738,195.404 444.738,196.738 446.5,197.5C 447.5,197.833 448.167,198.5 448.5,199.5C 449.08,201.749 450.413,203.415 452.5,204.5C 453.5,204.833 454.167,205.5 454.5,206.5C 454.427,208.027 455.094,209.027 456.5,209.5C 457.5,209.833 458.167,210.5 458.5,211.5C 458.738,213.404 459.738,214.738 461.5,215.5C 462.5,215.833 463.167,216.5 463.5,217.5C 463.738,219.404 464.738,220.738 466.5,221.5C 467.5,221.833 468.167,222.5 468.5,223.5C 468.427,225.027 469.094,226.027 470.5,226.5C 471.5,226.833 472.167,227.5 472.5,228.5C 472.427,230.027 473.094,231.027 474.5,231.5C 475.5,231.833 476.167,232.5 476.5,233.5C 476.738,235.404 477.738,236.738 479.5,237.5C 480.08,239.749 481.413,241.415 483.5,242.5C 484.5,242.833 485.167,243.5 485.5,244.5C 485.427,246.027 486.094,247.027 487.5,247.5C 488.5,247.833 489.167,248.5 489.5,249.5C 489.427,251.027 490.094,252.027 491.5,252.5C 492.5,252.833 493.167,253.5 493.5,254.5C 493.427,256.027 494.094,257.027 495.5,257.5C 497.194,258.527 498.527,259.861 499.5,261.5C 499.5,326.167 499.5,390.833 499.5,455.5C 477.833,455.5 456.167,455.5 434.5,455.5C 434.5,365.167 434.5,274.833 434.5,184.5 Z"/></g>
<g><path style="opacity:0.333" fill="#f1e8ca" d="M 434.5,182.5 C 435.906,182.973 436.573,183.973 436.5,185.5C 435.833,185.167 435.167,184.833 434.5,184.5C 434.5,183.833 434.5,183.167 434.5,182.5 Z"/></g>
<g><path style="opacity:0.675" fill="#eddeb3" d="M 438.5,187.5 C 440.262,188.262 441.262,189.596 441.5,191.5C 439.738,190.738 438.738,189.404 438.5,187.5 Z"/></g>
<g><path style="opacity:0.406" fill="#efe5c1" d="M 151.5,115.5 C 151.56,114.957 151.893,114.624 152.5,114.5C 153.768,191.828 154.434,269.161 154.5,346.5C 154.5,383.506 153.833,420.173 152.5,456.5C 152.833,342.665 152.5,228.999 151.5,115.5 Z"/></g>
<g><path style="opacity:0.718" fill="#edddb1" d="M 443.5,193.5 C 445.262,194.262 446.262,195.596 446.5,197.5C 444.738,196.738 443.738,195.404 443.5,193.5 Z"/></g>
<g><path style="opacity:0.004" fill="#faf8ef" d="M 413.5,194.5 C 413.027,195.906 412.027,196.573 410.5,196.5C 410.973,195.094 411.973,194.427 413.5,194.5 Z"/></g>
<g><path style="opacity:0.78" fill="#ecdeb2" d="M 448.5,199.5 C 450.587,200.585 451.92,202.251 452.5,204.5C 450.413,203.415 449.08,201.749 448.5,199.5 Z"/></g>
<g><path style="opacity:0.639" fill="#eee1ba" d="M 124.5,205.5 C 123.292,204.766 121.959,204.433 120.5,204.5C 122.564,201.547 123.897,201.88 124.5,205.5 Z"/></g>
<g><path style="opacity:0.997" fill="#d1b34e" d="M 120.5,204.5 C 121.959,204.433 123.292,204.766 124.5,205.5C 124.587,210.537 124.254,215.537 123.5,220.5C 120.759,220.707 118.426,221.707 116.5,223.5C 113.912,225.625 110.912,226.958 107.5,227.5C 105.847,227.66 104.514,228.326 103.5,229.5C 101.819,231.008 99.8185,232.008 97.5,232.5C 95.4471,232.402 93.7804,233.069 92.5,234.5C 88.8178,237.008 84.8178,239.008 80.5,240.5C 77.7594,240.707 75.4261,241.707 73.5,243.5C 68.0532,246.726 62.3865,249.726 56.5,252.5C 55.8933,252.376 55.56,252.043 55.5,251.5C 55.5,246.167 55.5,240.833 55.5,235.5C 76.7331,224.385 98.3998,214.051 120.5,204.5 Z"/></g>
<g><path style="opacity:0.627" fill="#eee0b7" d="M 454.5,206.5 C 455.906,206.973 456.573,207.973 456.5,209.5C 455.094,209.027 454.427,208.027 454.5,206.5 Z"/></g>
<g><path style="opacity:0.006" fill="#faf6ec" d="M 124.5,205.5 C 125.162,207.304 125.495,209.304 125.5,211.5C 125.657,214.814 124.991,217.814 123.5,220.5C 124.254,215.537 124.587,210.537 124.5,205.5 Z"/></g>
<g><path style="opacity:0.733" fill="#ecdcae" d="M 458.5,211.5 C 460.262,212.262 461.262,213.596 461.5,215.5C 459.738,214.738 458.738,213.404 458.5,211.5 Z"/></g>
<g><path style="opacity:0.004" fill="#fdfdfc" d="M 392.5,207.5 C 391.844,228.931 391.177,250.265 390.5,271.5C 390.5,264.833 390.5,258.167 390.5,251.5C 389.85,236.462 390.517,221.795 392.5,207.5 Z"/></g>
<g><path style="opacity:0.671" fill="#eddfb5" d="M 463.5,217.5 C 465.262,218.262 466.262,219.596 466.5,221.5C 464.738,220.738 463.738,219.404 463.5,217.5 Z"/></g>
<g><path style="opacity:0.067" fill="#f8f3e5" d="M 123.5,220.5 C 121.574,222.293 119.241,223.293 116.5,223.5C 118.426,221.707 120.759,220.707 123.5,220.5 Z"/></g>
<g><path style="opacity:0.404" fill="#eee2bc" d="M 468.5,223.5 C 469.906,223.973 470.573,224.973 470.5,226.5C 469.094,226.027 468.427,225.027 468.5,223.5 Z"/></g>
<g><path style="opacity:0.006" fill="#f9f5ea" d="M 107.5,227.5 C 106.713,229.104 105.38,229.771 103.5,229.5C 104.514,228.326 105.847,227.66 107.5,227.5 Z"/></g>
<g><path style="opacity:0.996" fill="#d2b34c" d="M 123.5,229.5 C 124.833,234.833 124.833,240.167 123.5,245.5C 121.447,245.402 119.78,246.069 118.5,247.5C 116.819,249.008 114.819,250.008 112.5,250.5C 109.759,250.707 107.426,251.707 105.5,253.5C 103.819,255.008 101.819,256.008 99.5,256.5C 96.7594,256.707 94.4261,257.707 92.5,259.5C 89.9122,261.625 86.9122,262.958 83.5,263.5C 81.847,263.66 80.5137,264.326 79.5,265.5C 77.847,265.66 76.5137,266.326 75.5,267.5C 73.847,267.66 72.5137,268.326 71.5,269.5C 67.1511,272.341 62.4844,274.674 57.5,276.5C 55.5539,271.604 54.8872,266.271 55.5,260.5C 57.153,260.34 58.4863,259.674 59.5,258.5C 61.1815,256.992 63.1815,255.992 65.5,255.5C 67.5529,255.598 69.2196,254.931 70.5,253.5C 72.8485,251.659 75.5152,250.326 78.5,249.5C 80.5529,249.598 82.2196,248.931 83.5,247.5C 85.8485,245.659 88.5152,244.326 91.5,243.5C 93.5529,243.598 95.2196,242.931 96.5,241.5C 104.827,236.67 113.494,232.336 122.5,228.5C 123.107,228.624 123.44,228.957 123.5,229.5 Z"/></g>
<g><path style="opacity:0.447" fill="#ede0b6" d="M 472.5,228.5 C 473.906,228.973 474.573,229.973 474.5,231.5C 473.094,231.027 472.427,230.027 472.5,228.5 Z"/></g>
<g><path style="opacity:0.006" fill="#f8f4e7" d="M 97.5,232.5 C 96.2196,233.931 94.5529,234.598 92.5,234.5C 93.7804,233.069 95.4471,232.402 97.5,232.5 Z"/></g>
<g><path style="opacity:0.667" fill="#eee1b9" d="M 476.5,233.5 C 478.262,234.262 479.262,235.596 479.5,237.5C 477.738,236.738 476.738,235.404 476.5,233.5 Z"/></g>
<g><path style="opacity:0.086" fill="#f6eed9" d="M 123.5,229.5 C 126.167,234.833 126.167,240.167 123.5,245.5C 124.833,240.167 124.833,234.833 123.5,229.5 Z"/></g>
<g><path style="opacity:0.824" fill="#ebdbab" d="M 479.5,237.5 C 481.587,238.585 482.92,240.251 483.5,242.5C 481.413,241.415 480.08,239.749 479.5,237.5 Z"/></g>
<g><path style="opacity:0.075" fill="#f7f2e2" d="M 80.5,240.5 C 78.5739,242.293 76.2406,243.293 73.5,243.5C 75.4261,241.707 77.7594,240.707 80.5,240.5 Z"/></g>
<g><path style="opacity:0.006" fill="#f8f2e3" d="M 96.5,241.5 C 95.2196,242.931 93.5529,243.598 91.5,243.5C 92.7804,242.069 94.4471,241.402 96.5,241.5 Z"/></g>
<g><path style="opacity:0.824" fill="#ead9a8" d="M 55.5,235.5 C 55.5,240.833 55.5,246.167 55.5,251.5C 52.9041,246.183 52.9041,240.849 55.5,235.5 Z"/></g>
<g><path style="opacity:0.008" fill="#f8f4e6" d="M 123.5,245.5 C 122.22,246.931 120.553,247.598 118.5,247.5C 119.78,246.069 121.447,245.402 123.5,245.5 Z"/></g>
<g><path style="opacity:0.341" fill="#f0e6c5" d="M 485.5,244.5 C 486.906,244.973 487.573,245.973 487.5,247.5C 486.094,247.027 485.427,246.027 485.5,244.5 Z"/></g>
<g><path style="opacity:0.006" fill="#f9f5e8" d="M 83.5,247.5 C 82.2196,248.931 80.5529,249.598 78.5,249.5C 79.7804,248.069 81.4471,247.402 83.5,247.5 Z"/></g>
<g><path style="opacity:0.086" fill="#f8f3e4" d="M 112.5,250.5 C 110.574,252.293 108.241,253.293 105.5,253.5C 107.426,251.707 109.759,250.707 112.5,250.5 Z"/></g>
<g><path style="opacity:0.705" fill="#eddfb5" d="M 177.5,186.5 C 177.833,186.5 178.167,186.5 178.5,186.5C 179.708,276.332 179.708,365.998 178.5,455.5C 178.832,398.331 178.499,341.331 177.5,284.5C 177.5,251.833 177.5,219.167 177.5,186.5 Z"/></g>
<g><path style="opacity:0.341" fill="#f0e6c5" d="M 489.5,249.5 C 490.906,249.973 491.573,250.973 491.5,252.5C 490.094,252.027 489.427,251.027 489.5,249.5 Z"/></g>
<g><path style="opacity:0.006" fill="#f8f3e4" d="M 70.5,253.5 C 69.2196,254.931 67.5529,255.598 65.5,255.5C 66.7804,254.069 68.4471,253.402 70.5,253.5 Z"/></g>
<g><path style="opacity:0.006" fill="#f7f2e2" d="M 121.5,254.5 C 120.22,255.931 118.553,256.598 116.5,256.5C 117.78,255.069 119.447,254.402 121.5,254.5 Z"/></g>
<g><path style="opacity:0.997" fill="#d0b24b" d="M 123.5,254.5 C 124.162,258.466 124.495,262.466 124.5,266.5C 125.084,269.285 124.084,270.952 121.5,271.5C 119.447,271.402 117.78,272.069 116.5,273.5C 114.847,273.66 113.514,274.326 112.5,275.5C 110.151,277.341 107.485,278.674 104.5,279.5C 102.447,279.402 100.78,280.069 99.5,281.5C 96.4846,283.674 93.1513,285.341 89.5,286.5C 86.7594,286.707 84.4261,287.707 82.5,289.5C 80.1515,291.341 77.4848,292.674 74.5,293.5C 72.4471,293.402 70.7804,294.069 69.5,295.5C 67.847,295.66 66.5137,296.326 65.5,297.5C 62.7235,299.392 59.7235,301.059 56.5,302.5C 55.8933,302.376 55.56,302.043 55.5,301.5C 55.5,296.167 55.5,290.833 55.5,285.5C 57.8185,285.008 59.8185,284.008 61.5,282.5C 63.1815,280.992 65.1815,279.992 67.5,279.5C 70.9122,278.958 73.9122,277.625 76.5,275.5C 78.8485,273.659 81.5152,272.326 84.5,271.5C 86.5529,271.598 88.2196,270.931 89.5,269.5C 91.8485,267.659 94.5152,266.326 97.5,265.5C 100.912,264.958 103.912,263.625 106.5,261.5C 109.515,259.326 112.849,257.659 116.5,256.5C 118.553,256.598 120.22,255.931 121.5,254.5C 122.167,253.167 122.833,253.167 123.5,254.5 Z"/></g>
<g><path style="opacity:0.369" fill="#f0e5c2" d="M 493.5,254.5 C 494.906,254.973 495.573,255.973 495.5,257.5C 494.094,257.027 493.427,256.027 493.5,254.5 Z"/></g>
<g><path style="opacity:0.006" fill="#f9f5ea" d="M 99.5,256.5 C 97.5739,258.293 95.2406,259.293 92.5,259.5C 94.4261,257.707 96.7594,256.707 99.5,256.5 Z"/></g>
<g><path style="opacity:0.408" fill="#f4ecd3" d="M 59.5,258.5 C 58.4863,259.674 57.153,260.34 55.5,260.5C 56.287,258.896 57.6203,258.229 59.5,258.5 Z"/></g>
<g><path style="opacity:0.086" fill="#f8f3e5" d="M 123.5,254.5 C 124.926,256.679 125.592,259.179 125.5,262C 125.492,263.707 125.158,265.207 124.5,266.5C 124.495,262.466 124.162,258.466 123.5,254.5 Z"/></g>
<g><path style="opacity:0.051" fill="#f7f1df" d="M 106.5,261.5 C 103.912,263.625 100.912,264.958 97.5,265.5C 100.088,263.375 103.088,262.042 106.5,261.5 Z"/></g>
<g><path style="opacity:0.047" fill="#f7f1df" d="M 83.5,263.5 C 82.713,265.104 81.3797,265.771 79.5,265.5C 80.5137,264.326 81.847,263.66 83.5,263.5 Z"/></g>
<g><path style="opacity:0.006" fill="#f8f4e6" d="M 79.5,265.5 C 78.713,267.104 77.3797,267.771 75.5,267.5C 76.5137,266.326 77.847,265.66 79.5,265.5 Z"/></g>
<g><path style="opacity:0.006" fill="#f9f6eb" d="M 75.5,267.5 C 74.713,269.104 73.3797,269.771 71.5,269.5C 72.5137,268.326 73.847,267.66 75.5,267.5 Z"/></g>
<g><path style="opacity:0.006" fill="#f8f3e5" d="M 89.5,269.5 C 88.2196,270.931 86.5529,271.598 84.5,271.5C 85.7804,270.069 87.4471,269.402 89.5,269.5 Z"/></g>
<g><path style="opacity:0.812" fill="#ead8a5" d="M 55.5,260.5 C 54.8872,266.271 55.5539,271.604 57.5,276.5C 56.0903,277.828 54.9236,277.495 54,275.5C 53.0993,270.225 53.5993,265.225 55.5,260.5 Z"/></g>
<g><path style="opacity:0.006" fill="#f8f4e7" d="M 121.5,271.5 C 120.22,272.931 118.553,273.598 116.5,273.5C 117.78,272.069 119.447,271.402 121.5,271.5 Z"/></g>
<g><path style="opacity:0.506" fill="#f1e8ca" d="M 161.5,110.5 C 161.5,184.5 161.5,258.5 161.5,332.5C 160.502,367.329 160.168,402.329 160.5,437.5C 159.689,392.113 159.356,346.613 159.5,301C 160.054,237.334 160.721,173.834 161.5,110.5 Z"/></g>
<g><path style="opacity:0.006" fill="#f9f6ed" d="M 116.5,273.5 C 115.713,275.104 114.38,275.771 112.5,275.5C 113.514,274.326 114.847,273.66 116.5,273.5 Z"/></g>
<g><path style="opacity:0.039" fill="#f7f2e2" d="M 76.5,275.5 C 73.9122,277.625 70.9122,278.958 67.5,279.5C 70.0878,277.375 73.0878,276.042 76.5,275.5 Z"/></g>
<g><path style="opacity:0.007" fill="#faf6ec" d="M 124.5,279.5 C 120.5,280.833 116.5,282.167 112.5,283.5C 116.11,280.33 120.11,278.997 124.5,279.5 Z"/></g>
<g><path style="opacity:0.006" fill="#f8f4e7" d="M 104.5,279.5 C 103.22,280.931 101.553,281.598 99.5,281.5C 100.78,280.069 102.447,279.402 104.5,279.5 Z"/></g>
<g><path style="opacity:0.997" fill="#d0b24c" d="M 124.5,279.5 C 125.647,283.646 125.814,287.98 125,292.5C 124.8,294.32 123.966,295.653 122.5,296.5C 119.759,296.707 117.426,297.707 115.5,299.5C 114.486,300.674 113.153,301.34 111.5,301.5C 109.447,301.402 107.78,302.069 106.5,303.5C 104.847,303.66 103.514,304.326 102.5,305.5C 101.486,306.674 100.153,307.34 98.5,307.5C 96.4471,307.402 94.7804,308.069 93.5,309.5C 91.8185,311.008 89.8185,312.008 87.5,312.5C 84.7594,312.707 82.4261,313.707 80.5,315.5C 77.9122,317.625 74.9122,318.958 71.5,319.5C 69.847,319.66 68.5137,320.326 67.5,321.5C 66.4863,322.674 65.153,323.34 63.5,323.5C 60.0878,324.042 57.0878,325.375 54.5,327.5C 51.9122,329.625 48.9122,330.958 45.5,331.5C 43.847,331.66 42.5137,332.326 41.5,333.5C 39.8185,335.008 37.8185,336.008 35.5,336.5C 32.7594,336.707 30.4261,337.707 28.5,339.5C 25.9122,341.625 22.9122,342.958 19.5,343.5C 17.847,343.66 16.5137,344.326 15.5,345.5C 13.1515,347.341 10.4848,348.674 7.5,349.5C 5.44708,349.402 3.78041,350.069 2.5,351.5C 1.70951,352.401 0.709515,353.068 -0.5,353.5C -0.5,347.833 -0.5,342.167 -0.5,336.5C 5.70774,333.229 12.0411,330.229 18.5,327.5C 20.5529,327.598 22.2196,326.931 23.5,325.5C 27.4156,322.71 31.749,320.71 36.5,319.5C 38.153,319.34 39.4863,318.674 40.5,317.5C 42.8485,315.659 45.5152,314.326 48.5,313.5C 50.5529,313.598 52.2196,312.931 53.5,311.5C 57.8489,308.659 62.5156,306.326 67.5,304.5C 70.2406,304.293 72.5739,303.293 74.5,301.5C 76.1815,299.992 78.1815,298.992 80.5,298.5C 83.9122,297.958 86.9122,296.625 89.5,294.5C 92.5154,292.326 95.8487,290.659 99.5,289.5C 102.241,289.293 104.574,288.293 106.5,286.5C 108.181,284.992 110.181,283.992 112.5,283.5C 116.5,282.167 120.5,280.833 124.5,279.5 Z"/></g>
<g><path style="opacity:0.006" fill="#f7f2e2" d="M 61.5,282.5 C 59.8185,284.008 57.8185,285.008 55.5,285.5C 56.911,283.461 58.911,282.461 61.5,282.5 Z"/></g>
<g><path style="opacity:0.075" fill="#f8f3e4" d="M 89.5,286.5 C 87.5739,288.293 85.2406,289.293 82.5,289.5C 84.4261,287.707 86.7594,286.707 89.5,286.5 Z"/></g>
<g><path style="opacity:0.006" fill="#f9f5ea" d="M 106.5,286.5 C 104.574,288.293 102.241,289.293 99.5,289.5C 101.426,287.707 103.759,286.707 106.5,286.5 Z"/></g>
<g><path style="opacity:0.831" fill="#ead9a8" d="M 55.5,285.5 C 55.5,290.833 55.5,296.167 55.5,301.5C 52.9041,296.183 52.9041,290.849 55.5,285.5 Z"/></g>
<g><path style="opacity:0.09" fill="#f6f1df" d="M 74.5,293.5 C 73.2196,294.931 71.5529,295.598 69.5,295.5C 70.7804,294.069 72.4471,293.402 74.5,293.5 Z"/></g>
<g><path style="opacity:0.006" fill="#f9f5ea" d="M 69.5,295.5 C 68.713,297.104 67.3797,297.771 65.5,297.5C 66.5137,296.326 67.847,295.66 69.5,295.5 Z"/></g>
<g><path style="opacity:0.043" fill="#f7f2e1" d="M 89.5,294.5 C 86.9122,296.625 83.9122,297.958 80.5,298.5C 83.0878,296.375 86.0878,295.042 89.5,294.5 Z"/></g>
<g><path style="opacity:0.006" fill="#f9f5ea" d="M 122.5,296.5 C 120.574,298.293 118.241,299.293 115.5,299.5C 117.426,297.707 119.759,296.707 122.5,296.5 Z"/></g>
<g><path style="opacity:0.006" fill="#f9f5ea" d="M 74.5,301.5 C 72.5739,303.293 70.2406,304.293 67.5,304.5C 69.4261,302.707 71.7594,301.707 74.5,301.5 Z"/></g>
<g><path style="opacity:0.067" fill="#f7f2e3" d="M 111.5,301.5 C 110.22,302.931 108.553,303.598 106.5,303.5C 107.78,302.069 109.447,301.402 111.5,301.5 Z"/></g>
<g><path style="opacity:0.006" fill="#faf7ee" d="M 106.5,303.5 C 105.713,305.104 104.38,305.771 102.5,305.5C 103.514,304.326 104.847,303.66 106.5,303.5 Z"/></g>
<g><path style="opacity:0.996" fill="#d0b149" d="M 122.5,304.5 C 123.167,305.167 123.833,305.833 124.5,306.5C 125.833,311.5 125.833,316.5 124.5,321.5C 122.447,321.402 120.78,322.069 119.5,323.5C 118.486,324.674 117.153,325.34 115.5,325.5C 113.447,325.402 111.78,326.069 110.5,327.5C 109.486,328.674 108.153,329.34 106.5,329.5C 104.447,329.402 102.78,330.069 101.5,331.5C 100.486,332.674 99.153,333.34 97.5,333.5C 95.4471,333.402 93.7804,334.069 92.5,335.5C 91.4863,336.674 90.153,337.34 88.5,337.5C 85.0878,338.042 82.0878,339.375 79.5,341.5C 78.4863,342.674 77.153,343.34 75.5,343.5C 72.7594,343.707 70.4261,344.707 68.5,346.5C 67.4863,347.674 66.153,348.34 64.5,348.5C 61.7594,348.707 59.4261,349.707 57.5,351.5C 56.4863,352.674 55.153,353.34 53.5,353.5C 51.4471,353.402 49.7804,354.069 48.5,355.5C 45.9122,357.625 42.9122,358.958 39.5,359.5C 37.847,359.66 36.5137,360.326 35.5,361.5C 33.8185,363.008 31.8185,364.008 29.5,364.5C 26.7594,364.707 24.4261,365.707 22.5,367.5C 18.8178,370.008 14.8178,372.008 10.5,373.5C 8.44708,373.402 6.78041,374.069 5.5,375.5C 3.81853,377.008 1.81853,378.008 -0.5,378.5C -0.5,372.833 -0.5,367.167 -0.5,361.5C -0.166667,361.5 0.166667,361.5 0.5,361.5C 2.02694,361.573 3.02694,360.906 3.5,359.5C 3.83333,359.5 4.16667,359.5 4.5,359.5C 7.48479,358.674 10.1515,357.341 12.5,355.5C 14.8485,353.659 17.5152,352.326 20.5,351.5C 23.2406,351.293 25.5739,350.293 27.5,348.5C 28.5137,347.326 29.847,346.66 31.5,346.5C 35.5821,345.624 39.2488,343.957 42.5,341.5C 44.1815,339.992 46.1815,338.992 48.5,338.5C 51.2406,338.293 53.5739,337.293 55.5,335.5C 56.5137,334.326 57.847,333.66 59.5,333.5C 62.9122,332.958 65.9122,331.625 68.5,329.5C 69.5137,328.326 70.847,327.66 72.5,327.5C 75.9122,326.958 78.9122,325.625 81.5,323.5C 82.5137,322.326 83.847,321.66 85.5,321.5C 88.9122,320.958 91.9122,319.625 94.5,317.5C 95.5137,316.326 96.847,315.66 98.5,315.5C 101.912,314.958 104.912,313.625 107.5,311.5C 108.514,310.326 109.847,309.66 111.5,309.5C 114.912,308.958 117.912,307.625 120.5,305.5C 120.842,304.662 121.508,304.328 122.5,304.5 Z"/></g>
<g><path style="opacity:0.392" fill="#f2eacf" d="M 122.5,304.5 C 122.56,303.957 122.893,303.624 123.5,303.5C 124.386,304.325 124.719,305.325 124.5,306.5C 123.833,305.833 123.167,305.167 122.5,304.5 Z"/></g>
<g><path style="opacity:0.039" fill="#f9f5e8" d="M 360.5,333.5 C 360.5,345.167 360.5,356.833 360.5,368.5C 360.164,337.653 359.164,306.986 357.5,276.5C 357.811,275.522 358.478,274.855 359.5,274.5C 360.5,294.155 360.833,313.822 360.5,333.5 Z"/></g>
<g><path style="opacity:0.043" fill="#f7f2e1" d="M 120.5,305.5 C 117.912,307.625 114.912,308.958 111.5,309.5C 114.088,307.375 117.088,306.042 120.5,305.5 Z"/></g>
<g><path style="opacity:0.006" fill="#f9f5e8" d="M 98.5,307.5 C 97.2196,308.931 95.5529,309.598 93.5,309.5C 94.7804,308.069 96.4471,307.402 98.5,307.5 Z"/></g>
<g><path style="opacity:0.051" fill="#f6efdb" d="M 53.5,311.5 C 52.2196,312.931 50.5529,313.598 48.5,313.5C 49.7804,312.069 51.4471,311.402 53.5,311.5 Z"/></g>
<g><path style="opacity:0.075" fill="#f8f3e5" d="M 87.5,312.5 C 85.5739,314.293 83.2406,315.293 80.5,315.5C 82.4261,313.707 84.7594,312.707 87.5,312.5 Z"/></g>
<g><path style="opacity:0.043" fill="#f7f2e1" d="M 107.5,311.5 C 104.912,313.625 101.912,314.958 98.5,315.5C 101.088,313.375 104.088,312.042 107.5,311.5 Z"/></g>
<g><path style="opacity:0.431" fill="#f3eacf" d="M 40.5,317.5 C 39.4863,318.674 38.153,319.34 36.5,319.5C 37.287,317.896 38.6203,317.229 40.5,317.5 Z"/></g>
<g><path style="opacity:0.043" fill="#f7f2e1" d="M 94.5,317.5 C 91.9122,319.625 88.9122,320.958 85.5,321.5C 88.0878,319.375 91.0878,318.042 94.5,317.5 Z"/></g>
<g><path style="opacity:0.006" fill="#f9f6ec" d="M 71.5,319.5 C 70.713,321.104 69.3797,321.771 67.5,321.5C 68.5137,320.326 69.847,319.66 71.5,319.5 Z"/></g>
<g><path style="opacity:0.006" fill="#f9f6eb" d="M 124.5,321.5 C 123.22,322.931 121.553,323.598 119.5,323.5C 120.78,322.069 122.447,321.402 124.5,321.5 Z"/></g>
<g><path style="opacity:0.051" fill="#f6efdc" d="M 23.5,325.5 C 22.2196,326.931 20.5529,327.598 18.5,327.5C 19.7804,326.069 21.4471,325.402 23.5,325.5 Z"/></g>
<g><path style="opacity:0.043" fill="#f7f1e1" d="M 81.5,323.5 C 78.9122,325.625 75.9122,326.958 72.5,327.5C 75.0878,325.375 78.0878,324.042 81.5,323.5 Z"/></g>
<g><path style="opacity:0.006" fill="#f9f5ea" d="M 63.5,323.5 C 60.9122,325.625 57.9122,326.958 54.5,327.5C 57.0878,325.375 60.0878,324.042 63.5,323.5 Z"/></g>
<g><path style="opacity:0.006" fill="#f9f5ea" d="M 115.5,325.5 C 114.22,326.931 112.553,327.598 110.5,327.5C 111.78,326.069 113.447,325.402 115.5,325.5 Z"/></g>
<g><path style="opacity:0.006" fill="#f9f5e9" d="M 106.5,329.5 C 105.22,330.931 103.553,331.598 101.5,331.5C 102.78,330.069 104.447,329.402 106.5,329.5 Z"/></g>
<g><path style="opacity:0.039" fill="#f6f0de" d="M 120.5,330.5 C 119.22,331.931 117.553,332.598 115.5,332.5C 116.78,331.069 118.447,330.402 120.5,330.5 Z"/></g>
<g><path style="opacity:0.997" fill="#d0b24a" d="M 109.5,352.5 C 106.759,352.707 104.426,353.707 102.5,355.5C 100.151,357.341 97.4848,358.674 94.5,359.5C 92.4471,359.402 90.7804,360.069 89.5,361.5C 87.847,361.66 86.5137,362.326 85.5,363.5C 82.9122,365.625 79.9122,366.958 76.5,367.5C 74.847,367.66 73.5137,368.326 72.5,369.5C 70.8185,371.008 68.8185,372.008 66.5,372.5C 63.7594,372.707 61.4261,373.707 59.5,375.5C 57.8185,377.008 55.8185,378.008 53.5,378.5C 50.0878,379.042 47.0878,380.375 44.5,382.5C 43.4863,383.674 42.153,384.34 40.5,384.5C 37.7594,384.707 35.4261,385.707 33.5,387.5C 31.8185,389.008 29.8185,390.008 27.5,390.5C 24.7594,390.707 22.4261,391.707 20.5,393.5C 18.8185,395.008 16.8185,396.008 14.5,396.5C 11.7594,396.707 9.42611,397.707 7.5,399.5C 5.15146,401.341 2.48479,402.674 -0.5,403.5C -0.5,397.833 -0.5,392.167 -0.5,386.5C 3.04319,384.562 6.70986,382.895 10.5,381.5C 13.9122,380.958 16.9122,379.625 19.5,377.5C 20.5137,376.326 21.847,375.66 23.5,375.5C 26.9122,374.958 29.9122,373.625 32.5,371.5C 34.1815,369.992 36.1815,368.992 38.5,368.5C 42.5821,367.624 46.2488,365.957 49.5,363.5C 49.8417,362.662 50.5084,362.328 51.5,362.5C 55.5821,361.624 59.2488,359.957 62.5,357.5C 63.5137,356.326 64.847,355.66 66.5,355.5C 70.5821,354.624 74.2488,352.957 77.5,350.5C 78.5137,349.326 79.847,348.66 81.5,348.5C 86.251,347.29 90.5844,345.29 94.5,342.5C 95.5137,341.326 96.847,340.66 98.5,340.5C 102.582,339.624 106.249,337.957 109.5,335.5C 111.181,333.992 113.181,332.992 115.5,332.5C 117.553,332.598 119.22,331.931 120.5,330.5C 123.234,329.016 124.734,330.016 125,333.5C 125.658,337.572 125.325,341.572 124,345.5C 119.374,348.229 114.541,350.563 109.5,352.5 Z"/></g>
<g><path style="opacity:0.043" fill="#f7f2e1" d="M 68.5,329.5 C 65.9122,331.625 62.9122,332.958 59.5,333.5C 62.0878,331.375 65.0878,330.042 68.5,329.5 Z"/></g>
<g><path style="opacity:0.006" fill="#f9f6ea" d="M 45.5,331.5 C 44.713,333.104 43.3797,333.771 41.5,333.5C 42.5137,332.326 43.847,331.66 45.5,331.5 Z"/></g>
<g><path style="opacity:0.006" fill="#f9f5e9" d="M 97.5,333.5 C 96.2196,334.931 94.5529,335.598 92.5,335.5C 93.7804,334.069 95.4471,333.402 97.5,333.5 Z"/></g>
<g><path style="opacity:0.718" fill="#eadbab" d="M 212.5,86.5 C 212.5,209.5 212.5,332.5 212.5,455.5C 212.5,455.833 212.5,456.167 212.5,456.5C 211.711,456.217 211.044,455.717 210.5,455C 210.484,332.205 211.15,209.372 212.5,86.5 Z"/></g>
<g><path style="opacity:0.006" fill="#f9f6eb" d="M 55.5,335.5 C 53.5739,337.293 51.2406,338.293 48.5,338.5C 50.4261,336.707 52.7594,335.707 55.5,335.5 Z"/></g>
<g><path style="opacity:0.006" fill="#f8f4e7" d="M 109.5,335.5 C 106.249,337.957 102.582,339.624 98.5,340.5C 101.751,338.043 105.418,336.376 109.5,335.5 Z"/></g>
<g><path style="opacity:0.075" fill="#f8f3e4" d="M 35.5,336.5 C 33.5739,338.293 31.2406,339.293 28.5,339.5C 30.4261,337.707 32.7594,336.707 35.5,336.5 Z"/></g>
<g><path style="opacity:0.006" fill="#f9f5ea" d="M 88.5,337.5 C 85.9122,339.625 82.9122,340.958 79.5,341.5C 82.0878,339.375 85.0878,338.042 88.5,337.5 Z"/></g>
<g><path style="opacity:0.006" fill="#f9f5e9" d="M 42.5,341.5 C 39.2488,343.957 35.5821,345.624 31.5,346.5C 34.7512,344.043 38.4179,342.376 42.5,341.5 Z"/></g>
<g><path style="opacity:0.006" fill="#f9f5e8" d="M 94.5,342.5 C 90.5844,345.29 86.251,347.29 81.5,348.5C 85.4156,345.71 89.749,343.71 94.5,342.5 Z"/></g>
<g><path style="opacity:0.89" fill="#d5ba5d" d="M 227.5,181.5 C 228.499,272.665 228.833,363.998 228.5,455.5C 223.36,456.488 218.026,456.821 212.5,456.5C 212.5,456.167 212.5,455.833 212.5,455.5C 217.5,455.5 222.5,455.5 227.5,455.5C 227.5,364.167 227.5,272.833 227.5,181.5 Z"/></g>
<g><path style="opacity:0.006" fill="#f8f3e5" d="M 19.5,343.5 C 18.713,345.104 17.3797,345.771 15.5,345.5C 16.5137,344.326 17.847,343.66 19.5,343.5 Z"/></g>
<g><path style="opacity:0.006" fill="#f9f5ea" d="M 75.5,343.5 C 73.5739,345.293 71.2406,346.293 68.5,346.5C 70.4261,344.707 72.7594,343.707 75.5,343.5 Z"/></g>
<g><path style="opacity:0.006" fill="#f9f6eb" d="M 27.5,348.5 C 25.5739,350.293 23.2406,351.293 20.5,351.5C 22.4261,349.707 24.7594,348.707 27.5,348.5 Z"/></g>
<g><path style="opacity:0.067" fill="#f7f2e3" d="M 7.5,349.5 C 6.21959,350.931 4.55292,351.598 2.5,351.5C 3.78041,350.069 5.44708,349.402 7.5,349.5 Z"/></g>
<g><path style="opacity:0.006" fill="#f9f5ea" d="M 64.5,348.5 C 62.5739,350.293 60.2406,351.293 57.5,351.5C 59.4261,349.707 61.7594,348.707 64.5,348.5 Z"/></g>
<g><path style="opacity:0.006" fill="#f8f5e8" d="M 77.5,350.5 C 74.2488,352.957 70.5821,354.624 66.5,355.5C 69.7512,353.043 73.4179,351.376 77.5,350.5 Z"/></g>
<g><path style="opacity:0.082" fill="#f8f2e3" d="M 109.5,352.5 C 107.574,354.293 105.241,355.293 102.5,355.5C 104.426,353.707 106.759,352.707 109.5,352.5 Z"/></g>
<g><path style="opacity:0.863" fill="#d9c06c" d="M 177.5,284.5 C 178.499,341.331 178.832,398.331 178.5,455.5C 172.69,456.49 166.69,456.823 160.5,456.5C 159.276,450.16 159.276,443.827 160.5,437.5C 160.168,402.329 160.502,367.329 161.5,332.5C 161.5,373.5 161.5,414.5 161.5,455.5C 166.833,455.5 172.167,455.5 177.5,455.5C 177.5,398.5 177.5,341.5 177.5,284.5 Z"/></g>
<g><path style="opacity:0.006" fill="#f8f4e7" d="M 53.5,353.5 C 52.2196,354.931 50.5529,355.598 48.5,355.5C 49.7804,354.069 51.4471,353.402 53.5,353.5 Z"/></g>
<g><path style="opacity:0.006" fill="#f8f5e8" d="M 120.5,355.5 C 117.249,357.957 113.582,359.624 109.5,360.5C 112.751,358.043 116.418,356.376 120.5,355.5 Z"/></g>
<g><path style="opacity:0.997" fill="#d0b149" d="M 122.5,354.5 C 123.222,354.918 123.722,355.584 124,356.5C 124.499,360.486 124.666,364.486 124.5,368.5C 124.737,369.791 124.404,370.791 123.5,371.5C 121.447,371.402 119.78,372.069 118.5,373.5C 116.151,375.341 113.485,376.674 110.5,377.5C 108.447,377.402 106.78,378.069 105.5,379.5C 103.847,379.66 102.514,380.326 101.5,381.5C 100.486,382.674 99.153,383.34 97.5,383.5C 94.0878,384.042 91.0878,385.375 88.5,387.5C 87.4863,388.674 86.153,389.34 84.5,389.5C 82.4471,389.402 80.7804,390.069 79.5,391.5C 76.4846,393.674 73.1513,395.341 69.5,396.5C 66.7594,396.707 64.4261,397.707 62.5,399.5C 59.4846,401.674 56.1513,403.341 52.5,404.5C 49.7594,404.707 47.4261,405.707 45.5,407.5C 41.1511,410.341 36.4844,412.674 31.5,414.5C 27.4179,415.376 23.7512,417.043 20.5,419.5C 13.9216,423.589 6.92164,426.922 -0.5,429.5C -0.5,423.5 -0.5,417.5 -0.5,411.5C -0.166667,411.5 0.166667,411.5 0.5,411.5C 2.15298,411.34 3.48631,410.674 4.5,409.5C 5.51369,408.326 6.84702,407.66 8.5,407.5C 11.9122,406.958 14.9122,405.625 17.5,403.5C 18.5137,402.326 19.847,401.66 21.5,401.5C 24.9122,400.958 27.9122,399.625 30.5,397.5C 32.1815,395.992 34.1815,394.992 36.5,394.5C 39.2406,394.293 41.5739,393.293 43.5,391.5C 44.5137,390.326 45.847,389.66 47.5,389.5C 50.9122,388.958 53.9122,387.625 56.5,385.5C 56.8417,384.662 57.5084,384.328 58.5,384.5C 62.5821,383.624 66.2488,381.957 69.5,379.5C 71.1815,377.992 73.1815,376.992 75.5,376.5C 79.5821,375.624 83.2488,373.957 86.5,371.5C 88.1815,369.992 90.1815,368.992 92.5,368.5C 96.5821,367.624 100.249,365.957 103.5,363.5C 105.181,361.992 107.181,360.992 109.5,360.5C 113.582,359.624 117.249,357.957 120.5,355.5C 120.842,354.662 121.508,354.328 122.5,354.5 Z"/></g>
<g><path style="opacity:0.007" fill="#fbf8f1" d="M 122.5,354.5 C 123.566,353.308 124.399,353.641 125,355.5C 125.814,360.02 125.647,364.354 124.5,368.5C 124.666,364.486 124.499,360.486 124,356.5C 123.722,355.584 123.222,354.918 122.5,354.5 Z"/></g>
<g><path style="opacity:0.043" fill="#f7f1e1" d="M 12.5,355.5 C 10.1515,357.341 7.48479,358.674 4.5,359.5C 6.57919,357.127 9.24586,355.794 12.5,355.5 Z"/></g>
<g><path style="opacity:0.006" fill="#f9f5ea" d="M 62.5,357.5 C 59.2488,359.957 55.5821,361.624 51.5,362.5C 54.7512,360.043 58.4179,358.376 62.5,357.5 Z"/></g>
<g><path style="opacity:0.067" fill="#f7f2e3" d="M 94.5,359.5 C 93.2196,360.931 91.5529,361.598 89.5,361.5C 90.7804,360.069 92.4471,359.402 94.5,359.5 Z"/></g>
<g><path style="opacity:0.6" fill="#ede1b9" d="M 3.5,359.5 C 3.02694,360.906 2.02694,361.573 0.5,361.5C 0.973056,360.094 1.97306,359.427 3.5,359.5 Z"/></g>
<g><path style="opacity:0.006" fill="#f9f5e9" d="M 39.5,359.5 C 38.713,361.104 37.3797,361.771 35.5,361.5C 36.5137,360.326 37.847,359.66 39.5,359.5 Z"/></g>
<g><path style="opacity:0.006" fill="#f9f6ed" d="M 89.5,361.5 C 88.713,363.104 87.3797,363.771 85.5,363.5C 86.5137,362.326 87.847,361.66 89.5,361.5 Z"/></g>
<g><path style="opacity:0.006" fill="#faf6ec" d="M 49.5,363.5 C 46.2488,365.957 42.5821,367.624 38.5,368.5C 41.7512,366.043 45.4179,364.376 49.5,363.5 Z"/></g>
<g><path style="opacity:0.006" fill="#f9f4e8" d="M 103.5,363.5 C 100.249,365.957 96.5821,367.624 92.5,368.5C 95.7512,366.043 99.4179,364.376 103.5,363.5 Z"/></g>
<g><path style="opacity:0.007" fill="#f6f0db" d="M 136.5,122.5 C 136.5,233.833 136.5,345.167 136.5,456.5C 135.353,432.508 134.686,408.342 134.5,384C 135.079,296.668 135.745,209.501 136.5,122.5 Z"/></g>
<g><path style="opacity:0.775" fill="#e8d7a2" d="M 278.5,55.5 C 280.024,188.553 280.524,321.886 280,455.5C 274.259,456.475 268.425,456.808 262.5,456.5C 262.5,456.167 262.5,455.833 262.5,455.5C 267.833,455.5 273.167,455.5 278.5,455.5C 278.5,322.167 278.5,188.833 278.5,55.5 Z"/></g>
<g><path style="opacity:0.075" fill="#f8f3e4" d="M 29.5,364.5 C 27.5739,366.293 25.2406,367.293 22.5,367.5C 24.4261,365.707 26.7594,364.707 29.5,364.5 Z"/></g>
<g><path style="opacity:0.006" fill="#f9f5ea" d="M 76.5,367.5 C 75.713,369.104 74.3797,369.771 72.5,369.5C 73.5137,368.326 74.847,367.66 76.5,367.5 Z"/></g>
<g><path style="opacity:0.006" fill="#f8f4e7" d="M 86.5,371.5 C 83.2488,373.957 79.5821,375.624 75.5,376.5C 78.7512,374.043 82.4179,372.376 86.5,371.5 Z"/></g>
<g><path style="opacity:0.071" fill="#f7f2e2" d="M 123.5,371.5 C 122.22,372.931 120.553,373.598 118.5,373.5C 119.78,372.069 121.447,371.402 123.5,371.5 Z"/></g>
<g><path style="opacity:0.075" fill="#f8f3e4" d="M 66.5,372.5 C 64.5739,374.293 62.2406,375.293 59.5,375.5C 61.4261,373.707 63.7594,372.707 66.5,372.5 Z"/></g>
<g><path style="opacity:0.082" fill="#f7f1e0" d="M 10.5,373.5 C 9.21959,374.931 7.55292,375.598 5.5,375.5C 6.78041,374.069 8.44708,373.402 10.5,373.5 Z"/></g>
<g><path style="opacity:0.043" fill="#f7f1e0" d="M 32.5,371.5 C 29.9122,373.625 26.9122,374.958 23.5,375.5C 26.0878,373.375 29.0878,372.042 32.5,371.5 Z"/></g>
<g><path style="opacity:0.075" fill="#f7f2e2" d="M 110.5,377.5 C 109.22,378.931 107.553,379.598 105.5,379.5C 106.78,378.069 108.447,377.402 110.5,377.5 Z"/></g>
<g><path style="opacity:0.039" fill="#f7f2e2" d="M 19.5,377.5 C 16.9122,379.625 13.9122,380.958 10.5,381.5C 13.0878,379.375 16.0878,378.042 19.5,377.5 Z"/></g>
<g><path style="opacity:0.006" fill="#f8f4e6" d="M 69.5,379.5 C 66.2488,381.957 62.5821,383.624 58.5,384.5C 61.7512,382.043 65.4179,380.376 69.5,379.5 Z"/></g>
<g><path style="opacity:0.006" fill="#f9f6ec" d="M 105.5,379.5 C 104.713,381.104 103.38,381.771 101.5,381.5C 102.514,380.326 103.847,379.66 105.5,379.5 Z"/></g>
<g><path style="opacity:0.999" fill="#ccad3c" d="M 124.5,456.5 C 82.8333,456.5 41.1667,456.5 -0.5,456.5C -0.5,449.833 -0.5,443.167 -0.5,436.5C 3.5,434.833 7.5,433.167 11.5,431.5C 14.9122,430.958 17.9122,429.625 20.5,427.5C 22.1815,425.992 24.1815,424.992 26.5,424.5C 29.9122,423.958 32.9122,422.625 35.5,420.5C 36.5137,419.326 37.847,418.66 39.5,418.5C 42.2406,418.293 44.5739,417.293 46.5,415.5C 48.1815,413.992 50.1815,412.992 52.5,412.5C 55.9122,411.958 58.9122,410.625 61.5,408.5C 62.5137,407.326 63.847,406.66 65.5,406.5C 69.5821,405.624 73.2488,403.957 76.5,401.5C 78.1815,399.992 80.1815,398.992 82.5,398.5C 87.251,397.29 91.5844,395.29 95.5,392.5C 96.5137,391.326 97.847,390.66 99.5,390.5C 103.582,389.624 107.249,387.957 110.5,385.5C 112.181,383.992 114.181,382.992 116.5,382.5C 118.677,382.414 120.677,381.747 122.5,380.5C 122.833,383 123.167,385.5 123.5,388C 124.418,410.822 124.751,433.656 124.5,456.5 Z"/></g>
<g><path style="opacity:0.006" fill="#f9f5ea" d="M 53.5,378.5 C 50.9122,380.625 47.9122,381.958 44.5,382.5C 47.0878,380.375 50.0878,379.042 53.5,378.5 Z"/></g>
<g><path style="opacity:0.071" fill="#f8f3e4" d="M 40.5,384.5 C 38.5739,386.293 36.2406,387.293 33.5,387.5C 35.4261,385.707 37.7594,384.707 40.5,384.5 Z"/></g>
<g><path style="opacity:0.006" fill="#f9f6eb" d="M 56.5,385.5 C 53.9122,387.625 50.9122,388.958 47.5,389.5C 50.0878,387.375 53.0878,386.042 56.5,385.5 Z"/></g>
<g><path style="opacity:0.006" fill="#f8f4e6" d="M 110.5,385.5 C 107.249,387.957 103.582,389.624 99.5,390.5C 102.751,388.043 106.418,386.376 110.5,385.5 Z"/></g>
<g><path style="opacity:0.006" fill="#f9f5e9" d="M 97.5,383.5 C 94.9122,385.625 91.9122,386.958 88.5,387.5C 91.0878,385.375 94.0878,384.042 97.5,383.5 Z"/></g>
<g><path style="opacity:0.09" fill="#f6f1df" d="M 84.5,389.5 C 83.2196,390.931 81.5529,391.598 79.5,391.5C 80.7804,390.069 82.4471,389.402 84.5,389.5 Z"/></g>
<g><path style="opacity:0.075" fill="#f8f3e5" d="M 27.5,390.5 C 25.5739,392.293 23.2406,393.293 20.5,393.5C 22.4261,391.707 24.7594,390.707 27.5,390.5 Z"/></g>
<g><path style="opacity:0.006" fill="#f9f6eb" d="M 43.5,391.5 C 41.5739,393.293 39.2406,394.293 36.5,394.5C 38.4261,392.707 40.7594,391.707 43.5,391.5 Z"/></g>
<g><path style="opacity:0.006" fill="#f9f5ea" d="M 95.5,392.5 C 91.5844,395.29 87.251,397.29 82.5,398.5C 86.4156,395.71 90.749,393.71 95.5,392.5 Z"/></g>
<g><path style="opacity:0.067" fill="#f8f3e5" d="M 14.5,396.5 C 12.5739,398.293 10.2406,399.293 7.5,399.5C 9.42611,397.707 11.7594,396.707 14.5,396.5 Z"/></g>
<g><path style="opacity:0.006" fill="#f9f5e9" d="M 69.5,396.5 C 67.5739,398.293 65.2406,399.293 62.5,399.5C 64.4261,397.707 66.7594,396.707 69.5,396.5 Z"/></g>
<g><path style="opacity:0.043" fill="#f7f2e2" d="M 30.5,397.5 C 27.9122,399.625 24.9122,400.958 21.5,401.5C 24.0878,399.375 27.0878,398.042 30.5,397.5 Z"/></g>
<g><path style="opacity:0.006" fill="#f9f5e9" d="M 76.5,401.5 C 73.2488,403.957 69.5821,405.624 65.5,406.5C 68.7512,404.043 72.4179,402.376 76.5,401.5 Z"/></g>
<g><path style="opacity:0.063" fill="#f8f3e4" d="M 52.5,404.5 C 50.5739,406.293 48.2406,407.293 45.5,407.5C 47.4261,405.707 49.7594,404.707 52.5,404.5 Z"/></g>
<g><path style="opacity:0.051" fill="#f7f1e0" d="M 17.5,403.5 C 14.9122,405.625 11.9122,406.958 8.5,407.5C 11.0878,405.375 14.0878,404.042 17.5,403.5 Z"/></g>
<g><path style="opacity:0.193" fill="#f5efd9" d="M 124.5,456.5 C 124.751,433.656 124.418,410.822 123.5,388C 123.167,385.5 122.833,383 122.5,380.5C 120.677,381.747 118.677,382.414 116.5,382.5C 119.046,380.153 121.879,379.153 125,379.5C 125.173,400.74 125.673,421.906 126.5,443C 125.858,447.601 125.191,452.101 124.5,456.5 Z"/></g>
<g><path style="opacity:0.006" fill="#faf7ee" d="M 61.5,408.5 C 58.9122,410.625 55.9122,411.958 52.5,412.5C 55.0878,410.375 58.0878,409.042 61.5,408.5 Z"/></g>
<g><path style="opacity:0.388" fill="#f4eed7" d="M 4.5,409.5 C 3.48631,410.674 2.15298,411.34 0.5,411.5C 1.28696,409.896 2.6203,409.229 4.5,409.5 Z"/></g>
<g><path style="opacity:0.006" fill="#f9f6eb" d="M 46.5,415.5 C 44.5739,417.293 42.2406,418.293 39.5,418.5C 41.4261,416.707 43.7594,415.707 46.5,415.5 Z"/></g>
<g><path style="opacity:0.006" fill="#f9f5e9" d="M 31.5,414.5 C 28.2488,416.957 24.5821,418.624 20.5,419.5C 23.7512,417.043 27.4179,415.376 31.5,414.5 Z"/></g>
<g><path style="opacity:0.722" fill="#eddeb2" d="M 287.5,64.5 C 287.5,91.1667 287.5,117.833 287.5,144.5C 287.5,248.167 287.5,351.833 287.5,455.5C 297.5,455.5 307.5,455.5 317.5,455.5C 317.14,403.323 317.806,351.323 319.5,299.5C 319.308,351.994 318.975,404.328 318.5,456.5C 307.833,456.5 297.167,456.5 286.5,456.5C 286.167,325.666 286.5,194.999 287.5,64.5 Z"/></g>
<g><path style="opacity:0.006" fill="#faf8ef" d="M 35.5,420.5 C 32.9122,422.625 29.9122,423.958 26.5,424.5C 29.0878,422.375 32.0878,421.042 35.5,420.5 Z"/></g>
<g><path style="opacity:0.006" fill="#f9f6ea" d="M 20.5,427.5 C 17.9122,429.625 14.9122,430.958 11.5,431.5C 14.0878,429.375 17.0878,428.042 20.5,427.5 Z"/></g>
<g><path style="opacity:0.767" fill="#dfcb84" d="M 390.5,251.5 C 390.5,258.167 390.5,264.833 390.5,271.5C 390.5,333.167 390.5,394.833 390.5,456.5C 380.5,456.5 370.5,456.5 360.5,456.5C 360.5,427.167 360.5,397.833 360.5,368.5C 360.5,356.833 360.5,345.167 360.5,333.5C 361.499,373.997 361.832,414.663 361.5,455.5C 370.833,455.5 380.167,455.5 389.5,455.5C 389.167,387.331 389.501,319.331 390.5,251.5 Z"/></g>
</svg>
