<svg xmlns="http://www.w3.org/2000/svg" xmlns:xlink="http://www.w3.org/1999/xlink" width="500" zoomAndPan="magnify" viewBox="0 0 375 374.999991" height="500" preserveAspectRatio="xMidYMid meet" version="1.0"><defs><clipPath id="c2c6700a72"><path d="M 24.421875 0.933594 L 350.671875 0.933594 L 350.671875 375 L 24.421875 375 Z M 24.421875 0.933594 " clip-rule="nonzero"/></clipPath><clipPath id="900f40cd2b"><path d="M 306 91 L 350.671875 91 L 350.671875 271 L 306 271 Z M 306 91 " clip-rule="nonzero"/></clipPath><clipPath id="f1fcc064e2"><path d="M 24.421875 154 L 106 154 L 106 202 L 24.421875 202 Z M 24.421875 154 " clip-rule="nonzero"/></clipPath><clipPath id="b86e56bd2e"><path d="M 24.421875 170 L 106 170 L 106 219 L 24.421875 219 Z M 24.421875 170 " clip-rule="nonzero"/></clipPath><clipPath id="2539e08b07"><path d="M 24.421875 187 L 106 187 L 106 235 L 24.421875 235 Z M 24.421875 187 " clip-rule="nonzero"/></clipPath><clipPath id="86a1710a75"><path d="M 24.421875 203 L 106 203 L 106 252 L 24.421875 252 Z M 24.421875 203 " clip-rule="nonzero"/></clipPath><clipPath id="1bbb4c8418"><path d="M 24.421875 219 L 106 219 L 106 271 L 24.421875 271 Z M 24.421875 219 " clip-rule="nonzero"/></clipPath><clipPath id="63cd147a03"><path d="M 24.421875 218 L 107 218 L 107 271 L 24.421875 271 Z M 24.421875 218 " clip-rule="nonzero"/></clipPath></defs><rect x="-37.5" width="450" fill="#ffffff" y="-37.499999" height="449.999989" fill-opacity="1"/><rect x="-37.5" width="450" fill="#ffffff" y="-37.499999" height="449.999989" fill-opacity="1"/><g clip-path="url(#c2c6700a72)"><path fill="#fefefe" d="M -166.082031 -133.0625 C 70.167969 -133.0625 306.417969 -133.0625 542.667969 -133.0625 C 542.667969 103.1875 542.667969 339.4375 542.667969 575.6875 C 306.417969 575.6875 70.167969 575.6875 -166.082031 575.6875 C -166.082031 339.4375 -166.082031 103.1875 -166.082031 -133.0625 Z M -166.082031 -133.0625 " fill-opacity="1" fill-rule="evenodd"/></g><path fill="#ccac39" d="M 219.003906 1.601562 C 220.667969 1.453125 222.246094 1.746094 223.730469 2.484375 C 251.191406 20.894531 278.65625 39.300781 306.121094 57.710938 C 306.515625 68.734375 306.515625 79.757812 306.121094 90.785156 C 296.867188 96.492188 287.617188 102.203125 278.363281 107.914062 C 278.066406 162.054688 277.96875 216.195312 278.066406 270.335938 C 271.765625 270.335938 265.46875 270.335938 259.167969 270.335938 C 259.363281 230.5625 259.167969 190.796875 258.574219 151.027344 C 249.570312 156.464844 240.609375 161.980469 231.703125 167.566406 C 231.40625 201.820312 231.308594 236.078125 231.40625 270.335938 C 224.714844 270.335938 218.019531 270.335938 211.324219 270.335938 C 211.226562 182.132812 211.324219 93.933594 211.621094 5.734375 C 214.167969 4.414062 216.628906 3.035156 219.003906 1.601562 Z M 219.003906 1.601562 " fill-opacity="1" fill-rule="evenodd"/><path fill="#ccac3b" d="M 206.011719 270.335938 C 202.269531 270.335938 198.527344 270.335938 194.789062 270.335938 C 194.789062 184.695312 194.789062 99.054688 194.789062 13.414062 C 198.367188 11.957031 201.910156 10.378906 205.417969 8.6875 C 206.011719 95.902344 206.207031 183.117188 206.011719 270.335938 Z M 206.011719 270.335938 " fill-opacity="1" fill-rule="evenodd"/><path fill="#f5f0dd" d="M 194.789062 13.414062 C 194.789062 99.054688 194.789062 184.695312 194.789062 270.335938 C 198.527344 270.335938 202.269531 270.335938 206.011719 270.335938 C 202.183594 270.917969 198.246094 271.117188 194.199219 270.925781 C 194 184.988281 194.199219 99.152344 194.789062 13.414062 Z M 194.789062 13.414062 " fill-opacity="1" fill-rule="evenodd"/><path fill="#ccac39" d="M 189.472656 270.335938 C 185.734375 270.335938 181.992188 270.335938 178.25 270.335938 C 178.25 187.253906 178.25 104.171875 178.25 21.089844 C 181.78125 19.523438 185.324219 17.949219 188.882812 16.367188 C 189.472656 101.019531 189.667969 185.675781 189.472656 270.335938 Z M 189.472656 270.335938 " fill-opacity="1" fill-rule="evenodd"/><path fill="#f3ecd1" d="M 178.25 21.089844 C 178.25 104.171875 178.25 187.253906 178.25 270.335938 C 181.992188 270.335938 185.734375 270.335938 189.472656 270.335938 C 185.644531 270.917969 181.707031 271.117188 177.660156 270.925781 C 177.464844 187.546875 177.660156 104.269531 178.25 21.089844 Z M 178.25 21.089844 " fill-opacity="1" fill-rule="evenodd"/><path fill="#e7d9a4" d="M 172.34375 24.632812 C 172.378906 24.3125 172.578125 24.117188 172.933594 24.042969 C 173.722656 106.238281 173.722656 188.335938 172.933594 270.335938 C 173.132812 188.335938 172.933594 106.433594 172.34375 24.632812 Z M 172.34375 24.632812 " fill-opacity="1" fill-rule="evenodd"/><path fill="#ccac39" d="M 172.34375 24.632812 C 172.933594 106.433594 173.132812 188.335938 172.933594 270.335938 C 169.390625 270.335938 165.847656 270.335938 162.304688 270.335938 C 162.109375 189.8125 162.304688 109.289062 162.894531 28.769531 C 165.960938 27.15625 169.109375 25.78125 172.34375 24.632812 Z M 172.34375 24.632812 " fill-opacity="1" fill-rule="evenodd"/><path fill="#cdad3d" d="M 155.808594 31.722656 C 156.988281 111.058594 157.382812 190.597656 156.988281 270.335938 C 153.25 270.335938 149.507812 270.335938 145.765625 270.335938 C 145.667969 192.570312 145.765625 114.804688 146.0625 37.039062 C 149.394531 35.324219 152.644531 33.550781 155.808594 31.722656 Z M 155.808594 31.722656 " fill-opacity="1" fill-rule="evenodd"/><path fill="#ccac39" d="M 139.859375 39.398438 C 140.449219 116.28125 140.648438 193.257812 140.449219 270.335938 C 136.710938 270.335938 132.96875 270.335938 129.230469 270.335938 C 129.128906 195.128906 129.230469 119.921875 129.523438 44.714844 C 132.976562 42.839844 136.421875 41.070312 139.859375 39.398438 Z M 139.859375 39.398438 " fill-opacity="1" fill-rule="evenodd"/><path fill="#ccac39" d="M 123.914062 47.667969 C 123.914062 121.890625 123.914062 196.113281 123.914062 270.335938 C 120.371094 270.335938 116.824219 270.335938 113.28125 270.335938 C 113.28125 197.6875 113.28125 125.039062 113.28125 52.394531 C 116.824219 50.820312 120.371094 49.242188 123.914062 47.667969 Z M 123.914062 47.667969 " fill-opacity="1" fill-rule="evenodd"/><path fill="#e9dba8" d="M 113.28125 52.394531 C 113.28125 125.039062 113.28125 197.6875 113.28125 270.335938 C 116.824219 270.335938 120.371094 270.335938 123.914062 270.335938 C 123.914062 196.113281 123.914062 121.890625 123.914062 47.667969 C 124.503906 121.652344 124.699219 196.070312 124.503906 270.925781 C 120.566406 270.925781 116.628906 270.925781 112.691406 270.925781 C 112.496094 197.980469 112.691406 125.140625 113.28125 52.394531 Z M 113.28125 52.394531 " fill-opacity="1" fill-rule="evenodd"/><g clip-path="url(#900f40cd2b)"><path fill="#ccac39" d="M 306.417969 91.375 C 321.355469 109.03125 336.023438 126.949219 350.417969 145.121094 C 350.613281 184.890625 350.8125 224.660156 351.007812 264.429688 C 351.339844 266.457031 351.832031 268.425781 352.484375 270.335938 C 337.128906 270.335938 321.773438 270.335938 306.417969 270.335938 C 306.417969 210.679688 306.417969 151.027344 306.417969 91.375 Z M 306.417969 91.375 " fill-opacity="1" fill-rule="evenodd"/></g><path fill="#ccad3c" d="M 105.011719 104.960938 C 105.792969 108.414062 105.792969 111.957031 105.011719 115.589844 C 90.175781 122.320312 75.410156 129.210938 60.714844 136.261719 C 59.945312 132.785156 59.945312 129.339844 60.714844 125.925781 C 75.535156 118.910156 90.300781 111.921875 105.011719 104.960938 Z M 105.011719 104.960938 " fill-opacity="1" fill-rule="evenodd"/><path fill="#cdad3c" d="M 104.421875 121.496094 C 105.199219 122.921875 105.59375 124.597656 105.605469 126.515625 C 105.589844 128.339844 105.394531 130.113281 105.011719 131.832031 C 90.035156 138.585938 75.167969 145.574219 60.421875 152.800781 C 59.929688 149.238281 60.027344 145.695312 60.714844 142.167969 C 75.480469 135.570312 90.050781 128.683594 104.421875 121.496094 Z M 104.421875 121.496094 " fill-opacity="1" fill-rule="evenodd"/><path fill="#ccad3c" d="M 104.421875 138.035156 C 105.199219 139.460938 105.59375 141.132812 105.605469 143.054688 C 105.40625 144.726562 105.210938 146.402344 105.011719 148.074219 C 90.320312 155.128906 75.554688 162.019531 60.714844 168.746094 C 59.945312 165.269531 59.945312 161.824219 60.714844 158.410156 C 75.410156 151.75 89.980469 144.960938 104.421875 138.035156 Z M 104.421875 138.035156 " fill-opacity="1" fill-rule="evenodd"/><g clip-path="url(#f1fcc064e2)"><path fill="#ccad3c" d="M 103.832031 154.570312 C 104.421875 154.570312 105.011719 154.570312 105.605469 154.570312 C 105.796875 157.941406 105.601562 161.289062 105.011719 164.613281 C 78.054688 176.847656 51.183594 189.25 24.394531 201.820312 C 23.917969 198.328125 24.015625 194.882812 24.6875 191.484375 C 51.195312 179.3125 77.574219 167.007812 103.832031 154.570312 Z M 103.832031 154.570312 " fill-opacity="1" fill-rule="evenodd"/></g><g clip-path="url(#b86e56bd2e)"><path fill="#ccad3c" d="M 105.011719 170.519531 C 105.597656 173.949219 105.796875 177.492188 105.605469 181.148438 C 78.367188 193.144531 51.296875 205.546875 24.394531 218.359375 C 23.902344 214.800781 24 211.253906 24.6875 207.726562 C 51.523438 195.3125 78.300781 182.910156 105.011719 170.519531 Z M 105.011719 170.519531 " fill-opacity="1" fill-rule="evenodd"/></g><g clip-path="url(#2539e08b07)"><path fill="#ccad3c" d="M 104.421875 187.054688 C 105.199219 188.484375 105.59375 190.15625 105.605469 192.078125 C 105.40625 193.75 105.210938 195.421875 105.011719 197.097656 C 78.238281 209.5 51.464844 221.902344 24.6875 234.304688 C 23.902344 230.960938 23.902344 227.613281 24.6875 224.265625 C 51.378906 211.964844 77.957031 199.558594 104.421875 187.054688 Z M 104.421875 187.054688 " fill-opacity="1" fill-rule="evenodd"/></g><g clip-path="url(#86a1710a75)"><path fill="#ccad3c" d="M 105.011719 203.003906 C 105.792969 206.457031 105.792969 210 105.011719 213.632812 C 78.023438 225.996094 51.152344 238.597656 24.394531 251.433594 C 23.914062 247.742188 24.015625 244.101562 24.6875 240.507812 C 51.589844 228.140625 78.363281 215.636719 105.011719 203.003906 Z M 105.011719 203.003906 " fill-opacity="1" fill-rule="evenodd"/></g><g clip-path="url(#1bbb4c8418)"><path fill="#ccac39" d="M 105.011719 219.539062 C 105.601562 236.371094 105.800781 253.300781 105.605469 270.335938 C 78.433594 270.335938 51.265625 270.335938 24.097656 270.335938 C 24.097656 266.003906 24.097656 261.671875 24.097656 257.339844 C 51.140625 244.902344 78.113281 232.300781 105.011719 219.539062 Z M 105.011719 219.539062 " fill-opacity="1" fill-rule="evenodd"/></g><g clip-path="url(#63cd147a03)"><path fill="#f4edd4" d="M 105.011719 219.539062 C 105.050781 219.21875 105.246094 219.023438 105.605469 218.949219 C 106.195312 236.269531 106.390625 253.59375 106.195312 270.925781 C 78.632812 270.925781 51.070312 270.925781 23.507812 270.925781 C 23.316406 266.289062 23.511719 261.757812 24.097656 257.339844 C 24.097656 261.671875 24.097656 266.003906 24.097656 270.335938 C 51.265625 270.335938 78.433594 270.335938 105.605469 270.335938 C 105.800781 253.300781 105.601562 236.371094 105.011719 219.539062 Z M 105.011719 219.539062 " fill-opacity="1" fill-rule="evenodd"/></g><path fill="#e0bb71" d="M 181.792969 285.101562 C 186.324219 285.101562 190.851562 285.101562 195.378906 285.101562 C 195.476562 303.804688 195.378906 322.507812 195.082031 341.210938 C 194.210938 349.175781 189.78125 353.507812 181.792969 354.203125 C 181.792969 331.167969 181.792969 308.132812 181.792969 285.101562 Z M 181.792969 285.101562 " fill-opacity="1" fill-rule="evenodd"/><path fill="#e0bc72" d="M 107.964844 285.101562 C 116.480469 285.039062 119.335938 288.980469 116.53125 296.914062 C 111.472656 301.300781 107.140625 300.710938 103.535156 295.140625 C 102.449219 290.621094 103.925781 287.277344 107.964844 285.101562 Z M 107.964844 285.101562 " fill-opacity="1" fill-rule="evenodd"/><path fill="#e6c98d" d="M 86.703125 292.777344 C 85.71875 292.777344 84.734375 292.777344 83.75 292.777344 C 83.75 299.273438 83.75 305.773438 83.75 312.269531 C 88.082031 312.269531 92.414062 312.269531 96.746094 312.269531 C 92.324219 312.855469 87.796875 313.050781 83.160156 312.859375 C 83.160156 305.96875 83.160156 299.078125 83.160156 292.1875 C 84.480469 292.011719 85.660156 292.210938 86.703125 292.777344 Z M 86.703125 292.777344 " fill-opacity="1" fill-rule="evenodd"/><path fill="#e0bb70" d="M 74.890625 292.777344 C 75.875 292.777344 76.859375 292.777344 77.84375 292.777344 C 77.84375 305.179688 77.84375 317.585938 77.84375 329.988281 C 71.21875 329.371094 66.984375 325.828125 65.144531 319.355469 C 64.597656 313.011719 64.796875 306.710938 65.738281 300.457031 C 67.648438 296.472656 70.699219 293.914062 74.890625 292.777344 Z M 74.890625 292.777344 " fill-opacity="1" fill-rule="evenodd"/><path fill="#e7cb92" d="M 74.890625 292.777344 C 75.933594 292.210938 77.117188 292.011719 78.433594 292.1875 C 78.632812 304.890625 78.433594 317.488281 77.84375 329.988281 C 77.84375 317.585938 77.84375 305.179688 77.84375 292.777344 C 76.859375 292.777344 75.875 292.777344 74.890625 292.777344 Z M 74.890625 292.777344 " fill-opacity="1" fill-rule="evenodd"/><path fill="#e0bb70" d="M 86.703125 292.777344 C 91.59375 294.222656 94.84375 297.375 96.449219 302.226562 C 96.746094 305.570312 96.84375 308.917969 96.746094 312.269531 C 92.414062 312.269531 88.082031 312.269531 83.75 312.269531 C 83.75 305.773438 83.75 299.273438 83.75 292.777344 C 84.734375 292.777344 85.71875 292.777344 86.703125 292.777344 Z M 86.703125 292.777344 " fill-opacity="1" fill-rule="evenodd"/><path fill="#e0bc72" d="M 103.832031 305.773438 C 108.359375 305.773438 112.886719 305.773438 117.417969 305.773438 C 117.417969 321.914062 117.417969 338.058594 117.417969 354.203125 C 112.886719 354.203125 108.359375 354.203125 103.832031 354.203125 C 103.832031 338.058594 103.832031 321.914062 103.832031 305.773438 Z M 103.832031 305.773438 " fill-opacity="1" fill-rule="evenodd"/><path fill="#dfbb6f" d="M 124.503906 305.773438 C 129.03125 305.773438 133.558594 305.773438 138.089844 305.773438 C 138.089844 321.914062 138.089844 338.058594 138.089844 354.203125 C 133.558594 354.203125 129.03125 354.203125 124.503906 354.203125 C 124.503906 338.058594 124.503906 321.914062 124.503906 305.773438 Z M 124.503906 305.773438 " fill-opacity="1" fill-rule="evenodd"/><path fill="#e0bb71" d="M 241.449219 305.773438 C 245.976562 305.773438 250.503906 305.773438 255.03125 305.773438 C 255.03125 321.914062 255.03125 338.058594 255.03125 354.203125 C 250.503906 354.203125 245.976562 354.203125 241.449219 354.203125 C 241.449219 338.058594 241.449219 321.914062 241.449219 305.773438 Z M 241.449219 305.773438 " fill-opacity="1" fill-rule="evenodd"/><path fill="#e0bc72" d="M 143.402344 305.773438 C 150.234375 306.589844 154.664062 310.332031 156.691406 316.992188 C 156.988281 329.394531 157.085938 341.796875 156.988281 354.203125 C 152.460938 354.203125 147.933594 354.203125 143.402344 354.203125 C 143.402344 338.058594 143.402344 321.914062 143.402344 305.773438 Z M 143.402344 305.773438 " fill-opacity="1" fill-rule="evenodd"/><path fill="#e0bb71" d="M 173.527344 305.773438 C 174.511719 305.773438 175.496094 305.773438 176.480469 305.773438 C 176.480469 321.914062 176.480469 338.058594 176.480469 354.203125 C 169.84375 353.398438 165.414062 349.855469 163.191406 343.570312 C 162.796875 334.515625 162.796875 325.460938 163.191406 316.402344 C 164.773438 310.980469 168.21875 307.4375 173.527344 305.773438 Z M 173.527344 305.773438 " fill-opacity="1" fill-rule="evenodd"/><path fill="#e0bc72" d="M 213.097656 305.773438 C 214.277344 305.773438 215.460938 305.773438 216.640625 305.773438 C 216.640625 328.804688 216.640625 351.839844 216.640625 374.875 C 212.113281 374.875 207.585938 374.875 203.058594 374.875 C 202.957031 354.988281 203.058594 335.105469 203.351562 315.222656 C 205.382812 310.730469 208.632812 307.578125 213.097656 305.773438 Z M 213.097656 305.773438 " fill-opacity="1" fill-rule="evenodd"/><path fill="#e0bb70" d="M 221.367188 305.773438 C 228.214844 306.292969 232.644531 309.835938 234.65625 316.402344 C 235.050781 325.460938 235.050781 334.515625 234.65625 343.570312 C 232.761719 350.289062 228.332031 353.835938 221.367188 354.203125 C 221.367188 338.058594 221.367188 321.914062 221.367188 305.773438 Z M 221.367188 305.773438 " fill-opacity="1" fill-rule="evenodd"/><path fill="#e0bb71" d="M 260.347656 305.773438 C 266.980469 306.578125 271.410156 310.121094 273.636719 316.402344 C 273.933594 319.746094 274.03125 323.089844 273.933594 326.445312 C 269.402344 326.445312 264.875 326.445312 260.347656 326.445312 C 260.347656 319.554688 260.347656 312.664062 260.347656 305.773438 Z M 260.347656 305.773438 " fill-opacity="1" fill-rule="evenodd"/><path fill="#e0bc72" d="M 289.878906 305.773438 C 290.863281 305.773438 291.847656 305.773438 292.832031 305.773438 C 292.832031 321.914062 292.832031 338.058594 292.832031 354.203125 C 285.21875 353.183594 280.789062 348.851562 279.542969 341.210938 C 279.148438 333.136719 279.148438 325.066406 279.542969 316.992188 C 281.289062 311.609375 284.734375 307.867188 289.878906 305.773438 Z M 289.878906 305.773438 " fill-opacity="1" fill-rule="evenodd"/><path fill="#e0bb70" d="M 298.148438 305.773438 C 303.859375 306.269531 308.09375 309.027344 310.847656 314.039062 C 311.5 319.320312 311.796875 324.636719 311.730469 329.988281 C 311.632812 334.515625 311.535156 339.042969 311.4375 343.570312 C 309.425781 350.140625 304.996094 353.683594 298.148438 354.203125 C 298.148438 338.058594 298.148438 321.914062 298.148438 305.773438 Z M 298.148438 305.773438 " fill-opacity="1" fill-rule="evenodd"/><path fill="#e6c88c" d="M 86.113281 316.992188 C 85.328125 316.992188 84.539062 316.992188 83.75 316.992188 C 83.75 329.199219 83.75 341.40625 83.75 353.613281 C 84.539062 353.613281 85.328125 353.613281 86.113281 353.613281 C 85.277344 354.175781 84.292969 354.371094 83.160156 354.203125 C 83.160156 341.601562 83.160156 329.003906 83.160156 316.402344 C 84.292969 316.234375 85.277344 316.433594 86.113281 316.992188 Z M 86.113281 316.992188 " fill-opacity="1" fill-rule="evenodd"/><path fill="#e0bb70" d="M 86.113281 316.992188 C 90.65625 317.890625 93.90625 320.453125 95.859375 324.671875 C 96.800781 330.929688 96.996094 337.230469 96.449219 343.570312 C 95.039062 349.019531 91.59375 352.367188 86.113281 353.613281 C 85.328125 353.613281 84.539062 353.613281 83.75 353.613281 C 83.75 341.40625 83.75 329.199219 83.75 316.992188 C 84.539062 316.992188 85.328125 316.992188 86.113281 316.992188 Z M 86.113281 316.992188 " fill-opacity="1" fill-rule="evenodd"/><path fill="#e0bb71" d="M 64.851562 334.121094 C 69.183594 334.121094 73.515625 334.121094 77.84375 334.121094 C 77.84375 340.816406 77.84375 347.507812 77.84375 354.203125 C 71.199219 353.5625 66.964844 350.019531 65.144531 343.570312 C 64.851562 340.429688 64.753906 337.277344 64.851562 334.121094 Z M 64.851562 334.121094 " fill-opacity="1" fill-rule="evenodd"/><path fill="#e7ca91" d="M 64.851562 334.121094 C 69.269531 333.535156 73.796875 333.339844 78.433594 333.53125 C 78.628906 340.527344 78.433594 347.417969 77.84375 354.203125 C 77.84375 347.507812 77.84375 340.816406 77.84375 334.121094 C 73.515625 334.121094 69.183594 334.121094 64.851562 334.121094 Z M 64.851562 334.121094 " fill-opacity="1" fill-rule="evenodd"/></svg>