<?xml version="1.0" encoding="UTF-8"?>
<!DOCTYPE svg PUBLIC "-//W3C//DTD SVG 1.1//EN" "http://www.w3.org/Graphics/SVG/1.1/DTD/svg11.dtd">
<svg xmlns="http://www.w3.org/2000/svg" version="1.1" width="1200px" height="1200px" style="shape-rendering:geometricPrecision; text-rendering:geometricPrecision; image-rendering:optimizeQuality; fill-rule:evenodd; clip-rule:evenodd" xmlns:xlink="http://www.w3.org/1999/xlink">
<g><path style="opacity:1" fill="#fefefe" d="M -0.5,-0.5 C 399.5,-0.5 799.5,-0.5 1199.5,-0.5C 1199.5,399.5 1199.5,799.5 1199.5,1199.5C 799.5,1199.5 399.5,1199.5 -0.5,1199.5C -0.5,799.5 -0.5,399.5 -0.5,-0.5 Z"/></g>
<g><path style="opacity:1" fill="#ccac39" d="M 651.5,227.5 C 654.32,227.248 656.986,227.748 659.5,229C 706,260.167 752.5,291.333 799,322.5C 799.667,341.167 799.667,359.833 799,378.5C 783.333,388.167 767.667,397.833 752,407.5C 751.5,499.166 751.333,590.833 751.5,682.5C 740.833,682.5 730.167,682.5 719.5,682.5C 719.833,615.163 719.5,547.83 718.5,480.5C 703.25,489.708 688.083,499.041 673,508.5C 672.5,566.499 672.333,624.499 672.5,682.5C 661.167,682.5 649.833,682.5 638.5,682.5C 638.333,533.166 638.5,383.833 639,234.5C 643.31,232.266 647.476,229.932 651.5,227.5 Z"/></g>
<g><path style="opacity:1" fill="#ccac3b" d="M 629.5,682.5 C 623.167,682.5 616.833,682.5 610.5,682.5C 610.5,537.5 610.5,392.5 610.5,247.5C 616.559,245.033 622.559,242.366 628.5,239.5C 629.5,387.165 629.833,534.832 629.5,682.5 Z"/></g>
<g><path style="opacity:1" fill="#f5f0dd" d="M 610.5,247.5 C 610.5,392.5 610.5,537.5 610.5,682.5C 616.833,682.5 623.167,682.5 629.5,682.5C 623.021,683.491 616.354,683.824 609.5,683.5C 609.167,537.999 609.5,392.666 610.5,247.5 Z"/></g>
<g><path style="opacity:1" fill="#ccac39" d="M 601.5,682.5 C 595.167,682.5 588.833,682.5 582.5,682.5C 582.5,541.833 582.5,401.167 582.5,260.5C 588.478,257.845 594.478,255.179 600.5,252.5C 601.5,395.832 601.833,539.165 601.5,682.5 Z"/></g>
<g><path style="opacity:1" fill="#f3ecd1" d="M 582.5,260.5 C 582.5,401.167 582.5,541.833 582.5,682.5C 588.833,682.5 595.167,682.5 601.5,682.5C 595.021,683.491 588.354,683.824 581.5,683.5C 581.167,542.332 581.5,401.332 582.5,260.5 Z"/></g>
<g><path style="opacity:1" fill="#e7d9a4" d="M 572.5,266.5 C 572.56,265.957 572.893,265.624 573.5,265.5C 574.833,404.666 574.833,543.666 573.5,682.5C 573.833,543.666 573.5,404.999 572.5,266.5 Z"/></g>
<g><path style="opacity:1" fill="#ccac39" d="M 572.5,266.5 C 573.5,404.999 573.833,543.666 573.5,682.5C 567.5,682.5 561.5,682.5 555.5,682.5C 555.167,546.165 555.5,409.832 556.5,273.5C 561.692,270.772 567.025,268.439 572.5,266.5 Z"/></g>
<g><path style="opacity:1" fill="#cdad3d" d="M 544.5,278.5 C 546.498,412.829 547.165,547.496 546.5,682.5C 540.167,682.5 533.833,682.5 527.5,682.5C 527.333,550.833 527.5,419.166 528,287.5C 533.642,284.599 539.142,281.599 544.5,278.5 Z"/></g>
<g><path style="opacity:1" fill="#ccac39" d="M 517.5,291.5 C 518.5,421.666 518.833,551.999 518.5,682.5C 512.167,682.5 505.833,682.5 499.5,682.5C 499.333,555.166 499.5,427.833 500,300.5C 505.847,297.327 511.681,294.327 517.5,291.5 Z"/></g>
<g><path style="opacity:1" fill="#ccac39" d="M 490.5,305.5 C 490.5,431.167 490.5,556.833 490.5,682.5C 484.5,682.5 478.5,682.5 472.5,682.5C 472.5,559.5 472.5,436.5 472.5,313.5C 478.5,310.833 484.5,308.167 490.5,305.5 Z"/></g>
<g><path style="opacity:1" fill="#e9dba8" d="M 472.5,313.5 C 472.5,436.5 472.5,559.5 472.5,682.5C 478.5,682.5 484.5,682.5 490.5,682.5C 490.5,556.833 490.5,431.167 490.5,305.5C 491.5,430.763 491.833,556.763 491.5,683.5C 484.833,683.5 478.167,683.5 471.5,683.5C 471.167,559.999 471.5,436.666 472.5,313.5 Z"/></g>
<g><path style="opacity:1" fill="#ccac39" d="M 799.5,379.5 C 824.793,409.395 849.626,439.729 874,470.5C 874.333,537.833 874.667,605.167 875,672.5C 875.558,675.934 876.391,679.267 877.5,682.5C 851.5,682.5 825.5,682.5 799.5,682.5C 799.5,581.5 799.5,480.5 799.5,379.5 Z"/></g>
<g><path style="opacity:1" fill="#ccad3c" d="M 458.5,402.5 C 459.817,408.346 459.817,414.346 458.5,420.5C 433.38,431.893 408.38,443.56 383.5,455.5C 382.193,449.612 382.193,443.779 383.5,438C 408.591,426.119 433.591,414.285 458.5,402.5 Z"/></g>
<g><path style="opacity:1" fill="#cdad3c" d="M 457.5,430.5 C 458.814,432.915 459.481,435.748 459.5,439C 459.478,442.086 459.145,445.086 458.5,448C 433.137,459.432 407.97,471.265 383,483.5C 382.17,477.472 382.336,471.472 383.5,465.5C 408.5,454.331 433.166,442.665 457.5,430.5 Z"/></g>
<g><path style="opacity:1" fill="#ccad3c" d="M 457.5,458.5 C 458.814,460.915 459.481,463.748 459.5,467C 459.167,469.833 458.833,472.667 458.5,475.5C 433.62,487.44 408.62,499.107 383.5,510.5C 382.193,504.612 382.193,498.779 383.5,493C 408.378,481.725 433.044,470.225 457.5,458.5 Z"/></g>
<g><path style="opacity:1" fill="#ccad3c" d="M 456.5,486.5 C 457.5,486.5 458.5,486.5 459.5,486.5C 459.829,492.206 459.495,497.872 458.5,503.5C 412.856,524.213 367.356,545.213 322,566.5C 321.193,560.584 321.359,554.75 322.5,549C 367.378,528.392 412.044,507.558 456.5,486.5 Z"/></g>
<g><path style="opacity:1" fill="#ccad3c" d="M 458.5,513.5 C 459.49,519.31 459.823,525.31 459.5,531.5C 413.385,551.806 367.552,572.806 322,594.5C 321.17,588.472 321.336,582.472 322.5,576.5C 367.936,555.478 413.269,534.478 458.5,513.5 Z"/></g>
<g><path style="opacity:1" fill="#ccad3c" d="M 457.5,541.5 C 458.814,543.915 459.481,546.748 459.5,550C 459.167,552.833 458.833,555.667 458.5,558.5C 413.167,579.5 367.833,600.5 322.5,621.5C 321.167,615.833 321.167,610.167 322.5,604.5C 367.688,583.671 412.688,562.671 457.5,541.5 Z"/></g>
<g><path style="opacity:1" fill="#ccad3c" d="M 458.5,568.5 C 459.817,574.346 459.817,580.346 458.5,586.5C 412.804,607.432 367.304,628.765 322,650.5C 321.191,644.251 321.358,638.084 322.5,632C 368.044,611.058 413.378,589.892 458.5,568.5 Z"/></g>
<g><path style="opacity:1" fill="#ccac39" d="M 458.5,596.5 C 459.498,624.995 459.831,653.662 459.5,682.5C 413.5,682.5 367.5,682.5 321.5,682.5C 321.5,675.167 321.5,667.833 321.5,660.5C 367.287,639.44 412.954,618.107 458.5,596.5 Z"/></g>
<g><path style="opacity:1" fill="#f4edd4" d="M 458.5,596.5 C 458.56,595.957 458.893,595.624 459.5,595.5C 460.5,624.826 460.833,654.159 460.5,683.5C 413.833,683.5 367.167,683.5 320.5,683.5C 320.175,675.648 320.508,667.982 321.5,660.5C 321.5,667.833 321.5,675.167 321.5,682.5C 367.5,682.5 413.5,682.5 459.5,682.5C 459.831,653.662 459.498,624.995 458.5,596.5 Z"/></g>
<g><path style="opacity:1" fill="#e0bb71" d="M 588.5,707.5 C 596.167,707.5 603.833,707.5 611.5,707.5C 611.667,739.168 611.5,770.835 611,802.5C 609.523,815.989 602.023,823.323 588.5,824.5C 588.5,785.5 588.5,746.5 588.5,707.5 Z"/></g>
<g><path style="opacity:1" fill="#e0bc72" d="M 463.5,707.5 C 477.917,707.4 482.75,714.067 478,727.5C 469.435,734.93 462.102,733.93 456,724.5C 454.16,716.851 456.66,711.184 463.5,707.5 Z"/></g>
<g><path style="opacity:1" fill="#e6c98d" d="M 427.5,720.5 C 425.833,720.5 424.167,720.5 422.5,720.5C 422.5,731.5 422.5,742.5 422.5,753.5C 429.833,753.5 437.167,753.5 444.5,753.5C 437.018,754.492 429.352,754.825 421.5,754.5C 421.5,742.833 421.5,731.167 421.5,719.5C 423.735,719.205 425.735,719.539 427.5,720.5 Z"/></g>
<g><path style="opacity:1" fill="#e0bb70" d="M 407.5,720.5 C 409.167,720.5 410.833,720.5 412.5,720.5C 412.5,741.5 412.5,762.5 412.5,783.5C 401.281,782.455 394.114,776.455 391,765.5C 390.072,754.76 390.405,744.093 392,733.5C 395.237,726.755 400.403,722.422 407.5,720.5 Z"/></g>
<g><path style="opacity:1" fill="#e7cb92" d="M 407.5,720.5 C 409.265,719.539 411.265,719.205 413.5,719.5C 413.831,741.007 413.497,762.34 412.5,783.5C 412.5,762.5 412.5,741.5 412.5,720.5C 410.833,720.5 409.167,720.5 407.5,720.5 Z"/></g>
<g><path style="opacity:1" fill="#e0bb70" d="M 427.5,720.5 C 435.78,722.947 441.28,728.28 444,736.5C 444.499,742.157 444.666,747.824 444.5,753.5C 437.167,753.5 429.833,753.5 422.5,753.5C 422.5,742.5 422.5,731.5 422.5,720.5C 424.167,720.5 425.833,720.5 427.5,720.5 Z"/></g>
<g><path style="opacity:1" fill="#e0bc72" d="M 456.5,742.5 C 464.167,742.5 471.833,742.5 479.5,742.5C 479.5,769.833 479.5,797.167 479.5,824.5C 471.833,824.5 464.167,824.5 456.5,824.5C 456.5,797.167 456.5,769.833 456.5,742.5 Z"/></g>
<g><path style="opacity:1" fill="#dfbb6f" d="M 491.5,742.5 C 499.167,742.5 506.833,742.5 514.5,742.5C 514.5,769.833 514.5,797.167 514.5,824.5C 506.833,824.5 499.167,824.5 491.5,824.5C 491.5,797.167 491.5,769.833 491.5,742.5 Z"/></g>
<g><path style="opacity:1" fill="#e0bb71" d="M 689.5,742.5 C 697.167,742.5 704.833,742.5 712.5,742.5C 712.5,769.833 712.5,797.167 712.5,824.5C 704.833,824.5 697.167,824.5 689.5,824.5C 689.5,797.167 689.5,769.833 689.5,742.5 Z"/></g>
<g><path style="opacity:1" fill="#e0bc72" d="M 523.5,742.5 C 535.062,743.887 542.562,750.22 546,761.5C 546.5,782.497 546.667,803.497 546.5,824.5C 538.833,824.5 531.167,824.5 523.5,824.5C 523.5,797.167 523.5,769.833 523.5,742.5 Z"/></g>
<g><path style="opacity:1" fill="#e0bb71" d="M 574.5,742.5 C 576.167,742.5 577.833,742.5 579.5,742.5C 579.5,769.833 579.5,797.167 579.5,824.5C 568.268,823.137 560.768,817.137 557,806.5C 556.333,791.167 556.333,775.833 557,760.5C 559.683,751.318 565.517,745.318 574.5,742.5 Z"/></g>
<g><path style="opacity:1" fill="#e0bc72" d="M 641.5,742.5 C 643.5,742.5 645.5,742.5 647.5,742.5C 647.5,781.5 647.5,820.5 647.5,859.5C 639.833,859.5 632.167,859.5 624.5,859.5C 624.333,825.832 624.5,792.165 625,758.5C 628.438,750.893 633.938,745.56 641.5,742.5 Z"/></g>
<g><path style="opacity:1" fill="#e0bb70" d="M 655.5,742.5 C 667.096,743.381 674.596,749.381 678,760.5C 678.667,775.833 678.667,791.167 678,806.5C 674.791,817.876 667.291,823.876 655.5,824.5C 655.5,797.167 655.5,769.833 655.5,742.5 Z"/></g>
<g><path style="opacity:1" fill="#e0bb71" d="M 721.5,742.5 C 732.732,743.863 740.232,749.863 744,760.5C 744.499,766.157 744.666,771.824 744.5,777.5C 736.833,777.5 729.167,777.5 721.5,777.5C 721.5,765.833 721.5,754.167 721.5,742.5 Z"/></g>
<g><path style="opacity:1" fill="#e0bc72" d="M 771.5,742.5 C 773.167,742.5 774.833,742.5 776.5,742.5C 776.5,769.833 776.5,797.167 776.5,824.5C 763.607,822.775 756.107,815.441 754,802.5C 753.333,788.833 753.333,775.167 754,761.5C 756.955,752.383 762.789,746.05 771.5,742.5 Z"/></g>
<g><path style="opacity:1" fill="#e0bb70" d="M 785.5,742.5 C 795.173,743.343 802.34,748.01 807,756.5C 808.108,765.442 808.608,774.442 808.5,783.5C 808.333,791.167 808.167,798.833 808,806.5C 804.596,817.619 797.096,823.619 785.5,824.5C 785.5,797.167 785.5,769.833 785.5,742.5 Z"/></g>
<g><path style="opacity:1" fill="#e6c88c" d="M 426.5,761.5 C 425.167,761.5 423.833,761.5 422.5,761.5C 422.5,782.167 422.5,802.833 422.5,823.5C 423.833,823.5 425.167,823.5 426.5,823.5C 425.081,824.451 423.415,824.784 421.5,824.5C 421.5,803.167 421.5,781.833 421.5,760.5C 423.415,760.216 425.081,760.549 426.5,761.5 Z"/></g>
<g><path style="opacity:1" fill="#e0bb70" d="M 426.5,761.5 C 434.191,763.021 439.691,767.355 443,774.5C 444.595,785.093 444.928,795.76 444,806.5C 441.609,815.724 435.776,821.391 426.5,823.5C 425.167,823.5 423.833,823.5 422.5,823.5C 422.5,802.833 422.5,782.167 422.5,761.5C 423.833,761.5 425.167,761.5 426.5,761.5 Z"/></g>
<g><path style="opacity:1" fill="#e0bb71" d="M 390.5,790.5 C 397.833,790.5 405.167,790.5 412.5,790.5C 412.5,801.833 412.5,813.167 412.5,824.5C 401.247,823.416 394.08,817.416 391,806.5C 390.501,801.177 390.334,795.844 390.5,790.5 Z"/></g>
<g><path style="opacity:1" fill="#e7ca91" d="M 390.5,790.5 C 397.982,789.508 405.648,789.175 413.5,789.5C 413.828,801.345 413.495,813.012 412.5,824.5C 412.5,813.167 412.5,801.833 412.5,790.5C 405.167,790.5 397.833,790.5 390.5,790.5 Z"/></g>
</svg>
