<?xml version="1.0" encoding="UTF-8"?>
<!DOCTYPE svg PUBLIC "-//W3C//DTD SVG 1.1//EN" "http://www.w3.org/Graphics/SVG/1.1/DTD/svg11.dtd">
<svg xmlns="http://www.w3.org/2000/svg" version="1.1" width="1200px" height="1200px" style="shape-rendering:geometricPrecision; text-rendering:geometricPrecision; image-rendering:optimizeQuality; fill-rule:evenodd; clip-rule:evenodd" xmlns:xlink="http://www.w3.org/1999/xlink">
<g><path style="opacity:1" fill="#1d4a79" d="M -0.5,-0.5 C 399.5,-0.5 799.5,-0.5 1199.5,-0.5C 1199.5,399.5 1199.5,799.5 1199.5,1199.5C 799.5,1199.5 399.5,1199.5 -0.5,1199.5C -0.5,799.5 -0.5,399.5 -0.5,-0.5 Z"/></g>
<g><path style="opacity:1" fill="#cbab39" d="M 799.5,379.5 C 783.31,388.18 767.477,397.513 752,407.5C 751.5,499.166 751.333,590.833 751.5,682.5C 740.833,682.5 730.167,682.5 719.5,682.5C 719.833,615.163 719.5,547.83 718.5,480.5C 703.25,489.708 688.083,499.041 673,508.5C 672.5,566.499 672.333,624.499 672.5,682.5C 661.167,682.5 649.833,682.5 638.5,682.5C 638.333,533.166 638.5,383.833 639,234.5C 643.088,232.206 647.255,230.039 651.5,228C 654.303,227.245 656.97,227.578 659.5,229C 706,260.167 752.5,291.333 799,322.5C 799.5,341.497 799.667,360.497 799.5,379.5 Z"/></g>
<g><path style="opacity:1" fill="#c9aa3a" d="M 629.5,682.5 C 623.167,682.5 616.833,682.5 610.5,682.5C 610.5,537.5 610.5,392.5 610.5,247.5C 616.478,244.845 622.478,242.179 628.5,239.5C 629.5,387.165 629.833,534.832 629.5,682.5 Z"/></g>
<g><path style="opacity:1" fill="#3a5a6e" d="M 610.5,247.5 C 610.5,392.5 610.5,537.5 610.5,682.5C 616.833,682.5 623.167,682.5 629.5,682.5C 623.021,683.491 616.354,683.824 609.5,683.5C 609.167,537.999 609.5,392.666 610.5,247.5 Z"/></g>
<g><path style="opacity:1" fill="#cbab39" d="M 601.5,682.5 C 595.167,682.5 588.833,682.5 582.5,682.5C 582.5,541.833 582.5,401.167 582.5,260.5C 588.478,257.845 594.478,255.179 600.5,252.5C 601.5,395.832 601.833,539.165 601.5,682.5 Z"/></g>
<g><path style="opacity:1" fill="#44606b" d="M 582.5,260.5 C 582.5,401.167 582.5,541.833 582.5,682.5C 588.833,682.5 595.167,682.5 601.5,682.5C 595.021,683.491 588.354,683.824 581.5,683.5C 581.167,542.332 581.5,401.332 582.5,260.5 Z"/></g>
<g><path style="opacity:1" fill="#6d765c" d="M 572.5,266.5 C 572.56,265.957 572.893,265.624 573.5,265.5C 574.5,404.498 574.833,543.498 574.5,682.5C 574.167,682.5 573.833,682.5 573.5,682.5C 573.833,543.666 573.5,404.999 572.5,266.5 Z"/></g>
<g><path style="opacity:1" fill="#cbab39" d="M 572.5,266.5 C 573.5,404.999 573.833,543.666 573.5,682.5C 567.5,682.5 561.5,682.5 555.5,682.5C 555.5,546.167 555.5,409.833 555.5,273.5C 561.081,270.973 566.748,268.639 572.5,266.5 Z"/></g>
<g><path style="opacity:1" fill="#c8aa3a" d="M 544.5,278.5 C 546.498,412.829 547.165,547.496 546.5,682.5C 540.167,682.5 533.833,682.5 527.5,682.5C 527.333,550.833 527.5,419.166 528,287.5C 533.642,284.599 539.142,281.599 544.5,278.5 Z"/></g>
<g><path style="opacity:1" fill="#cbab39" d="M 517.5,291.5 C 518.5,421.666 518.833,551.999 518.5,682.5C 512.167,682.5 505.833,682.5 499.5,682.5C 499.333,555.166 499.5,427.833 500,300.5C 505.847,297.327 511.681,294.327 517.5,291.5 Z"/></g>
<g><path style="opacity:1" fill="#cbab39" d="M 490.5,305.5 C 490.5,431.167 490.5,556.833 490.5,682.5C 484.5,682.5 478.5,682.5 472.5,682.5C 472.5,559.5 472.5,436.5 472.5,313.5C 478.5,310.833 484.5,308.167 490.5,305.5 Z"/></g>
<g><path style="opacity:1" fill="#69745d" d="M 472.5,313.5 C 472.5,436.5 472.5,559.5 472.5,682.5C 478.5,682.5 484.5,682.5 490.5,682.5C 490.5,556.833 490.5,431.167 490.5,305.5C 491.5,430.763 491.833,556.763 491.5,683.5C 484.833,683.5 478.167,683.5 471.5,683.5C 471.167,559.999 471.5,436.666 472.5,313.5 Z"/></g>
<g><path style="opacity:1" fill="#cbab39" d="M 799.5,379.5 C 824.793,409.395 849.626,439.729 874,470.5C 874.333,537.833 874.667,605.167 875,672.5C 876.15,675.768 876.984,679.101 877.5,682.5C 851.5,682.5 825.5,682.5 799.5,682.5C 799.5,581.5 799.5,480.5 799.5,379.5 Z"/></g>
<g><path style="opacity:1" fill="#c8aa3a" d="M 458.5,402.5 C 459.817,408.346 459.817,414.346 458.5,420.5C 433.38,431.893 408.38,443.56 383.5,455.5C 382.193,449.612 382.193,443.779 383.5,438C 408.591,426.119 433.591,414.285 458.5,402.5 Z"/></g>
<g><path style="opacity:1" fill="#c8aa3a" d="M 457.5,430.5 C 458.814,432.915 459.481,435.748 459.5,439C 459.478,442.086 459.145,445.086 458.5,448C 433.137,459.432 407.97,471.265 383,483.5C 382.17,477.472 382.336,471.472 383.5,465.5C 408.5,454.331 433.166,442.665 457.5,430.5 Z"/></g>
<g><path style="opacity:1" fill="#c8aa3a" d="M 457.5,458.5 C 458.814,460.915 459.481,463.748 459.5,467C 459.478,470.086 459.145,473.086 458.5,476C 433.5,487.5 408.5,499 383.5,510.5C 382.193,504.612 382.193,498.779 383.5,493C 408.378,481.725 433.044,470.225 457.5,458.5 Z"/></g>
<g><path style="opacity:1" fill="#45606b" d="M 458.5,486.5 C 458.56,485.957 458.893,485.624 459.5,485.5C 460.817,491.654 460.817,497.654 459.5,503.5C 459.822,497.642 459.489,491.975 458.5,486.5 Z"/></g>
<g><path style="opacity:1" fill="#c9aa3a" d="M 458.5,486.5 C 459.489,491.975 459.822,497.642 459.5,503.5C 413.613,524.36 367.78,545.36 322,566.5C 321.193,560.584 321.359,554.75 322.5,549C 367.735,527.881 413.069,507.048 458.5,486.5 Z"/></g>
<g><path style="opacity:1" fill="#c9aa3a" d="M 458.5,513.5 C 459.49,519.31 459.823,525.31 459.5,531.5C 413.385,551.806 367.552,572.806 322,594.5C 321.17,588.472 321.336,582.472 322.5,576.5C 367.924,555.451 413.257,534.451 458.5,513.5 Z"/></g>
<g><path style="opacity:1" fill="#435f6b" d="M 458.5,541.5 C 458.56,540.957 458.893,540.624 459.5,540.5C 460.817,546.654 460.817,552.654 459.5,558.5C 459.822,552.642 459.489,546.975 458.5,541.5 Z"/></g>
<g><path style="opacity:1" fill="#c8aa3a" d="M 458.5,541.5 C 459.489,546.975 459.822,552.642 459.5,558.5C 413.735,579.215 368.069,600.215 322.5,621.5C 321.193,615.612 321.193,609.779 322.5,604C 367.979,583.426 413.312,562.593 458.5,541.5 Z"/></g>
<g><path style="opacity:1" fill="#c8aa3a" d="M 458.5,568.5 C 459.817,574.346 459.817,580.346 458.5,586.5C 412.804,607.432 367.304,628.765 322,650.5C 321.191,644.251 321.358,638.084 322.5,632C 368.044,611.058 413.378,589.892 458.5,568.5 Z"/></g>
<g><path style="opacity:1" fill="#cbab39" d="M 458.5,596.5 C 459.498,624.995 459.831,653.662 459.5,682.5C 413.5,682.5 367.5,682.5 321.5,682.5C 321.5,675.167 321.5,667.833 321.5,660.5C 367.167,639.167 412.833,617.833 458.5,596.5 Z"/></g>
<g><path style="opacity:1" fill="#425e6c" d="M 458.5,596.5 C 458.56,595.957 458.893,595.624 459.5,595.5C 460.5,624.826 460.833,654.159 460.5,683.5C 413.833,683.5 367.167,683.5 320.5,683.5C 320.175,675.648 320.508,667.982 321.5,660.5C 321.5,667.833 321.5,675.167 321.5,682.5C 367.5,682.5 413.5,682.5 459.5,682.5C 459.831,653.662 459.498,624.995 458.5,596.5 Z"/></g>
<g><path style="opacity:1" fill="#596a64" d="M 555.5,273.5 C 555.5,409.833 555.5,546.167 555.5,682.5C 561.5,682.5 567.5,682.5 573.5,682.5C 573.833,682.5 574.167,682.5 574.5,682.5C 568.021,683.491 561.354,683.824 554.5,683.5C 554.167,546.666 554.5,409.999 555.5,273.5 Z"/></g>
<g><path style="opacity:1" fill="#deb970" d="M 588.5,707.5 C 596.167,707.5 603.833,707.5 611.5,707.5C 611.667,739.168 611.5,770.835 611,802.5C 609.523,815.989 602.023,823.323 588.5,824.5C 588.5,785.5 588.5,746.5 588.5,707.5 Z"/></g>
<g><path style="opacity:1" fill="#dbb870" d="M 463.5,707.5 C 475.16,706.661 480.66,711.994 480,723.5C 474.892,733.123 467.725,734.956 458.5,729C 453.273,720.143 454.94,712.977 463.5,707.5 Z"/></g>
<g><path style="opacity:1" fill="#dcb870" d="M 407.5,719.5 C 409.5,719.5 411.5,719.5 413.5,719.5C 413.5,740.833 413.5,762.167 413.5,783.5C 401.75,782.925 394.25,776.925 391,765.5C 390.072,754.76 390.405,744.093 392,733.5C 395.492,726.834 400.659,722.168 407.5,719.5 Z"/></g>
<g><path style="opacity:1" fill="#b7a372" d="M 427.5,720.5 C 425.833,720.5 424.167,720.5 422.5,720.5C 422.5,731.5 422.5,742.5 422.5,753.5C 429.833,753.5 437.167,753.5 444.5,753.5C 437.018,754.492 429.352,754.825 421.5,754.5C 421.5,742.833 421.5,731.167 421.5,719.5C 423.735,719.205 425.735,719.539 427.5,720.5 Z"/></g>
<g><path style="opacity:1" fill="#dfba70" d="M 427.5,720.5 C 435.78,722.947 441.28,728.28 444,736.5C 444.499,742.157 444.666,747.824 444.5,753.5C 437.167,753.5 429.833,753.5 422.5,753.5C 422.5,742.5 422.5,731.5 422.5,720.5C 424.167,720.5 425.833,720.5 427.5,720.5 Z"/></g>
<g><path style="opacity:1" fill="#d8b670" d="M 455.5,742.5 C 463.5,742.5 471.5,742.5 479.5,742.5C 479.5,769.833 479.5,797.167 479.5,824.5C 471.5,824.5 463.5,824.5 455.5,824.5C 455.5,797.167 455.5,769.833 455.5,742.5 Z"/></g>
<g><path style="opacity:1" fill="#dfbb6f" d="M 491.5,742.5 C 499.167,742.5 506.833,742.5 514.5,742.5C 514.5,769.833 514.5,797.167 514.5,824.5C 506.833,824.5 499.167,824.5 491.5,824.5C 491.5,797.167 491.5,769.833 491.5,742.5 Z"/></g>
<g><path style="opacity:1" fill="#deb970" d="M 689.5,742.5 C 697.167,742.5 704.833,742.5 712.5,742.5C 712.5,769.833 712.5,797.167 712.5,824.5C 704.833,824.5 697.167,824.5 689.5,824.5C 689.5,797.167 689.5,769.833 689.5,742.5 Z"/></g>
<g><path style="opacity:1" fill="#d8b670" d="M 522.5,742.5 C 533.448,742.943 540.948,748.276 545,758.5C 546.456,780.447 546.956,802.447 546.5,824.5C 538.5,824.5 530.5,824.5 522.5,824.5C 522.5,797.167 522.5,769.833 522.5,742.5 Z"/></g>
<g><path style="opacity:1" fill="#ddb970" d="M 574.5,742.5 C 576.167,742.5 577.833,742.5 579.5,742.5C 579.5,769.833 579.5,797.167 579.5,824.5C 568.268,823.137 560.768,817.137 557,806.5C 556.333,791.167 556.333,775.833 557,760.5C 559.683,751.318 565.517,745.318 574.5,742.5 Z"/></g>
<g><path style="opacity:1" fill="#d8b670" d="M 641.5,742.5 C 643.5,742.5 645.5,742.5 647.5,742.5C 647.5,781.5 647.5,820.5 647.5,859.5C 639.5,859.5 631.5,859.5 623.5,859.5C 623.333,826.832 623.5,794.165 624,761.5C 626.955,752.383 632.789,746.05 641.5,742.5 Z"/></g>
<g><path style="opacity:1" fill="#deba70" d="M 655.5,742.5 C 665.173,743.343 672.34,748.01 677,756.5C 678.108,765.442 678.608,774.442 678.5,783.5C 678.333,791.167 678.167,798.833 678,806.5C 674.791,817.876 667.291,823.876 655.5,824.5C 655.5,797.167 655.5,769.833 655.5,742.5 Z"/></g>
<g><path style="opacity:1" fill="#ddb970" d="M 721.5,742.5 C 732.732,743.863 740.232,749.863 744,760.5C 744.499,766.157 744.666,771.824 744.5,777.5C 736.833,777.5 729.167,777.5 721.5,777.5C 721.5,765.833 721.5,754.167 721.5,742.5 Z"/></g>
<g><path style="opacity:1" fill="#d8b670" d="M 771.5,742.5 C 773.5,742.5 775.5,742.5 777.5,742.5C 777.5,769.833 777.5,797.167 777.5,824.5C 764.073,823.242 756.239,815.908 754,802.5C 753.333,788.833 753.333,775.167 754,761.5C 756.928,752.408 762.762,746.075 771.5,742.5 Z"/></g>
<g><path style="opacity:1" fill="#deba70" d="M 785.5,742.5 C 795.173,743.343 802.34,748.01 807,756.5C 808.124,765.262 808.624,774.095 808.5,783C 808.333,790.833 808.167,798.667 808,806.5C 804.596,817.619 797.096,823.619 785.5,824.5C 785.5,797.167 785.5,769.833 785.5,742.5 Z"/></g>
<g><path style="opacity:1" fill="#b7a472" d="M 426.5,761.5 C 425.167,761.5 423.833,761.5 422.5,761.5C 422.5,782.167 422.5,802.833 422.5,823.5C 424.167,823.5 425.833,823.5 427.5,823.5C 425.735,824.461 423.735,824.795 421.5,824.5C 421.5,803.167 421.5,781.833 421.5,760.5C 423.415,760.216 425.081,760.549 426.5,761.5 Z"/></g>
<g><path style="opacity:1" fill="#deba70" d="M 426.5,761.5 C 434.183,763.011 439.683,767.344 443,774.5C 444.595,785.093 444.928,795.76 444,806.5C 441.72,815.28 436.22,820.947 427.5,823.5C 425.833,823.5 424.167,823.5 422.5,823.5C 422.5,802.833 422.5,782.167 422.5,761.5C 423.833,761.5 425.167,761.5 426.5,761.5 Z"/></g>
<g><path style="opacity:1" fill="#deba70" d="M 390.5,790.5 C 397.833,790.5 405.167,790.5 412.5,790.5C 412.5,801.833 412.5,813.167 412.5,824.5C 401.247,823.416 394.08,817.416 391,806.5C 390.501,801.177 390.334,795.844 390.5,790.5 Z"/></g>
<g><path style="opacity:1" fill="#b2a072" d="M 390.5,790.5 C 397.982,789.508 405.648,789.175 413.5,789.5C 413.828,801.345 413.495,813.012 412.5,824.5C 412.5,813.167 412.5,801.833 412.5,790.5C 405.167,790.5 397.833,790.5 390.5,790.5 Z"/></g>
</svg>
