<?xml version="1.0" encoding="UTF-8"?>
<!DOCTYPE svg PUBLIC "-//W3C//DTD SVG 1.1//EN" "http://www.w3.org/Graphics/SVG/1.1/DTD/svg11.dtd">
<svg xmlns="http://www.w3.org/2000/svg" version="1.1" width="500px" height="500px" style="shape-rendering:geometricPrecision; text-rendering:geometricPrecision; image-rendering:optimizeQuality; fill-rule:evenodd; clip-rule:evenodd" xmlns:xlink="http://www.w3.org/1999/xlink">
<g><path style="opacity:0.015" fill="#faf5eb" d="M 84.5,159.5 C 86.134,158.839 87.9674,158.506 90,158.5C 93.1498,158.36 95.9831,159.027 98.5,160.5C 93.8696,159.771 89.2029,159.437 84.5,159.5 Z"/></g>
<g><path style="opacity:0.996" fill="#e2bf7a" d="M 84.5,159.5 C 89.2029,159.437 93.8696,159.771 98.5,160.5C 103.627,162.728 106.294,166.728 106.5,172.5C 105.583,184.809 98.9167,190.309 86.5,189C 82.3209,187.319 79.3209,184.485 77.5,180.5C 76.7564,176.881 76.423,173.215 76.5,169.5C 77.6737,168.486 78.3404,167.153 78.5,165.5C 79.9063,165.027 80.573,164.027 80.5,162.5C 82.4044,162.262 83.7377,161.262 84.5,159.5 Z"/></g>
<g><path style="opacity:0.997" fill="#e0bb71" d="M 262.5,278.5 C 262.163,282.836 260.496,286.503 257.5,289.5C 256.094,289.973 255.427,290.973 255.5,292.5C 253.973,292.427 252.973,293.094 252.5,294.5C 251.341,296.25 249.674,297.25 247.5,297.5C 243.742,297.848 240.076,298.515 236.5,299.5C 236.5,252.833 236.5,206.167 236.5,159.5C 245.5,159.5 254.5,159.5 263.5,159.5C 263.772,199.178 263.439,238.845 262.5,278.5 Z"/></g>
<g><path style="opacity:0.482" fill="#f4e7cd" d="M 84.5,159.5 C 83.7377,161.262 82.4044,162.262 80.5,162.5C 81.2623,160.738 82.5956,159.738 84.5,159.5 Z"/></g>
<g><path style="opacity:0.608" fill="#f3e3c7" d="M 80.5,162.5 C 80.573,164.027 79.9063,165.027 78.5,165.5C 78.427,163.973 79.0937,162.973 80.5,162.5 Z"/></g>
<g><path style="opacity:0.051" fill="#f8f0e0" d="M 78.5,165.5 C 78.3404,167.153 77.6737,168.486 76.5,169.5C 76.2291,167.62 76.8958,166.287 78.5,165.5 Z"/></g>
<g><path style="opacity:0.078" fill="#faf4ea" d="M 76.5,169.5 C 76.423,173.215 76.7564,176.881 77.5,180.5C 76.0027,178.71 75.336,176.544 75.5,174C 75.5085,172.293 75.8418,170.793 76.5,169.5 Z"/></g>
<g><path style="opacity:0.999" fill="#e0bb71" d="M 21.5,174.5 C 22.5,174.5 23.5,174.5 24.5,174.5C 24.5,195.833 24.5,217.167 24.5,238.5C 24.5,242.167 24.5,245.833 24.5,249.5C 22.1667,249.5 19.8333,249.5 17.5,249.5C 16.209,249.737 15.209,249.404 14.5,248.5C 14.0269,247.094 13.0269,246.427 11.5,246.5C 11.0269,245.094 10.0269,244.427 8.5,244.5C 6.83333,243.5 5.5,242.167 4.5,240.5C 4.44563,238.368 3.44563,237.035 1.5,236.5C 0.833333,235.833 0.166667,235.167 -0.5,234.5C -0.5,219.167 -0.5,203.833 -0.5,188.5C -0.166667,188.5 0.166667,188.5 0.5,188.5C 1.90632,188.027 2.57298,187.027 2.5,185.5C 5.16667,183.5 7.5,181.167 9.5,178.5C 11.0269,178.573 12.0269,177.906 12.5,176.5C 12.8417,175.662 13.5084,175.328 14.5,175.5C 16.861,175.326 19.1944,174.993 21.5,174.5 Z"/></g>
<g><path style="opacity:0.834" fill="#ead3a4" d="M 21.5,174.5 C 22.5676,173.566 23.901,173.232 25.5,173.5C 25.5,192.5 25.5,211.5 25.5,230.5C 25.5,233.167 25.5,235.833 25.5,238.5C 25.1667,238.5 24.8333,238.5 24.5,238.5C 24.5,217.167 24.5,195.833 24.5,174.5C 23.5,174.5 22.5,174.5 21.5,174.5 Z"/></g>
<g><path style="opacity:0.999" fill="#e0bb71" d="M 41.5,174.5 C 43.1172,175.038 44.7839,175.371 46.5,175.5C 47.5137,176.674 48.847,177.34 50.5,177.5C 53.0892,178.419 55.0892,180.086 56.5,182.5C 56.7376,184.404 57.7376,185.738 59.5,186.5C 61.0075,188.181 62.0075,190.181 62.5,192.5C 62.5,199.5 62.5,206.5 62.5,213.5C 54.1667,213.5 45.8333,213.5 37.5,213.5C 37.5,200.5 37.5,187.5 37.5,174.5C 38.8333,174.5 40.1667,174.5 41.5,174.5 Z"/></g>
<g><path style="opacity:0.204" fill="#f8f0e2" d="M 41.5,174.5 C 41.5,174.167 41.5,173.833 41.5,173.5C 43.5529,173.402 45.2196,174.069 46.5,175.5C 44.7839,175.371 43.1172,175.038 41.5,174.5 Z"/></g>
<g><path style="opacity:0.157" fill="#f6ecda" d="M 46.5,175.5 C 48.3797,175.229 49.713,175.896 50.5,177.5C 48.847,177.34 47.5137,176.674 46.5,175.5 Z"/></g>
<g><path style="opacity:0.682" fill="#f1dfbc" d="M 12.5,176.5 C 12.0269,177.906 11.0269,178.573 9.5,178.5C 9.97306,177.094 10.9731,176.427 12.5,176.5 Z"/></g>
<g><path style="opacity:0.627" fill="#f3e4c8" d="M 9.5,178.5 C 7.5,181.167 5.16667,183.5 2.5,185.5C 3.83333,182.167 6.16667,179.833 9.5,178.5 Z"/></g>
<g><path style="opacity:0.835" fill="#f1ddb8" d="M 56.5,182.5 C 58.2624,183.262 59.2624,184.596 59.5,186.5C 57.7376,185.738 56.7376,184.404 56.5,182.5 Z"/></g>
<g><path style="opacity:0.176" fill="#f7eedd" d="M 2.5,185.5 C 2.57298,187.027 1.90632,188.027 0.5,188.5C 0.427017,186.973 1.09368,185.973 2.5,185.5 Z"/></g>
<g><path style="opacity:0.624" fill="#f4e8d0" d="M 25.5,230.5 C 25.5,211.5 25.5,192.5 25.5,173.5C 23.901,173.232 22.5676,173.566 21.5,174.5C 19.1944,174.993 16.861,175.326 14.5,175.5C 18.0981,173.308 22.0981,172.308 26.5,172.5C 27.1288,191.976 26.7955,211.309 25.5,230.5 Z"/></g>
<g><path style="opacity:0.493" fill="#f8f0e0" d="M 105.5,201.5 C 96.1667,201.5 86.8333,201.5 77.5,201.5C 77.5,234.167 77.5,266.833 77.5,299.5C 76.5017,266.671 76.1684,233.671 76.5,200.5C 85.3143,200.794 93.9809,200.461 102.5,199.5C 104.038,199.453 105.038,200.12 105.5,201.5 Z"/></g>
<g><path style="opacity:0.501" fill="#f6ecd7" d="M 147.5,299.5 C 147.5,266.833 147.5,234.167 147.5,201.5C 138.5,201.5 129.5,201.5 120.5,201.5C 120.167,201.5 119.833,201.5 119.5,201.5C 128.371,200.808 137.371,200.141 146.5,199.5C 147.086,199.709 147.586,200.043 148,200.5C 148.831,233.669 148.664,266.669 147.5,299.5 Z"/></g>
<g><path style="opacity:0.483" fill="#f9f0e2" d="M 225.5,299.5 C 225.5,266.833 225.5,234.167 225.5,201.5C 221.802,201.552 218.135,201.886 214.5,202.5C 217.356,200.923 220.522,199.923 224,199.5C 224.772,199.645 225.439,199.978 226,200.5C 226.831,233.669 226.664,266.669 225.5,299.5 Z"/></g>
<g><path style="opacity:0.008" fill="#fdfbf9" d="M 307.5,304.5 C 307.832,269.996 307.498,235.663 306.5,201.5C 303.5,201.5 300.5,201.5 297.5,201.5C 299.831,200.683 302.331,200.016 305,199.5C 305.873,199.735 306.707,200.069 307.5,200.5C 308.83,235.331 308.83,269.998 307.5,304.5 Z"/></g>
<g><path style="opacity:0.007" fill="#fdfcfa" d="M 328.5,203.5 C 324.864,202.674 321.197,202.008 317.5,201.5C 316.502,233.996 316.168,266.662 316.5,299.5C 315.502,266.671 315.168,233.671 315.5,200.5C 320.273,200.124 324.607,201.124 328.5,203.5 Z"/></g>
<g><path style="opacity:0.5" fill="#f9f2e6" d="M 385.5,299.5 C 385.5,266.833 385.5,234.167 385.5,201.5C 376.167,201.5 366.833,201.5 357.5,201.5C 357.5,234.167 357.5,266.833 357.5,299.5C 356.336,266.669 356.169,233.669 357,200.5C 357.414,200.043 357.914,199.709 358.5,199.5C 367.556,200.15 376.556,200.484 385.5,200.5C 386.83,233.664 386.83,266.664 385.5,299.5 Z"/></g>
<g><path style="opacity:0.004" fill="#fcf9f5" d="M 462.5,241.5 C 462.829,227.99 462.496,214.656 461.5,201.5C 459.167,201.5 456.833,201.5 454.5,201.5C 457.102,199.549 459.936,199.216 463,200.5C 463.827,214.34 463.661,228.006 462.5,241.5 Z"/></g>
<g><path style="opacity:0.999" fill="#e0bd75" d="M 105.5,201.5 C 105.37,234.201 105.536,266.868 106,299.5C 96.4018,300.828 86.9018,300.828 77.5,299.5C 77.5,266.833 77.5,234.167 77.5,201.5C 86.8333,201.5 96.1667,201.5 105.5,201.5 Z"/></g>
<g><path style="opacity:0.776" fill="#f1deba" d="M 119.5,201.5 C 119.833,201.5 120.167,201.5 120.5,201.5C 120.5,234.167 120.5,266.833 120.5,299.5C 129.5,299.5 138.5,299.5 147.5,299.5C 138.098,300.828 128.598,300.828 119,299.5C 118.169,266.664 118.336,233.997 119.5,201.5 Z"/></g>
<g><path style="opacity:0.999" fill="#dfbb6f" d="M 120.5,201.5 C 129.5,201.5 138.5,201.5 147.5,201.5C 147.5,234.167 147.5,266.833 147.5,299.5C 138.5,299.5 129.5,299.5 120.5,299.5C 120.5,266.833 120.5,234.167 120.5,201.5 Z"/></g>
<g><path style="opacity:0.306" fill="#f6ecd9" d="M 168.5,203.5 C 165.167,202.833 161.833,202.167 158.5,201.5C 158.5,234.167 158.5,266.833 158.5,299.5C 167.5,299.5 176.5,299.5 185.5,299.5C 176.348,300.494 167.015,300.827 157.5,300.5C 157.5,267.167 157.5,233.833 157.5,200.5C 161.57,200.432 165.237,201.432 168.5,203.5 Z"/></g>
<g><path style="opacity:0.997" fill="#e0bc72" d="M 168.5,203.5 C 169.514,204.674 170.847,205.34 172.5,205.5C 173.035,207.446 174.368,208.446 176.5,208.5C 177.5,208.833 178.167,209.5 178.5,210.5C 178.427,212.027 179.094,213.027 180.5,213.5C 180.427,215.027 181.094,216.027 182.5,216.5C 183.338,216.842 183.672,217.508 183.5,218.5C 185.36,245.447 186.027,272.447 185.5,299.5C 176.5,299.5 167.5,299.5 158.5,299.5C 158.5,266.833 158.5,234.167 158.5,201.5C 161.833,202.167 165.167,202.833 168.5,203.5 Z"/></g>
<g><path style="opacity:0.999" fill="#e0bb73" d="M 225.5,299.5 C 225.265,300.097 224.765,300.43 224,300.5C 218.832,299.733 214.332,297.733 210.5,294.5C 210.027,293.094 209.027,292.427 207.5,292.5C 205.833,291.5 204.5,290.167 203.5,288.5C 203.573,286.973 202.906,285.973 201.5,285.5C 199.992,283.819 198.992,281.819 198.5,279.5C 198.214,259.14 198.547,238.806 199.5,218.5C 199.66,216.847 200.326,215.514 201.5,214.5C 203.262,213.738 204.262,212.404 204.5,210.5C 205.833,209.833 206.833,208.833 207.5,207.5C 209.749,206.92 211.415,205.587 212.5,203.5C 212.842,202.662 213.508,202.328 214.5,202.5C 218.135,201.886 221.802,201.552 225.5,201.5C 225.5,234.167 225.5,266.833 225.5,299.5 Z"/></g>
<g><path style="opacity:0.999" fill="#e1bd75" d="M 297.5,201.5 C 300.5,201.5 303.5,201.5 306.5,201.5C 306.5,247.833 306.5,294.167 306.5,340.5C 297.5,340.5 288.5,340.5 279.5,340.5C 278.833,325.67 278.5,310.67 278.5,295.5C 278.403,269.652 279.07,243.985 280.5,218.5C 281.906,218.027 282.573,217.027 282.5,215.5C 283.906,215.027 284.573,214.027 284.5,212.5C 286.262,211.738 287.262,210.404 287.5,208.5C 289.404,208.262 290.738,207.262 291.5,205.5C 293.027,205.573 294.027,204.906 294.5,203.5C 296.027,203.573 297.027,202.906 297.5,201.5 Z"/></g>
<g><path style="opacity:0.671" fill="#ead2a1" d="M 306.5,201.5 C 307.498,235.663 307.832,269.996 307.5,304.5C 307.179,316.414 307.512,328.247 308.5,340C 303.671,341.144 298.671,341.644 293.5,341.5C 288.654,341.499 283.988,341.166 279.5,340.5C 288.5,340.5 297.5,340.5 306.5,340.5C 306.5,294.167 306.5,247.833 306.5,201.5 Z"/></g>
<g><path style="opacity:0.999" fill="#e0bb71" d="M 317.5,201.5 C 321.197,202.008 324.864,202.674 328.5,203.5C 329.492,203.328 330.158,203.662 330.5,204.5C 330.973,205.906 331.973,206.573 333.5,206.5C 338.766,209.769 342.099,214.436 343.5,220.5C 343.5,237.833 343.5,255.167 343.5,272.5C 343.54,275.881 343.207,279.214 342.5,282.5C 341.921,285.331 340.588,287.664 338.5,289.5C 336.833,290.5 335.5,291.833 334.5,293.5C 333.738,295.262 332.404,296.262 330.5,296.5C 327.779,296.963 325.112,297.629 322.5,298.5C 320.833,298.5 319.167,298.5 317.5,298.5C 317.5,266.167 317.5,233.833 317.5,201.5 Z"/></g>
<g><path style="opacity:0.999" fill="#e0bc74" d="M 385.5,299.5 C 376.167,300.833 366.833,300.833 357.5,299.5C 357.5,266.833 357.5,234.167 357.5,201.5C 366.833,201.5 376.167,201.5 385.5,201.5C 385.5,234.167 385.5,266.833 385.5,299.5 Z"/></g>
<g><path style="opacity:0.361" fill="#f4e6cd" d="M 406.5,203.5 C 403.167,202.833 399.833,202.167 396.5,201.5C 396.5,215.167 396.5,228.833 396.5,242.5C 405.5,242.5 414.5,242.5 423.5,242.5C 423.5,235.833 423.5,229.167 423.5,222.5C 424.491,229.313 424.825,236.313 424.5,243.5C 414.85,243.576 405.35,243.576 396,243.5C 395.5,229.171 395.333,214.837 395.5,200.5C 399.57,200.432 403.237,201.432 406.5,203.5 Z"/></g>
<g><path style="opacity:0.997" fill="#e0bb72" d="M 406.5,203.5 C 408.153,203.66 409.486,204.326 410.5,205.5C 411.035,207.446 412.368,208.446 414.5,208.5C 415.5,208.833 416.167,209.5 416.5,210.5C 416.738,212.404 417.738,213.738 419.5,214.5C 420.338,214.842 420.672,215.508 420.5,216.5C 420.427,218.027 421.094,219.027 422.5,219.5C 423.11,220.391 423.443,221.391 423.5,222.5C 423.5,229.167 423.5,235.833 423.5,242.5C 414.5,242.5 405.5,242.5 396.5,242.5C 396.5,228.833 396.5,215.167 396.5,201.5C 399.833,202.167 403.167,202.833 406.5,203.5 Z"/></g>
<g><path style="opacity:0.999" fill="#e0bc73" d="M 454.5,201.5 C 456.833,201.5 459.167,201.5 461.5,201.5C 461.5,233.833 461.5,266.167 461.5,298.5C 459.5,298.5 457.5,298.5 455.5,298.5C 452.759,298.293 450.426,297.293 448.5,295.5C 447.738,293.738 446.404,292.738 444.5,292.5C 440.693,290.225 438.359,286.892 437.5,282.5C 436.412,277.39 435.412,272.39 434.5,267.5C 434.833,252.167 435.167,236.833 435.5,221.5C 435.992,219.181 436.992,217.181 438.5,215.5C 440.262,214.738 441.262,213.404 441.5,211.5C 443.5,210.167 445.167,208.5 446.5,206.5C 448.484,203.836 451.151,202.169 454.5,201.5 Z"/></g>
<g><path style="opacity:0.675" fill="#ecd5a9" d="M 461.5,201.5 C 462.496,214.656 462.829,227.99 462.5,241.5C 462.314,260.704 462.647,279.704 463.5,298.5C 463.113,299.72 462.28,300.387 461,300.5C 458.97,300.046 457.137,299.38 455.5,298.5C 457.5,298.5 459.5,298.5 461.5,298.5C 461.5,266.167 461.5,233.833 461.5,201.5 Z"/></g>
<g><path style="opacity:0.499" fill="#efdeba" d="M 478.5,201.5 C 476.833,201.5 475.167,201.5 473.5,201.5C 473.5,234.167 473.5,266.833 473.5,299.5C 473.167,299.5 472.833,299.5 472.5,299.5C 472.829,267.26 472.496,235.093 471.5,203C 473.51,200.487 475.843,199.987 478.5,201.5 Z"/></g>
<g><path style="opacity:0.999" fill="#e0bc72" d="M 478.5,201.5 C 483.35,201.925 487.35,203.925 490.5,207.5C 491.5,209.167 492.833,210.5 494.5,211.5C 495.5,211.833 496.167,212.5 496.5,213.5C 496.427,215.027 497.094,216.027 498.5,216.5C 498.833,216.5 499.167,216.5 499.5,216.5C 499.5,238.5 499.5,260.5 499.5,282.5C 495.611,290.722 489.277,296.055 480.5,298.5C 478.05,298.298 475.717,298.631 473.5,299.5C 473.5,266.833 473.5,234.167 473.5,201.5C 475.167,201.5 476.833,201.5 478.5,201.5 Z"/></g>
<g><path style="opacity:0.565" fill="#f5e8d0" d="M 297.5,201.5 C 297.027,202.906 296.027,203.573 294.5,203.5C 294.973,202.094 295.973,201.427 297.5,201.5 Z"/></g>
<g><path style="opacity:0.683" fill="#e9d19f" d="M 317.5,201.5 C 317.5,233.833 317.5,266.167 317.5,298.5C 319.167,298.5 320.833,298.5 322.5,298.5C 322.5,298.833 322.5,299.167 322.5,299.5C 320.347,300.573 318.347,300.573 316.5,299.5C 316.168,266.662 316.502,233.996 317.5,201.5 Z"/></g>
<g><path style="opacity:0.055" fill="#f9f2e5" d="M 168.5,203.5 C 170.38,203.229 171.713,203.896 172.5,205.5C 170.847,205.34 169.514,204.674 168.5,203.5 Z"/></g>
<g><path style="opacity:0.761" fill="#f0dcb7" d="M 294.5,203.5 C 294.027,204.906 293.027,205.573 291.5,205.5C 291.973,204.094 292.973,203.427 294.5,203.5 Z"/></g>
<g><path style="opacity:0.059" fill="#f6ecd8" d="M 330.5,204.5 C 332.027,204.427 333.027,205.094 333.5,206.5C 331.973,206.573 330.973,205.906 330.5,204.5 Z"/></g>
<g><path style="opacity:0.898" fill="#f1ddb9" d="M 172.5,205.5 C 174.23,206.026 175.564,207.026 176.5,208.5C 174.368,208.446 173.035,207.446 172.5,205.5 Z"/></g>
<g><path style="opacity:0.886" fill="#efd9b2" d="M 212.5,203.5 C 211.415,205.587 209.749,206.92 207.5,207.5C 208.585,205.413 210.251,204.08 212.5,203.5 Z"/></g>
<g><path style="opacity:0.537" fill="#f3e4c7" d="M 291.5,205.5 C 290.738,207.262 289.404,208.262 287.5,208.5C 288.262,206.738 289.596,205.738 291.5,205.5 Z"/></g>
<g><path style="opacity:0.902" fill="#f1ddb9" d="M 410.5,205.5 C 412.23,206.026 413.564,207.026 414.5,208.5C 412.368,208.446 411.035,207.446 410.5,205.5 Z"/></g>
<g><path style="opacity:0.392" fill="#f6ecd9" d="M 446.5,206.5 C 445.167,208.5 443.5,210.167 441.5,211.5C 442.167,208.833 443.833,207.167 446.5,206.5 Z"/></g>
<g><path style="opacity:0.004" fill="#f7efde" d="M 490.5,207.5 C 492.833,207.833 494.167,209.167 494.5,211.5C 492.833,210.5 491.5,209.167 490.5,207.5 Z"/></g>
<g><path style="opacity:0.29" fill="#f7eedd" d="M 207.5,207.5 C 206.833,208.833 205.833,209.833 204.5,210.5C 204.5,208.5 205.5,207.5 207.5,207.5 Z"/></g>
<g><path style="opacity:0.667" fill="#f3e4c8" d="M 287.5,208.5 C 287.262,210.404 286.262,211.738 284.5,212.5C 284.738,210.596 285.738,209.262 287.5,208.5 Z"/></g>
<g><path style="opacity:0.745" fill="#f2e2c3" d="M 416.5,210.5 C 418.262,211.262 419.262,212.596 419.5,214.5C 417.738,213.738 416.738,212.404 416.5,210.5 Z"/></g>
<g><path style="opacity:0.392" fill="#f3e5ca" d="M 178.5,210.5 C 179.906,210.973 180.573,211.973 180.5,213.5C 179.094,213.027 178.427,212.027 178.5,210.5 Z"/></g>
<g><path style="opacity:0.62" fill="#f1debb" d="M 204.5,210.5 C 204.262,212.404 203.262,213.738 201.5,214.5C 201.738,212.596 202.738,211.262 204.5,210.5 Z"/></g>
<g><path style="opacity:0.923" fill="#efdab2" d="M 41.5,173.5 C 41.5,173.833 41.5,174.167 41.5,174.5C 40.1667,174.5 38.8333,174.5 37.5,174.5C 37.5,187.5 37.5,200.5 37.5,213.5C 45.8333,213.5 54.1667,213.5 62.5,213.5C 62.5,206.5 62.5,199.5 62.5,192.5C 63.8271,199.902 63.8271,207.402 62.5,215C 53.5323,216.332 44.5323,216.665 35.5,216C 34.3438,201.908 34.1771,187.742 35,173.5C 37.2735,172.189 39.4402,172.189 41.5,173.5 Z"/></g>
<g><path style="opacity:0.522" fill="#f3e4c7" d="M 441.5,211.5 C 441.262,213.404 440.262,214.738 438.5,215.5C 438.738,213.596 439.738,212.262 441.5,211.5 Z"/></g>
<g><path style="opacity:0.412" fill="#f3e3c7" d="M 284.5,212.5 C 284.573,214.027 283.906,215.027 282.5,215.5C 282.427,213.973 283.094,212.973 284.5,212.5 Z"/></g>
<g><path style="opacity:0.31" fill="#f4e5ca" d="M 180.5,213.5 C 181.906,213.973 182.573,214.973 182.5,216.5C 181.094,216.027 180.427,215.027 180.5,213.5 Z"/></g>
<g><path style="opacity:0.18" fill="#f8f0e1" d="M 496.5,213.5 C 497.906,213.973 498.573,214.973 498.5,216.5C 497.094,216.027 496.427,215.027 496.5,213.5 Z"/></g>
<g><path style="opacity:0.225" fill="#f6ecd9" d="M 262.5,278.5 C 263.439,238.845 263.772,199.178 263.5,159.5C 254.5,159.5 245.5,159.5 236.5,159.5C 236.5,206.167 236.5,252.833 236.5,299.5C 235.501,252.67 235.168,205.67 235.5,158.5C 245.167,158.5 254.833,158.5 264.5,158.5C 264.667,196.835 264.5,235.168 264,273.5C 263.802,275.382 263.302,277.048 262.5,278.5 Z"/></g>
<g><path style="opacity:0.231" fill="#f6ebd7" d="M 282.5,215.5 C 282.573,217.027 281.906,218.027 280.5,218.5C 280.427,216.973 281.094,215.973 282.5,215.5 Z"/></g>
<g><path style="opacity:0.11" fill="#f7eedc" d="M 420.5,216.5 C 421.906,216.973 422.573,217.973 422.5,219.5C 421.094,219.027 420.427,218.027 420.5,216.5 Z"/></g>
<g><path style="opacity:0.996" fill="#eed8ae" d="M 45.5,224.5 C 42.8333,224.5 40.1667,224.5 37.5,224.5C 37.5,248.833 37.5,273.167 37.5,297.5C 40.1667,297.5 42.8333,297.5 45.5,297.5C 42.2795,299.743 38.7795,300.409 35,299.5C 34.3333,273.833 34.3333,248.167 35,222.5C 38.7795,221.591 42.2795,222.257 45.5,224.5 Z"/></g>
<g><path style="opacity:0.999" fill="#e0bc72" d="M 45.5,224.5 C 50.4949,225.665 54.4949,228.331 57.5,232.5C 57.427,234.027 58.0937,235.027 59.5,235.5C 59.427,237.027 60.0937,238.027 61.5,238.5C 61.5,238.833 61.5,239.167 61.5,239.5C 62.3327,252.815 62.6661,266.149 62.5,279.5C 60.2392,288.76 54.5726,294.76 45.5,297.5C 42.8333,297.5 40.1667,297.5 37.5,297.5C 37.5,273.167 37.5,248.833 37.5,224.5C 40.1667,224.5 42.8333,224.5 45.5,224.5 Z"/></g>
<g><path style="opacity:0.718" fill="#f1e0be" d="M 183.5,218.5 C 184.864,220.22 185.864,222.22 186.5,224.5C 186.789,249.591 186.456,274.591 185.5,299.5C 186.027,272.447 185.36,245.447 183.5,218.5 Z"/></g>
<g><path style="opacity:0.443" fill="#f3e3c5" d="M 57.5,232.5 C 58.9063,232.973 59.573,233.973 59.5,235.5C 58.0937,235.027 57.427,234.027 57.5,232.5 Z"/></g>
<g><path style="opacity:0.894" fill="#f1deba" d="M 1.5,236.5 C 3.44563,237.035 4.44563,238.368 4.5,240.5C 3.02561,239.564 2.02561,238.23 1.5,236.5 Z"/></g>
<g><path style="opacity:0.188" fill="#f6ecd8" d="M 59.5,235.5 C 60.9063,235.973 61.573,236.973 61.5,238.5C 60.0937,238.027 59.427,237.027 59.5,235.5 Z"/></g>
<g><path style="opacity:0.871" fill="#f2dfbd" d="M 435.5,221.5 C 435.167,236.833 434.833,252.167 434.5,267.5C 433.834,261.175 433.5,254.675 433.5,248C 433.284,238.943 433.951,230.11 435.5,221.5 Z"/></g>
<g><path style="opacity:0.844" fill="#efd9af" d="M 343.5,220.5 C 345.748,237.645 346.081,254.978 344.5,272.5C 344.167,272.5 343.833,272.5 343.5,272.5C 343.5,255.167 343.5,237.833 343.5,220.5 Z"/></g>
<g><path style="opacity:0.404" fill="#f2e3c5" d="M 8.5,244.5 C 10.0269,244.427 11.0269,245.094 11.5,246.5C 9.97306,246.573 8.97306,245.906 8.5,244.5 Z"/></g>
<g><path style="opacity:0.094" fill="#f8f0e1" d="M 11.5,246.5 C 13.0269,246.427 14.0269,247.094 14.5,248.5C 12.9731,248.573 11.9731,247.906 11.5,246.5 Z"/></g>
<g><path style="opacity:0.345" fill="#f4e7ce" d="M 24.5,238.5 C 24.8333,238.5 25.1667,238.5 25.5,238.5C 25.6655,242.514 25.4988,246.514 25,250.5C 24.586,250.957 24.086,251.291 23.5,251.5C 21.3432,250.95 19.3432,250.283 17.5,249.5C 19.8333,249.5 22.1667,249.5 24.5,249.5C 24.5,245.833 24.5,242.167 24.5,238.5 Z"/></g>
<g><path style="opacity:0.669" fill="#f2e1c2" d="M 199.5,218.5 C 198.547,238.806 198.214,259.14 198.5,279.5C 196.103,260.341 195.936,241.008 198,221.5C 198.232,220.263 198.732,219.263 199.5,218.5 Z"/></g>
<g><path style="opacity:0.18" fill="#f9f4e9" d="M 26.5,257.5 C 26.1667,257.5 25.8333,257.5 25.5,257.5C 16.8154,257.464 8.14869,257.797 -0.5,258.5C -0.5,258.167 -0.5,257.833 -0.5,257.5C 7.82265,257.337 15.9893,256.337 24,254.5C 25.3102,255.13 26.1435,256.13 26.5,257.5 Z"/></g>
<g><path style="opacity:0.999" fill="#e0bc73" d="M -0.5,259.5 C 7.83333,259.5 16.1667,259.5 24.5,259.5C 24.5,272.833 24.5,286.167 24.5,299.5C 23.5,300.833 22.5,300.833 21.5,299.5C 19.4855,298.076 17.1522,297.41 14.5,297.5C 11.8021,297.155 9.80214,295.822 8.5,293.5C 7.11822,291.451 5.45155,289.785 3.5,288.5C 2.16667,286.833 0.833333,285.167 -0.5,283.5C -0.5,275.5 -0.5,267.5 -0.5,259.5 Z"/></g>
<g><path style="opacity:0.825" fill="#ead2a1" d="M 25.5,257.5 C 25.5,267.5 25.5,277.5 25.5,287.5C 25.8168,291.702 25.4834,295.702 24.5,299.5C 24.5,286.167 24.5,272.833 24.5,259.5C 16.1667,259.5 7.83333,259.5 -0.5,259.5C -0.5,259.167 -0.5,258.833 -0.5,258.5C 8.14869,257.797 16.8154,257.464 25.5,257.5 Z"/></g>
<g><path style="opacity:0.649" fill="#f0ddb9" d="M 61.5,239.5 C 63.0511,246.934 63.7178,254.6 63.5,262.5C 63.4995,268.343 63.1661,274.01 62.5,279.5C 62.6661,266.149 62.3327,252.815 61.5,239.5 Z"/></g>
<g><path style="opacity:0.592" fill="#f3e5ca" d="M 25.5,257.5 C 25.8333,257.5 26.1667,257.5 26.5,257.5C 26.5394,258.583 26.8728,259.583 27.5,260.5C 26.8585,269.629 26.1919,278.629 25.5,287.5C 25.5,277.5 25.5,267.5 25.5,257.5 Z"/></g>
<g><path style="opacity:0.412" fill="#f4e7cd" d="M 434.5,267.5 C 435.412,272.39 436.412,277.39 437.5,282.5C 434.982,277.939 433.982,272.939 434.5,267.5 Z"/></g>
<g><path style="opacity:0.231" fill="#f6ebd7" d="M 343.5,272.5 C 343.833,272.5 344.167,272.5 344.5,272.5C 344.664,275.187 344.497,277.854 344,280.5C 343.722,281.416 343.222,282.082 342.5,282.5C 343.207,279.214 343.54,275.881 343.5,272.5 Z"/></g>
<g><path style="opacity:0.004" fill="#faf5ec" d="M 201.5,285.5 C 202.906,285.973 203.573,286.973 203.5,288.5C 202.094,288.027 201.427,287.027 201.5,285.5 Z"/></g>
<g><path style="opacity:0.588" fill="#f2e1c1" d="M 3.5,288.5 C 5.45155,289.785 7.11822,291.451 8.5,293.5C 5.85603,292.856 4.18936,291.189 3.5,288.5 Z"/></g>
<g><path style="opacity:0.004" fill="#f9f2e5" d="M 257.5,289.5 C 257.573,291.027 256.906,292.027 255.5,292.5C 255.427,290.973 256.094,289.973 257.5,289.5 Z"/></g>
<g><path style="opacity:0.008" fill="#f9f1e4" d="M 338.5,289.5 C 338.167,291.833 336.833,293.167 334.5,293.5C 335.5,291.833 336.833,290.5 338.5,289.5 Z"/></g>
<g><path style="opacity:0.725" fill="#f3e4c8" d="M 444.5,292.5 C 446.404,292.738 447.738,293.738 448.5,295.5C 446.596,295.262 445.262,294.262 444.5,292.5 Z"/></g>
<g><path style="opacity:0.435" fill="#f3e2c5" d="M 207.5,292.5 C 209.027,292.427 210.027,293.094 210.5,294.5C 208.973,294.573 207.973,293.906 207.5,292.5 Z"/></g>
<g><path style="opacity:0.004" fill="#faf5ec" d="M 255.5,292.5 C 255.027,293.906 254.027,294.573 252.5,294.5C 252.973,293.094 253.973,292.427 255.5,292.5 Z"/></g>
<g><path style="opacity:0.004" fill="#faf4e9" d="M 330.5,296.5 C 328.208,298.267 325.542,299.267 322.5,299.5C 322.5,299.167 322.5,298.833 322.5,298.5C 325.112,297.629 327.779,296.963 330.5,296.5 Z"/></g>
<g><path style="opacity:0.349" fill="#f5e9d2" d="M 14.5,297.5 C 17.1522,297.41 19.4855,298.076 21.5,299.5C 18.8478,299.59 16.5145,298.924 14.5,297.5 Z"/></g>
<g><path style="opacity:0.349" fill="#f6ebd6" d="M 247.5,297.5 C 244.587,298.928 241.421,299.928 238,300.5C 237.235,300.43 236.735,300.097 236.5,299.5C 240.076,298.515 243.742,297.848 247.5,297.5 Z"/></g>
<g><path style="opacity:0.009" fill="#fbf7ef" d="M 480.5,298.5 C 477.911,300.157 475.244,300.491 472.5,299.5C 472.833,299.5 473.167,299.5 473.5,299.5C 475.717,298.631 478.05,298.298 480.5,298.5 Z"/></g>
</svg>
